<svg id="Слой_1" data-name="Слой 1" xmlns="http://www.w3.org/2000/svg" xmlns:xlink="http://www.w3.org/1999/xlink" viewBox="0 0 520.16 409.97"><defs><style>.cls-1{fill:url(#linear-gradient);}.cls-2{fill:url(#linear-gradient-2);}.cls-3{fill:#6aafe8;}.cls-4{fill:#1487e3;}.cls-5{fill:#78c2ff;}.cls-6{fill:#ff7e55;}.cls-7{fill:#424773;}.cls-8{fill:#292c47;}.cls-9{fill:#eea886;}.cls-10{fill:#754836;}.cls-11{fill:#e2d2ca;}.cls-12{fill:#ffcb55;}.cls-13{fill:#a1d4ff;}.cls-14{fill:url(#linear-gradient-3);}.cls-15{fill:#fff;}.cls-16{fill:url(#linear-gradient-4);}.cls-17{fill:#4d78eb;}.cls-18{fill:#e0e0e0;}.cls-19{fill:#ff8761;}.cls-20{opacity:0.76;}.cls-21{fill:#4aafff;}.cls-22{fill:#1a598c;}.cls-23{fill:#2273b5;}.cls-24{fill:#3788cc;}.cls-25{fill:#414773;}.cls-26{fill:#2d314f;}.cls-27{fill:#2b3b57;}.cls-28{fill:#ffc655;}.cls-29{fill:#353a3d;}.cls-30{fill:#d4d8e8;}.cls-31{fill:#e55353;}.cls-32{fill:#6069a8;}.cls-33{fill:#202338;}.cls-34{fill:#464240;}.cls-35{fill:#eb4747;}.cls-36{fill:#325bb3;}.cls-37{fill:#a77860;}.cls-38{fill:#5e5853;}.cls-39{fill:#91887f;}.cls-40{fill:#eddad3;}.cls-41{fill:#6e6760;}.cls-42{fill:#807066;}</style><linearGradient id="linear-gradient" x1="176.02" y1="264.58" x2="476.44" y2="264.58" gradientTransform="translate(638.77 529.16) rotate(-180)" gradientUnits="userSpaceOnUse"><stop offset="0" stop-color="#40d5e6"/><stop offset="1" stop-color="#57f"/></linearGradient><linearGradient id="linear-gradient-2" x1="193.73" y1="251.28" x2="444.56" y2="251.28" gradientTransform="translate(638.3 502.56) rotate(-180)" gradientUnits="userSpaceOnUse"><stop offset="0" stop-color="#404b61"/><stop offset="0.49" stop-color="#3c4860"/><stop offset="1" stop-color="#2f3e5c"/></linearGradient><linearGradient id="linear-gradient-3" x1="258.39" y1="280.11" x2="258.39" y2="446.69" gradientTransform="matrix(1, 0, 0, 1, 0, 0)" xlink:href="#linear-gradient"/><linearGradient id="linear-gradient-4" x1="1.97" y1="450.68" x2="331.46" y2="450.68" gradientTransform="matrix(1, 0, 0, 1, 0, 0)" xlink:href="#linear-gradient"/></defs><title>18907</title><path class="cls-1" d="M184.17,164.42H454.6a0,0,0,0,1,0,0V355.26a9.47,9.47,0,0,1-9.47,9.47H193.65a9.47,9.47,0,0,1-9.47-9.47V164.42A0,0,0,0,1,184.17,164.42Z" transform="translate(577.73 484.14) rotate(180)"/><rect class="cls-2" x="193.73" y="174.23" width="250.83" height="154.09" transform="translate(577.25 457.55) rotate(180)"/><path class="cls-3" d="M167.38,175h-63.8l.11-.57a11.25,11.25,0,0,1,11-9.07,11.09,11.09,0,0,1,2.3.24,19.14,19.14,0,0,1,32.4-2.37A14,14,0,0,1,167.3,174.4Zm-62.62-1h61.5a13.11,13.11,0,0,0-12.77-10.46,12.94,12.94,0,0,0-4.1.66l-.34.11-.2-.29a18.2,18.2,0,0,0-31.15,2.3l-.17.34-.37-.09a10,10,0,0,0-2.44-.3A10.3,10.3,0,0,0,104.76,174Z" transform="translate(-61.04 -45.01)"/><path class="cls-3" d="M401.7,96.41l-.21-.11c-22.65-11.56-19.61-33.95-19.57-34.17l.06-.41h.41c14.39,0,18.92-4.64,19-4.68l.35-.38.35.38c.05,0,4.57,4.68,19,4.68h.42l.06.41c0,.22,3.07,22.61-19.57,34.17ZM382.82,62.67c-.29,3-1.24,22.25,18.88,32.67,20.13-10.42,19.17-29.63,18.89-32.67C408.09,62.6,403,59.11,401.7,58,400.4,59.11,395.31,62.6,382.82,62.67Z" transform="translate(-61.04 -45.01)"/><rect class="cls-4" x="124.35" y="256.09" width="25.27" height="2.86"/><polygon class="cls-5" points="119.08 177.14 78.74 177.14 78.74 125.56 79.69 125.56 79.69 176.19 119.08 176.19 119.08 177.14"/><polygon class="cls-5" points="289.81 143.16 288.85 143.16 288.85 89.97 340.18 89.97 340.18 45.23 341.14 45.23 341.14 90.92 289.81 90.92 289.81 143.16"/><polygon class="cls-5" points="455.63 202.4 402.22 202.4 402.22 201.45 454.67 201.45 454.67 170.44 455.63 170.44 455.63 202.4"/><path class="cls-6" d="M117.39,290.51s-1.15,16.05,2,18c2,1.2,9.79,5.26,9.56,6s-4.42,6.77-4.42,6.77-15-9.9-15.53-13,.74-23.5,2.81-24.44c1.55-.71,2.36-.12,4.32,1.33C118.86,287.17,117.39,290.51,117.39,290.51Z" transform="translate(-61.04 -45.01)"/><path class="cls-7" d="M115.64,407.29s-.47,3.25-.53,3.73-5.2-.28-5.2-.28l-.42-3.87S115,406.83,115.64,407.29Z" transform="translate(-61.04 -45.01)"/><path class="cls-8" d="M115.17,410.61a13.64,13.64,0,0,0,3.2,2.81c1.58.85,4.06,1.19,5,2.07.67.64,2.45,3.38-4.1,3.33s-9.7.39-10.4-.67,1-7.76,1-7.76S111.42,411,115.17,410.61Z" transform="translate(-61.04 -45.01)"/><path class="cls-7" d="M141.39,407.29s-.47,3.25-.53,3.73-5.2-.28-5.2-.28l-.42-3.87S140.74,406.83,141.39,407.29Z" transform="translate(-61.04 -45.01)"/><path class="cls-8" d="M140.92,410.61a13.64,13.64,0,0,0,3.2,2.81c1.58.85,7.38,1.55,8.31,2.44.68.63,1.79,3.2-7.42,3-6.55-.17-9.7.39-10.41-.67s1-7.76,1-7.76S137.08,411,140.92,410.61Z" transform="translate(-61.04 -45.01)"/><path class="cls-8" d="M117.48,323.86s-4.83,7.68-4.47,14.63-.43,14.36-1.16,21.61c-.81,8.08-3,24.91-3.13,29.23s.15,20.61.15,20.61l8.39-.07s3-32.87,4.42-36.29,7.36-28.12,7.6-30.85S117.48,323.86,117.48,323.86Z" transform="translate(-61.04 -45.01)"/><path class="cls-8" d="M142.93,324.9s1.91,18.88,2.39,23.13.15,22.66.39,25.32-1.6,30.74-2.06,36.09l-9.21-.06s-.64-22.72-.64-33.76-2.83-23.89-6.08-31.18-10.68-7.46-12.67-21C115.05,323.47,140.23,320.62,142.93,324.9Z" transform="translate(-61.04 -45.01)"/><path class="cls-9" d="M122.59,259.1s5.76-3.85,9.8.28,6,13.81,3.13,15.74-7.83,2.44-10.17-.18-4.83-6.63-5.45-9.55S121.13,260.33,122.59,259.1Z" transform="translate(-61.04 -45.01)"/><path class="cls-9" d="M133.56,275.78s-.07,4,.38,4.91-8.41.88-8.41.88a58.71,58.71,0,0,0-2.08-8.66C122.08,269,133.56,275.78,133.56,275.78Z" transform="translate(-61.04 -45.01)"/><path class="cls-10" d="M123.67,272.85s.83.84,3.16-.11,4.54-4.89,5.47-5.48.8-1.19.8-1.19l.85.78,1.1-.19s-1.67-2.66-.46-4.18-3.74-9-10.89-4.44c0,0-5.59,3.06-4.57,6.41S121.93,271.47,123.67,272.85Z" transform="translate(-61.04 -45.01)"/><path class="cls-11" d="M134.46,280.58s0-1.65-.77-1.8-8.25-.88-9.17-.52v1.92S126.29,281.27,134.46,280.58Z" transform="translate(-61.04 -45.01)"/><path class="cls-9" d="M132.65,264.87c-.27-.54-2.11-1.83-2.25.05s1.8,3.9,2.53,3.51S133.33,266.24,132.65,264.87Z" transform="translate(-61.04 -45.01)"/><path class="cls-10" d="M120.92,260.09s-8.23,2.21,2.42,12.44Z" transform="translate(-61.04 -45.01)"/><path class="cls-9" d="M194.53,303.89l-8.4-.08c.73-.42,1.9-1.18,1.64-1.52-.37-.49-2.75.59-3.72.69a14.07,14.07,0,0,0-3.49.38l-2.65,1.13,2.43,2.25s4.39.63,5.67.72c2.09.15,8.49-2.34,8.59-2.72C194.79,304.06,194.53,303.89,194.53,303.89Z" transform="translate(-61.04 -45.01)"/><path class="cls-6" d="M145.42,282.87c-5.34-.94-11-2.29-11-2.29l-9.94-.4s-9.13,2-12.72,3.63c-.34.15-.34,8.14-1.28,10.23l3,6.29s1.72,12.45,2.08,18c.16,2.54-3.55,23.84-3.55,23.84a68.91,68.91,0,0,0,10.76,1.92c6.79.75,23.75-.27,23.85-1.07s-3.28-29.85-3.43-31.35c-.23-2.31.66-13,.66-13,1.28,1.72,8.68,8.16,12.29,10.21,2.56,1.46,8.86.57,10.71.38,4-.41,15.11-1.21,15.33-1.6s-.64-4.28-1.11-4.43-14.72-.85-18.31-.66c-1.46.08-6.21-5.23-6.21-5.23S148.37,284.19,145.42,282.87Z" transform="translate(-61.04 -45.01)"/><polygon class="cls-12" points="23.23 197.66 49.51 197.66 49.51 216.71 49.51 220.72 45.5 216.71 23.23 216.71 23.23 197.66"/><path class="cls-3" d="M507.5,182.05H482V156.52H507.5Zm-24.68-.85h23.83V157.37H482.82Z" transform="translate(-61.04 -45.01)"/><path class="cls-3" d="M571.06,165.88H512.61v-6.24h58.45Zm-57.6-.85h56.75v-4.54H513.46Z" transform="translate(-61.04 -45.01)"/><path class="cls-3" d="M571.06,194.91H482v-6.24h89.09Zm-88.24-.85h87.39v-4.54H482.82Z" transform="translate(-61.04 -45.01)"/><path class="cls-3" d="M538.71,206.89H482v-6.24h56.74ZM482.82,206h55V201.5h-55Z" transform="translate(-61.04 -45.01)"/><path class="cls-3" d="M552.19,177.79H512.61v-6.25h39.58Zm-38.73-.85h37.88V172.4H513.46Z" transform="translate(-61.04 -45.01)"/><path class="cls-3" d="M581.2,220.47H471.83V142.94H581.2Zm-108.52-.85H580.35V143.79H472.68Z" transform="translate(-61.04 -45.01)"/><polygon class="cls-3" points="372.22 63.21 364.04 63.21 364.04 62.25 371.27 62.25 371.27 55.03 372.22 55.03 372.22 63.21"/><polygon class="cls-3" points="317.19 63.21 309.01 63.21 309.01 55.03 309.96 55.03 309.96 62.25 317.19 62.25 317.19 63.21"/><polygon class="cls-3" points="309.96 8.18 309.01 8.18 309.01 0 317.19 0 317.19 0.95 309.96 0.95 309.96 8.18"/><polygon class="cls-3" points="372.22 8.18 371.27 8.18 371.27 0.96 364.04 0.96 364.04 0 372.22 0 372.22 8.18"/><rect class="cls-3" x="371.27" y="20.4" width="0.95" height="22.41"/><rect class="cls-3" x="309.01" y="20.4" width="0.96" height="22.41"/><path class="cls-5" d="M140.26,171.05a3.51,3.51,0,1,1,3.5-3.5A3.5,3.5,0,0,1,140.26,171.05Zm0-6.05a2.55,2.55,0,1,0,2.55,2.55A2.55,2.55,0,0,0,140.26,165Z" transform="translate(-61.04 -45.01)"/><path class="cls-5" d="M401.7,90.72a3.5,3.5,0,1,1,3.5-3.5A3.5,3.5,0,0,1,401.7,90.72Zm0-6a2.55,2.55,0,1,0,2.55,2.55A2.55,2.55,0,0,0,401.7,84.67Z" transform="translate(-61.04 -45.01)"/><path class="cls-5" d="M516.19,216.09a3.5,3.5,0,1,1,3.51-3.5A3.5,3.5,0,0,1,516.19,216.09Zm0-6.05a2.55,2.55,0,1,0,2.55,2.55A2.56,2.56,0,0,0,516.19,210Z" transform="translate(-61.04 -45.01)"/><path class="cls-13" d="M163.49,73.79h-24v-24h24Zm-23.09-1h22.14V50.7H140.4Z" transform="translate(-61.04 -45.01)"/><rect class="cls-13" x="89.95" y="11.29" width="0.95" height="11.21"/><rect class="cls-13" x="84.83" y="16.41" width="11.21" height="0.95"/><path class="cls-13" d="M529.88,102.79H495.51V78.26h34.37Zm-33.42-1h32.46V79.21H496.46Z" transform="translate(-61.04 -45.01)"/><polygon class="cls-13" points="451.65 48.1 434.64 34.09 435.25 33.35 451.65 46.87 468.06 33.35 468.66 34.09 451.65 48.1"/><rect class="cls-13" x="522.76" y="86.85" width="0.95" height="17.92" transform="translate(16.63 341.37) rotate(-43.49)"/><rect class="cls-13" x="493.19" y="95.34" width="17.92" height="0.95" transform="translate(26.24 349.5) rotate(-46.56)"/><path class="cls-13" d="M223.49,127.44l-.36-.94a4.93,4.93,0,0,1-.94-.21l-.73.68-2.12-1.51.41-.91a4.33,4.33,0,0,1-.51-.82l-1,0-.43-2.56.93-.36a4.42,4.42,0,0,1,.22-.94l-.69-.73,1.51-2.12.91.41a4.67,4.67,0,0,1,.82-.51l0-1,2.56-.43.36.93a4.94,4.94,0,0,1,.94.22l.73-.69,2.12,1.51-.41.91a4.67,4.67,0,0,1,.51.82l1,0,.44,2.57-.94.35a4.29,4.29,0,0,1-.22.94l.69.73-1.51,2.12-.91-.41a4.67,4.67,0,0,1-.82.51l0,1Zm-1.47-2,.21.08a4,4,0,0,0,1.19.27l.22,0,.31.8,1.4-.23,0-.86.21-.09a4.83,4.83,0,0,0,1-.65l.17-.14.78.35.83-1.16-.59-.63.08-.21a4,4,0,0,0,.27-1.18l0-.23.8-.3-.23-1.41-.86,0-.09-.2a4.38,4.38,0,0,0-.65-1l-.14-.17.35-.79-1.16-.83-.63.59-.21-.08a4.39,4.39,0,0,0-1.18-.27l-.23,0-.3-.8-1.41.24,0,.85-.2.1a4.28,4.28,0,0,0-1,.64l-.17.14-.78-.35-.83,1.17.59.62-.08.21a4,4,0,0,0-.27,1.19l0,.22-.8.31.24,1.4.85,0,.09.21a4.59,4.59,0,0,0,.65,1l.14.17-.35.78,1.17.83Zm1.77-1.19a2.83,2.83,0,1,1,1.64-5.13,2.82,2.82,0,0,1-1.17,5.09A2.42,2.42,0,0,1,223.79,124.27Zm0-4.93a2.12,2.12,0,0,0-2.09,2.46,2.15,2.15,0,0,0,.86,1.37h0a2.15,2.15,0,0,0,1.58.36,2.11,2.11,0,0,0,.87-3.8A2.06,2.06,0,0,0,223.8,119.34Z" transform="translate(-61.04 -45.01)"/><path class="cls-13" d="M203.63,130.43l-.8-2.09a11.92,11.92,0,0,1-2.5-.57l-1.63,1.52-4.42-3.14.91-2a11.38,11.38,0,0,1-1.36-2.18l-2.24-.07-.9-5.35,2.09-.8a11.33,11.33,0,0,1,.57-2.5l-1.52-1.63,3.14-4.42,2,.91a10.91,10.91,0,0,1,2.18-1.36l.07-2.24,5.35-.9.8,2.09a11.33,11.33,0,0,1,2.5.57l1.63-1.53,4.42,3.15-.91,2a11.43,11.43,0,0,1,1.37,2.18l2.23.07.9,5.35-2.09.8a11.33,11.33,0,0,1-.57,2.5l1.53,1.63-3.15,4.42-2-.91a11.38,11.38,0,0,1-2.18,1.36l-.07,2.24Zm-3.52-3.77.28.11a10.06,10.06,0,0,0,2.82.65l.3,0,.73,1.91,3.81-.65.07-2,.27-.12a10.6,10.6,0,0,0,2.46-1.54l.23-.19,1.87.83,2.24-3.15-1.4-1.49.1-.28a10.05,10.05,0,0,0,.65-2.83l0-.29,1.91-.73-.64-3.81-2.05-.07-.12-.27a10.6,10.6,0,0,0-1.54-2.46l-.19-.23.83-1.87-3.15-2.24-1.49,1.4-.27-.1a10.21,10.21,0,0,0-2.83-.65l-.3,0-.73-1.91-3.81.64-.07,2-.27.12a10.28,10.28,0,0,0-2.46,1.54l-.23.19-1.86-.83-2.24,3.15,1.4,1.49-.11.28a10.06,10.06,0,0,0-.65,2.82l0,.3-1.91.73.65,3.81,2,.07.12.27a10.6,10.6,0,0,0,1.54,2.46l.19.23-.83,1.86,3.15,2.24Zm4-3.49a6.17,6.17,0,1,1,5-2.59A6.15,6.15,0,0,1,204.11,123.17Zm0-11.39a5.21,5.21,0,0,0-5.15,6.09,5.22,5.22,0,0,0,10.29-1.74,5.23,5.23,0,0,0-5.14-4.35Z" transform="translate(-61.04 -45.01)"/><path class="cls-5" d="M78.84,135.44A17.82,17.82,0,0,1,61,117.65h1a16.84,16.84,0,1,0,16.84-16.84v-1a17.79,17.79,0,0,1,0,35.58Zm0-2.47a15.32,15.32,0,1,1,15.32-15.32h-1A14.37,14.37,0,1,0,78.84,132Z" transform="translate(-61.04 -45.01)"/><polygon class="cls-5" points="15.61 78.53 9.2 72.11 9.87 71.44 15.61 77.18 25.72 67.08 26.39 67.75 15.61 78.53"/><polygon class="cls-14" points="393.55 290.8 258.38 290.8 123.22 290.8 93.64 401.37 259.27 401.37 423.13 401.37 393.55 290.8"/><path class="cls-15" d="M194.49,355.21H211.1a1,1,0,0,1,1.09,1.12l-1.61,7.23a1.07,1.07,0,0,1-1.09.76H192.6a1,1,0,0,1-1.08-1.15l1.89-7.22A1.09,1.09,0,0,1,194.49,355.21Z" transform="translate(-61.04 -45.01)"/><polygon class="cls-15" points="157.68 310.2 170.23 310.2 168.56 319.31 155.77 319.31 157.68 310.2"/><polygon class="cls-15" points="176.51 310.2 189.06 310.2 187.75 319.31 174.96 319.32 176.51 310.2"/><polygon class="cls-15" points="195.34 310.2 207.9 310.2 206.94 319.31 194.15 319.31 195.34 310.2"/><polygon class="cls-15" points="214.18 310.2 226.73 310.2 226.13 319.31 213.34 319.31 214.18 310.2"/><polygon class="cls-15" points="233.01 310.2 245.57 310.2 245.33 319.31 232.53 319.32 233.01 310.2"/><polygon class="cls-15" points="383.72 310.2 364.89 310.2 366.92 319.31 386.11 319.31 383.72 310.2"/><polygon class="cls-15" points="358.61 310.2 346.06 310.2 347.73 319.31 360.52 319.31 358.61 310.2"/><polygon class="cls-15" points="339.78 310.2 327.22 310.2 328.53 319.31 341.33 319.32 339.78 310.2"/><polygon class="cls-15" points="320.94 310.2 308.39 310.2 309.34 319.31 322.14 319.31 320.94 310.2"/><polygon class="cls-15" points="302.11 310.2 289.55 310.2 290.15 319.31 302.94 319.31 302.11 310.2"/><polygon class="cls-15" points="283.27 310.2 270.72 310.2 270.96 319.31 283.75 319.32 283.27 310.2"/><polygon class="cls-15" points="251.84 310.2 264.4 310.2 264.61 319.31 251.84 319.31 251.84 310.2"/><polygon class="cls-15" points="127.93 326.1 154.16 326.1 152.67 335.5 125.94 335.5 127.93 326.1"/><polygon class="cls-15" points="387.82 326.1 355.39 326.1 357.23 335.5 390.28 335.5 387.82 326.1"/><polygon class="cls-15" points="348.9 326.1 335.93 326.1 337.41 335.5 350.63 335.5 348.9 326.1"/><polygon class="cls-15" points="329.44 326.1 316.47 326.1 317.58 335.5 330.8 335.5 329.44 326.1"/><polygon class="cls-15" points="309.98 326.1 297.01 326.1 297.75 335.5 310.97 335.5 309.98 326.1"/><polygon class="cls-15" points="290.52 326.1 277.55 326.1 277.92 335.5 291.14 335.5 290.52 326.1"/><polygon class="cls-15" points="124.01 342.86 150.83 342.86 148.87 352.2 121.56 352.2 124.01 342.86"/><polygon class="cls-15" points="157.54 342.86 170.95 342.86 169.36 352.2 155.7 352.2 157.54 342.86"/><polygon class="cls-15" points="177.65 342.86 191.06 342.86 278.23 342.86 278.61 352.2 176.19 352.2 177.65 342.86"/><polygon class="cls-15" points="284.94 342.86 298.36 342.86 299.09 352.2 285.43 352.2 284.94 342.86"/><polygon class="cls-15" points="305.06 342.86 318.47 342.86 319.57 352.2 305.92 352.2 305.06 342.86"/><polygon class="cls-15" points="325.18 342.86 338.59 342.86 340.06 352.2 326.4 352.2 325.18 342.86"/><polygon class="cls-15" points="345.3 342.86 358.71 342.86 360.54 352.2 346.89 352.2 345.3 342.86"/><polygon class="cls-15" points="365.41 342.86 392.24 342.86 394.68 352.2 367.37 352.2 365.41 342.86"/><polygon class="cls-15" points="271.09 326.1 258.23 326.1 258.23 335.5 271.34 335.5 271.09 326.1"/><polygon class="cls-15" points="251.64 326.1 238.66 326.1 238.29 335.5 251.51 335.5 251.64 326.1"/><polygon class="cls-15" points="232.18 326.1 219.21 326.1 218.47 335.5 231.69 335.5 232.18 326.1"/><polygon class="cls-15" points="212.72 326.1 199.75 326.1 198.64 335.5 211.86 335.5 212.72 326.1"/><polygon class="cls-15" points="193.26 326.1 180.29 326.1 178.81 335.5 192.03 335.5 193.26 326.1"/><polygon class="cls-15" points="173.8 326.1 160.83 326.1 158.98 335.5 172.2 335.5 173.8 326.1"/><polygon class="cls-15" points="134.06 304.47 136.19 296.33 142.29 296.33 140.3 304.47 134.06 304.47"/><polygon class="cls-15" points="148.39 296.33 160.58 296.33 158.88 304.47 146.47 304.47 148.39 296.33"/><polygon class="cls-15" points="166.68 296.33 178.87 296.33 177.48 304.47 165.08 304.47 166.68 296.33"/><polygon class="cls-15" points="184.97 296.33 197.16 296.33 196.09 304.47 183.69 304.47 184.97 296.33"/><polygon class="cls-15" points="203.25 296.33 215.45 296.33 214.7 304.47 202.3 304.47 203.25 296.33"/><polygon class="cls-15" points="221.54 296.33 233.74 296.33 233.31 304.47 220.9 304.47 221.54 296.33"/><polygon class="cls-15" points="239.83 296.33 252.03 296.33 251.92 304.47 239.51 304.47 239.83 296.33"/><polygon class="cls-15" points="258.12 296.33 270.31 296.33 270.53 304.47 258.12 304.47 258.12 296.33"/><polygon class="cls-15" points="276.41 296.33 288.6 296.33 289.14 304.47 276.73 304.47 276.41 296.33"/><polygon class="cls-15" points="294.7 296.33 306.89 296.33 307.75 304.47 295.34 304.47 294.7 296.33"/><polygon class="cls-15" points="312.99 296.33 325.18 296.33 326.35 304.47 313.95 304.47 312.99 296.33"/><polygon class="cls-15" points="331.28 296.33 343.47 296.33 344.96 304.47 332.56 304.47 331.28 296.33"/><polygon class="cls-15" points="349.57 296.33 361.76 296.33 363.57 304.47 351.17 304.47 349.57 296.33"/><polygon class="cls-15" points="367.86 296.33 380.05 296.33 382.18 304.47 369.77 304.47 367.86 296.33"/><path class="cls-16" d="M475.56,455H163.29a8.61,8.61,0,0,1-8.6-8.61H484.17A8.61,8.61,0,0,1,475.56,455Z" transform="translate(-61.04 -45.01)"/><path class="cls-17" d="M357.73,410.65a4,4,0,0,0-4-3.37H285.1a4,4,0,0,0-4,3.37l-4.29,26a4,4,0,0,0,4,4.69H358a4,4,0,0,0,4-4.69Z" transform="translate(-61.04 -45.01)"/><rect class="cls-18" x="149.62" y="142.3" width="27.94" height="2.86"/><rect class="cls-18" x="185.39" y="163.84" width="20.17" height="2.86"/><rect class="cls-4" x="208.71" y="163.84" width="13.39" height="2.86"/><rect class="cls-4" x="149.94" y="218.02" width="13.39" height="2.86"/><rect class="cls-18" x="224.74" y="163.84" width="32.32" height="2.86"/><rect class="cls-18" x="149.94" y="207.17" width="20.77" height="2.86"/><rect class="cls-18" x="178.9" y="228.79" width="12.68" height="2.86"/><rect class="cls-4" x="149.94" y="228.79" width="25.12" height="2.86"/><rect class="cls-18" x="149.94" y="239.56" width="13.86" height="2.86"/><rect class="cls-5" x="183" y="142.3" width="19.84" height="2.86"/><rect class="cls-4" x="183" y="174.61" width="19.84" height="2.86"/><rect class="cls-18" x="173.09" y="185.38" width="8.48" height="2.86"/><rect class="cls-5" x="164.61" y="196.31" width="19.04" height="2.86"/><rect class="cls-4" x="186.53" y="196.31" width="26.28" height="2.86"/><rect class="cls-4" x="149.94" y="185.46" width="19.84" height="2.86"/><rect class="cls-4" x="149.94" y="196.31" width="11.77" height="2.86"/><rect class="cls-19" x="185.56" y="185.46" width="11.1" height="2.86"/><rect class="cls-19" x="150.28" y="250.33" width="11.1" height="2.86"/><rect class="cls-5" x="149.86" y="163.84" width="19.84" height="2.86"/><rect class="cls-5" x="167.41" y="218.02" width="19.84" height="2.86"/><rect class="cls-5" x="167.65" y="239.56" width="19.84" height="2.86"/><rect class="cls-5" x="202.89" y="239.56" width="19.84" height="2.86"/><rect class="cls-5" x="149.86" y="174.61" width="28.28" height="2.86"/><rect class="cls-5" x="282.37" y="142.3" width="19.84" height="2.86"/><rect class="cls-5" x="211.71" y="250.33" width="19.84" height="2.86"/><rect class="cls-5" x="308.38" y="142.3" width="13.28" height="2.86"/><rect class="cls-5" x="353.3" y="153.07" width="13.28" height="2.86"/><rect class="cls-4" x="208.18" y="142.3" width="25.27" height="2.86"/><rect class="cls-4" x="306.65" y="153.07" width="25.27" height="2.86"/><rect class="cls-4" x="275.66" y="163.84" width="25.27" height="2.86"/><rect class="cls-4" x="242.75" y="174.61" width="25.27" height="2.86"/><rect class="cls-5" x="304.11" y="163.84" width="17.97" height="2.86"/><rect class="cls-19" x="252.15" y="142.3" width="25.27" height="2.86"/><rect class="cls-19" x="223.31" y="174.61" width="14.82" height="2.86"/><rect class="cls-19" x="211.71" y="218.18" width="14.82" height="2.86"/><rect class="cls-18" x="238.13" y="142.3" width="9.25" height="2.86"/><rect class="cls-18" x="208.18" y="174.61" width="9.25" height="2.86"/><rect class="cls-18" x="338.02" y="153.07" width="9.25" height="2.86"/><rect class="cls-4" x="149.62" y="153.07" width="14.47" height="2.86"/><rect class="cls-4" x="188.24" y="207.25" width="11.43" height="2.86"/><rect class="cls-4" x="167.65" y="153.07" width="4.67" height="2.86"/><rect class="cls-18" x="263.58" y="153.07" width="38.62" height="2.86"/><rect class="cls-18" x="226.52" y="239.56" width="38.63" height="2.86"/><rect class="cls-19" x="175.76" y="153.07" width="4.77" height="2.86"/><rect class="cls-4" x="247.38" y="153.07" width="12.64" height="2.86"/><rect class="cls-19" x="260.01" y="163.84" width="12.64" height="2.86"/><rect class="cls-19" x="195.04" y="250.33" width="12.64" height="2.86"/><rect class="cls-4" x="217.15" y="153.07" width="26.89" height="2.86"/><rect class="cls-4" x="192.12" y="218.18" width="15.71" height="2.86"/><rect class="cls-4" x="191.11" y="239.56" width="7.86" height="2.86"/><rect class="cls-5" x="204.08" y="153.07" width="9.25" height="2.86"/><rect class="cls-19" x="172.94" y="163.84" width="9.25" height="2.86"/><rect class="cls-19" x="174.79" y="207.25" width="9.25" height="2.86"/><rect class="cls-4" x="184.43" y="153.07" width="16.12" height="2.86"/><g class="cls-20"><rect class="cls-15" x="299.54" y="178.19" width="124.91" height="89.06" rx="4.01"/></g><rect class="cls-21" x="389.29" y="224.02" width="23.21" height="6.19" rx="1.54"/><rect class="cls-21" x="389.29" y="235.61" width="23.21" height="6.19" rx="1.54"/><rect class="cls-21" x="389.29" y="247.2" width="23.21" height="6.19" rx="1.54"/><path class="cls-21" d="M439.12,255.23a34.48,34.48,0,1,0-64.93,23.23c.26.73.54,1.44.85,2.14a34.48,34.48,0,0,0,64.08-25.37Zm-23.76,36A25.85,25.85,0,0,1,387,283.6a26.15,26.15,0,0,1-4-6.44c-.23-.53-.44-1.06-.64-1.61a25.85,25.85,0,1,1,33.05,15.63Z" transform="translate(-61.04 -45.01)"/><path class="cls-22" d="M382,259.14l-8.24-2.57a34.53,34.53,0,0,1,31.88-24.2l.26,8.63A25.86,25.86,0,0,0,382,259.14Z" transform="translate(-61.04 -45.01)"/><path class="cls-23" d="M383,277.16,375,280.6c-.31-.7-.59-1.41-.85-2.14a34.38,34.38,0,0,1-.45-21.89l8.24,2.57a25.8,25.8,0,0,0,.33,16.41C382.51,276.1,382.72,276.63,383,277.16Z" transform="translate(-61.04 -45.01)"/><path class="cls-24" d="M380.38,289.19A34.38,34.38,0,0,1,375,280.6l7.91-3.44a26.15,26.15,0,0,0,4,6.44Z" transform="translate(-61.04 -45.01)"/><path class="cls-9" d="M418.16,287.29s-1.67-2.92,1-10.75a7.9,7.9,0,0,1,14.25-2c2.82,4.86,1.87,7.87-2.28,13.35S419.89,289.8,418.16,287.29Z" transform="translate(-61.04 -45.01)"/><path class="cls-9" d="M438.76,422.06s.44,3.21.49,3.7,4.88-.29,4.88-.29l.4-3.83S439.36,421.6,438.76,422.06Z" transform="translate(-61.04 -45.01)"/><path class="cls-25" d="M439.2,425.35a13.21,13.21,0,0,1-3,2.78c-1.48.85-3.8,1.18-4.67,2.06-.64.63-2.3,3.35,3.84,3.29s9.1.38,9.76-.66-.95-7.69-.95-7.69A17.12,17.12,0,0,1,439.2,425.35Z" transform="translate(-61.04 -45.01)"/><path class="cls-9" d="M405.34,422.06s.44,3.21.5,3.7,4.88-.29,4.88-.29l.39-3.83S406,421.6,405.34,422.06Z" transform="translate(-61.04 -45.01)"/><path class="cls-25" d="M405.79,425.35a13.21,13.21,0,0,1-3,2.78c-1.48.85-6.93,1.54-7.8,2.41-.63.64-1.68,3.18,7,2.94,6.14-.17,9.11.38,9.76-.66s-.95-7.69-.95-7.69A25.49,25.49,0,0,1,405.79,425.35Z" transform="translate(-61.04 -45.01)"/><path class="cls-26" d="M437.13,342s2.48,7.69,2.15,14.32,1.28,13.87,1.94,20.8c.73,7.71,3.73,26,3.83,30.11s-.46,17.31-.46,17.31l-6,.15s-5-31.94-6.33-35.2-7.77-26.5-8-29.1S437.13,342,437.13,342Z" transform="translate(-61.04 -45.01)"/><path class="cls-26" d="M412.29,341.16s-3.64,20.33-4.08,24.39-.72,19.62-.94,22.16-1.45,33.17-2.61,36.94h6.69s6.86-22.27,6.86-32.81,4.54-22.91,7.47-29.86,9.65-7.12,11.45-20C437.13,342,414.73,337.07,412.29,341.16Z" transform="translate(-61.04 -45.01)"/><path class="cls-9" d="M420.59,289.36a5.84,5.84,0,0,1,0,3.76c-.76,1.57,9.63.63,9.63.63a11.16,11.16,0,0,1,.89-5.9C432.46,285.19,420.59,289.36,420.59,289.36Z" transform="translate(-61.04 -45.01)"/><path class="cls-27" d="M437.62,343.63s-3.74,3.84-25.67-.59l.34-1.88,24.93.94Z" transform="translate(-61.04 -45.01)"/><path class="cls-9" d="M419,293.63s-3.84.39-4.94.6-8.47-1.32-10-1.48-8-4.57-8.18-5.1-3.92-9.93-4.13-12-3.62-1-3.33.41c.55,2.63,1.25,9,1.63,10.84s1.53,6.51,2.16,7.06a45,45,0,0,0,12.13,6.86,48.53,48.53,0,0,1,10,4.64h28s10.91-15.58,11.14-17.93-7.61-18-9.18-19.92-3.83.64-3.83.64,4.69,13.77,5.32,15.72-5.46,10.56-7.13,10.59-6-.53-7.86-.6a13.32,13.32,0,0,1-3.92-.92Z" transform="translate(-61.04 -45.01)"/><path class="cls-28" d="M406.93,304a9,9,0,0,1,3.75,6.2,81.82,81.82,0,0,0,2.19,12.21c.63,2.11-.55,17.46-.7,18.55s21.69,3.7,25.05,1.1c0,0,.94-14.33,1.33-18.4s2.27-13.93,2.89-15.26,8.22-12,8.54-13.39c0,0-3.93-6.26-6.75-6.34,0,0-4.48,5.25-5.94,5.48s-10.4-1.4-10.4-1.42-1,1.33-6.17-.23c0,0-6.18.69-7.18.82-1.22.16-9.68-1.06-9.68-1.06s-3.4,5.73-2.81,8.63Z" transform="translate(-61.04 -45.01)"/><path class="cls-9" d="M392,276.91s-.76-3.63.16-4.67a27.42,27.42,0,0,0,1.9-2.4c.12-.23,1.47-1,1.47-1.38s-1.32-.84-2.48.23-1.87,1.3-2.33,1.18-1.13-3.95-1.18-4.9-.43-3.46-1-3.29-.57,1.27-.57,1.27-.69-1.9-1.15-1.53-.41,1.3-.41,1.3-.86-1.06-1.09-.29a2.69,2.69,0,0,0,0,1.47s-.9-.49-.95.73a18.44,18.44,0,0,0,.89,6c.63,1.27,3,4.59,3.29,5.89S392,276.91,392,276.91Z" transform="translate(-61.04 -45.01)"/><path class="cls-9" d="M441.27,270.54s-2.6-4.39-3.49-4.78a14.6,14.6,0,0,1-3.24-1.4c-1.09-.78-2.54-1.43-2.46-1.69s1.37-.16,2.75.44,2,.31,2.12,0a8.1,8.1,0,0,0-1.16-3.05c-.41-.52-3.39-3.51-2.89-3.95s2.43,1.2,2.74,1.53c0,0-1.54-3.23-.94-3.39s1.72,1,1.72,1-.13-2.76,2.85,1.73c0,0-.63-1.49.28-1s1.8,3.28,2.09,4.69,1.59,5.9,2.7,7S441.27,270.54,441.27,270.54Z" transform="translate(-61.04 -45.01)"/><path class="cls-29" d="M431.11,287.85a11.88,11.88,0,0,1-4.3-.89c-2.92-1-3.14-6.12-3.77-5.51a1.86,1.86,0,0,1-3-.35s1.43-1.88.77-2.78a6.93,6.93,0,0,0-1.74-1.57s2.06-9.91,11.41-5.39C441.44,276.65,431.11,287.85,431.11,287.85Z" transform="translate(-61.04 -45.01)"/><path class="cls-30" d="M420.59,293.12l.33-1.43a76.23,76.23,0,0,1,9.22.35l.35,1.71S426.32,295.64,420.59,293.12Z" transform="translate(-61.04 -45.01)"/><path class="cls-9" d="M422.06,280.2c.54-.91,2.55-1.51,2.78,1,.19,2-3.58,4.14-3.62,2.3A5.56,5.56,0,0,1,422.06,280.2Z" transform="translate(-61.04 -45.01)"/><path class="cls-31" d="M391.84,276.08a6,6,0,0,0-3.2,1,2.08,2.08,0,0,0,.18,1.07,13.11,13.11,0,0,1,3.3-1A2.13,2.13,0,0,0,391.84,276.08Z" transform="translate(-61.04 -45.01)"/><path class="cls-29" d="M389.3,276.62a.92.92,0,0,0,.49,1.21.93.93,0,1,0-.49-1.21Z" transform="translate(-61.04 -45.01)"/><path class="cls-32" d="M336.39,200.06s3.08,5.22,4.38,6.08c1.76,1.15.66,2.32-.18,2.32s-5.12.31-6.06-.76-1.41-4.28-2.29-5.12-1.78-4.17.43-5C334.62,196.88,336.39,200.06,336.39,200.06Z" transform="translate(-61.04 -45.01)"/><path class="cls-33" d="M335.06,197.77s3.52,6.11,4.13,7-1.15.91-2.23.48-3.82-4.82-4.21-5.62a2.91,2.91,0,0,1-.08-2Z" transform="translate(-61.04 -45.01)"/><polygon class="cls-32" points="270.44 156.04 271.25 162.31 271.69 162.33 271.55 157.82 270.44 156.04"/><path class="cls-32" d="M305.85,200.06s3.08,5.22,4.38,6.08c1.77,1.15.66,2.32-.18,2.32s-5.11.31-6.06-.76-1.41-4.28-2.28-5.12-1.82-4.26.42-5C304.1,197,305.85,200.06,305.85,200.06Z" transform="translate(-61.04 -45.01)"/><path class="cls-33" d="M304.71,197.78s3.34,6.1,4,7-1.15.91-2.24.48-3.81-4.82-4.2-5.62a2.94,2.94,0,0,1-.09-2Z" transform="translate(-61.04 -45.01)"/><polygon class="cls-32" points="239.9 156.04 240.72 162.31 241.15 162.33 241.02 157.82 239.9 156.04"/><path class="cls-33" d="M292.19,152.56l27.87,12.7a5.36,5.36,0,0,1,3.46,4.46c1.08,10.78,9.15,27.88,9.15,27.88,2.58,1.27,2.39.17,2.39.17-1.63-5.24-3.62-26.81-4.33-35.48-.15-1.83-.24-3.09-.26-3.49s-.31-.64-.83-1.05c-3.82-3.1-19.56-9.52-19.56-9.52C298.27,147.93,292.19,152.56,292.19,152.56Z" transform="translate(-61.04 -45.01)"/><path class="cls-33" d="M286.94,158c.86,7.53,11.61,6.67,11.61,6.67h13a81.47,81.47,0,0,0-4.74,14c-1.4,6.82-4.71,18.88-4.71,18.88s.22.41,2.58.18c0,0,10.22-20.39,14.14-25.51a34.49,34.49,0,0,0,3.67-10.66c.14-1.2.06-2.13-.39-2.51s-1.49-1.09-2.88-2c-4.08-2.58-11.17-6.54-15.12-7.43-5.29-1.19-13.65-3.41-13.65-3.41A14.39,14.39,0,0,0,286.94,158Z" transform="translate(-61.04 -45.01)"/><path class="cls-34" d="M295.81,100a12.15,12.15,0,0,1-1-7.65c.95-3.94,4.61-7.87,10-6.07s9.68,6,6.47,10.78,2.91,7,1.35,9.28-1,4.68-.31,5.21,2.79,2.43,2.56,4.68-10.4-6.55-10.4-6.55S298.92,98.56,295.81,100Z" transform="translate(-61.04 -45.01)"/><path class="cls-35" d="M312.14,147.32s-.81,3.92-21.62-1C290.52,146.29,297.5,144,312.14,147.32Z" transform="translate(-61.04 -45.01)"/><path class="cls-36" d="M290.28,147.39l-1,1.85,22.82.67c-1.21-4-.82-9.49-.6-13.63.25-5.06,3-8.58,2.75-13.69,1.5.24,1.76.29,3.27.52-2.3-6.57-3.09-9.83-10.25-12.35a13.3,13.3,0,0,0-6.39-.78c-8.29.68-10.8.78-14.87,8.29,6.38,1,5.33,3.31,7.26,9.65.95,3.1,1.93,6.55,1.42,9.81S290.28,144.46,290.28,147.39Z" transform="translate(-61.04 -45.01)"/><path class="cls-9" d="M303.52,112.35c-3.4-.64-2.67-2.53-2.67-2.53s.15-1.07.21-2.41q0-.52,0-1.08a13.14,13.14,0,0,0-.1-1.67c-.27-2.28,6.16-.92,6.16-.92s-.37,4.61.52,6S306.91,113,303.52,112.35Z" transform="translate(-61.04 -45.01)"/><path class="cls-9" d="M297,109.81s6.85,7.9,9.38,9.73c0,0,2.91-2.62,1.12-9.56C307.54,110,304.23,108.32,297,109.81Z" transform="translate(-61.04 -45.01)"/><path class="cls-9" d="M297.23,90.78s-3.56,6.85,0,13.34,10.45-2.83,10.9-3.92,2.83-7.27-1.9-9.15S298.24,88.92,297.23,90.78Z" transform="translate(-61.04 -45.01)"/><path class="cls-34" d="M298.41,93.21s-2.45,3.22-2.74,5.59a12.75,12.75,0,0,1,1.78-8.8c2.76-4.32,9.76-.21,10.7,1.52s3.69,3.24-.93,10.65C307.22,102.17,298.91,96.39,298.41,93.21Z" transform="translate(-61.04 -45.01)"/><path class="cls-37" d="M304.09,104.8a6.61,6.61,0,0,1-3,2.61q0-.52,0-1.08A5.76,5.76,0,0,0,304.09,104.8Z" transform="translate(-61.04 -45.01)"/><path class="cls-9" d="M268.16,141.23s-1.69.75-2.49.41a7.48,7.48,0,0,0-2.43-.41c-.53,0-2.16-.58-2.13.06s2.65,1.08,3.19,1.28-1.61,1.38-1.81,1.91,2.23,4,3.59,3,2.11-2.94,2.39-3.07a9.35,9.35,0,0,0,1-.67Z" transform="translate(-61.04 -45.01)"/><path class="cls-9" d="M262.75,144.17s-4,3.29-4,3.73.14.65.53.36l3.93-3.06s-4,4.69-4.11,5c-.08.2.3.63.53.49s4.44-4.55,4.44-4.55-3.7,4.38-3.72,4.71a.43.43,0,0,0,.73.29c.3-.3,4-4.17,4-4.17s-2.48,3.36-2.32,3.66.4.56,1-.33,2.29-2.83,2.29-2.83Z" transform="translate(-61.04 -45.01)"/><path class="cls-6" d="M310.22,164.68H298.55s-10.75.86-11.61-6.67a14.39,14.39,0,0,1,3.54-11.71s5.68,1.51,10.64,2.71a38.12,38.12,0,0,1,9-.78s21,6.94,20.39,10.6C330.47,158.83,321.68,154.13,310.22,164.68Z" transform="translate(-61.04 -45.01)"/><polygon class="cls-38" points="241.59 106.63 263.84 106.3 252.6 112 241.59 106.63"/><path class="cls-36" d="M309.54,148.8a19.08,19.08,0,0,1-11.14.18l-.29-2.29,12.64.7Z" transform="translate(-61.04 -45.01)"/><polygon class="cls-39" points="252.6 112 241.59 107.73 241.59 106.63 253.47 110.91 252.6 112"/><path class="cls-40" d="M309.46,149.86A1.1,1.1,0,0,0,311,151l1.3-.55a.93.93,0,0,0,.54-1c-.54-3.36-1.69-16.46,0-18.71a8.21,8.21,0,0,0,1.23-2.2c1.11,2.87,2.5,6.57,3.05,8.56l10.51,14,3.53.89a118.3,118.3,0,0,0-7.94-16.21c-.68-1.85-2.66-7.44-4.4-12.42-1.11-3.15-2.12-6-2.66-7.61a3.57,3.57,0,0,0-1.54-1.88c-1.63-1-4.34-2.51-6.8-3.7l0,0-.24-.11h0c4.67,7.08,2.85,27.07,1.93,39.85Z" transform="translate(-61.04 -45.01)"/><path class="cls-40" d="M292.1,110.58c-1.5.23-5.22,3.84-7.19,7.48-2.25,4.16-4.54,8.89-6.26,10.44-3.16,2.87-12,13-12.43,12.74a27.6,27.6,0,0,0,2.76,3.17c.16.07,14.53-12.38,15.91-14.28s4.81-9.35,5.86-9.18h0a54.52,54.52,0,0,1,2.56,7l.06.2a22.41,22.41,0,0,1,.31,9.3c-.34,2.6-2.28,6.83-3.44,8.89a1.41,1.41,0,0,0,0,1.08h0a.77.77,0,0,0,.39.45l4.21,1.56,1,.37a2.16,2.16,0,0,0,2.89-1.75c.94-7.21,2.12-14.58,3.07-17.36a26.33,26.33,0,0,0-1.62-21.35A78.74,78.74,0,0,0,292.1,110.58Z" transform="translate(-61.04 -45.01)"/><polygon class="cls-41" points="252.6 112 259.22 93.93 280.56 94.28 274.25 110.93 252.6 112"/><path class="cls-42" d="M327.09,146.94c-.65,1.3-.45,2.72.44,3.17s2.15-.25,2.8-1.55.45-2.72-.44-3.17S327.74,145.64,327.09,146.94Z" transform="translate(-61.04 -45.01)"/><path class="cls-34" d="M304.6,97.6s1.36,2.13.1,4,.32,3.64.59,5.58-5.27,7.11.9,9.7,8.13-1.69,6.56-4.06-2.69-4.28-2.83-7.64S308.68,96.52,304.6,97.6Z" transform="translate(-61.04 -45.01)"/><polygon class="cls-5" points="198.89 27.07 225.17 27.07 225.17 46.12 225.17 50.13 221.16 46.12 198.89 46.12 198.89 27.07"/></svg>