<svg id="Clean" xmlns="http://www.w3.org/2000/svg" xmlns:xlink="http://www.w3.org/1999/xlink" viewBox="0 0 520.2 409.99"><defs><linearGradient id="Degradado_sin_nombre" x1="176.02" y1="147.42" x2="476.44" y2="147.42" gradientTransform="matrix(1, 0, 0, -1, -61.04, 366.98)" gradientUnits="userSpaceOnUse"><stop offset="0" stop-color="#40d5e6"/><stop offset="1" stop-color="#57f"/></linearGradient><linearGradient id="Degradado_sin_nombre_2" x1="193.74" y1="160.72" x2="444.57" y2="160.72" gradientTransform="matrix(1, 0, 0, -1, -61.01, 366.99)" gradientUnits="userSpaceOnUse"><stop offset="0" stop-color="#404b61"/><stop offset="0.49" stop-color="#3c4860"/><stop offset="1" stop-color="#2f3e5c"/></linearGradient><linearGradient id="Degradado_sin_nombre_3" x1="258.39" y1="131.89" x2="258.39" y2="-34.69" gradientTransform="matrix(1, 0, 0, -1, 0.04, 412)" xlink:href="#Degradado_sin_nombre"/><linearGradient id="Degradado_sin_nombre_4" x1="1.97" y1="-38.7" x2="331.45" y2="-38.7" gradientTransform="matrix(1, 0, 0, -1, -61.04, 366.99)" xlink:href="#Degradado_sin_nombre"/></defs><title>clean</title><path d="M393.56,319.72H123.13V128.88a9.47,9.47,0,0,1,9.47-9.47H384.08a9.47,9.47,0,0,1,9.47,9.47h0V319.72Z" transform="translate(0.04)" fill="url(#Degradado_sin_nombre)"/><rect x="132.73" y="129.23" width="250.83" height="154.09" fill="url(#Degradado_sin_nombre_2)"/><path d="M106.34,130H42.54l.11-.57A11.2,11.2,0,0,1,56,120.59a19.14,19.14,0,0,1,32.4-2.37,14,14,0,0,1,17.48,9.3,14.9,14.9,0,0,1,.43,1.87Zm-62.62-1h61.5a13,13,0,0,0-16.87-9.8l-.34.11-.2-.29a18.19,18.19,0,0,0-31.15,2.3l-.17.34-.37-.09a10.06,10.06,0,0,0-2.44-.3A10.31,10.31,0,0,0,43.72,129Z" transform="translate(0.04)" fill="#6aafe8"/><path d="M340.66,51.4l-.21-.11c-22.65-11.56-19.61-33.95-19.57-34.17l.06-.41h.41c14.39,0,18.92-4.64,19-4.68l.35-.38.35.38c.05,0,4.57,4.68,19,4.68h.42l.06.41c0,.22,3.07,22.61-19.57,34.17ZM321.78,17.66c-.29,3-1.24,22.25,18.88,32.67,20.13-10.42,19.17-29.63,18.89-32.67C347.05,17.59,342,14.1,340.66,13,339.36,14.1,334.27,17.59,321.78,17.66Z" transform="translate(0.04)" fill="#6aafe8"/><rect x="124.39" y="256.09" width="25.27" height="2.86" fill="#1487e3"/><polygon points="119.12 177.14 78.78 177.14 78.78 125.56 79.73 125.56 79.73 176.19 119.12 176.19 119.12 177.14" fill="#78c2ff"/><polygon points="289.85 143.16 288.89 143.16 288.89 89.97 340.22 89.97 340.22 45.23 341.18 45.23 341.18 90.92 289.85 90.92 289.85 143.16" fill="#78c2ff"/><polygon points="455.67 202.4 402.26 202.4 402.26 201.45 454.71 201.45 454.71 170.44 455.67 170.44 455.67 202.4" fill="#78c2ff"/><path d="M56.35,245.5s-1.15,16.05,2,18c2,1.2,9.79,5.26,9.56,6s-4.42,6.77-4.42,6.77-15-9.9-15.53-13,.74-23.5,2.81-24.44c1.55-.71,2.36-.12,4.32,1.33C57.82,242.16,56.35,245.5,56.35,245.5Z" transform="translate(0.04)" fill="#ff7e55"/><path d="M54.6,362.28s-.47,3.25-.53,3.73-5.2-.28-5.2-.28l-.42-3.87S54,361.82,54.6,362.28Z" transform="translate(0.04)" fill="#424773"/><path d="M54.13,365.6a13.42,13.42,0,0,0,3.2,2.81c1.58.85,4.06,1.19,5,2.07.67.64,2.45,3.38-4.1,3.33s-9.7.39-10.4-.67,1-7.76,1-7.76S50.38,366,54.13,365.6Z" transform="translate(0.04)" fill="#292c47"/><path d="M80.35,362.28s-.47,3.25-.53,3.73-5.2-.28-5.2-.28l-.42-3.87S79.7,361.82,80.35,362.28Z" transform="translate(0.04)" fill="#424773"/><path d="M79.88,365.6a13.42,13.42,0,0,0,3.2,2.81c1.58.85,7.38,1.55,8.31,2.44.68.63,1.79,3.2-7.42,3-6.55-.17-9.7.39-10.41-.67s1-7.76,1-7.76S76,366,79.88,365.6Z" transform="translate(0.04)" fill="#292c47"/><path d="M56.44,278.85s-4.83,7.68-4.47,14.63-.43,14.36-1.16,21.61c-.81,8.08-3,24.91-3.13,29.23s.15,20.61.15,20.61l8.39-.07s3-32.87,4.42-36.29,7.36-28.12,7.6-30.85S56.44,278.85,56.44,278.85Z" transform="translate(0.04)" fill="#292c47"/><path d="M81.89,279.89S83.8,298.77,84.28,303s.15,22.66.39,25.32-1.6,30.74-2.06,36.09l-9.21-.06s-.64-22.72-.64-33.76-2.83-23.89-6.08-31.18S56,292,54,278.43C54,278.46,79.19,275.61,81.89,279.89Z" transform="translate(0.04)" fill="#292c47"/><path d="M61.55,214.09s5.76-3.85,9.8.28,6,13.81,3.13,15.74-7.83,2.44-10.17-.18-4.83-6.63-5.45-9.55S60.09,215.32,61.55,214.09Z" transform="translate(0.04)" fill="#eea886"/><path d="M72.52,230.77s-.07,4,.38,4.91-8.41.88-8.41.88a58.39,58.39,0,0,0-2.08-8.66C61,224,72.52,230.77,72.52,230.77Z" transform="translate(0.04)" fill="#eea886"/><path d="M62.63,227.84s.83.84,3.16-.11,4.54-4.89,5.47-5.48.8-1.19.8-1.19l.85.78,1.1-.19s-1.67-2.66-.46-4.18-3.74-9-10.89-4.44c0,0-5.59,3.06-4.57,6.41S60.89,226.46,62.63,227.84Z" transform="translate(0.04)" fill="#754836"/><path d="M73.42,235.57s0-1.65-.77-1.8-8.25-.88-9.17-.52v1.92S65.25,236.26,73.42,235.57Z" transform="translate(0.04)" fill="#e2d2ca"/><path d="M71.61,219.86c-.27-.54-2.11-1.83-2.25,0s1.8,3.9,2.53,3.51S72.29,221.23,71.61,219.86Z" transform="translate(0.04)" fill="#eea886"/><path d="M59.88,215.08s-8.23,2.21,2.42,12.44Z" transform="translate(0.04)" fill="#754836"/><path d="M133.49,258.88l-8.4-.08c.73-.42,1.9-1.18,1.64-1.52s-2.75.59-3.72.69a14.15,14.15,0,0,0-3.49.38l-2.65,1.13,2.43,2.25s4.39.63,5.67.72c2.09.15,8.49-2.34,8.59-2.72C133.75,259.05,133.49,258.88,133.49,258.88Z" transform="translate(0.04)" fill="#eea886"/><path d="M84.38,237.86c-5.34-.94-11-2.29-11-2.29l-9.94-.4s-9.13,2-12.72,3.63c-.34.15-.34,8.14-1.28,10.23l3,6.29s1.72,12.45,2.08,18c.16,2.54-3.55,23.84-3.55,23.84a68.92,68.92,0,0,0,10.76,1.92c6.79.75,23.75-.27,23.85-1.07s-3.28-29.85-3.43-31.35c-.23-2.31.66-13,.66-13,1.28,1.72,8.68,8.16,12.29,10.21,2.56,1.46,8.86.57,10.71.38,4-.41,15.11-1.21,15.33-1.6s-.64-4.28-1.11-4.43-14.72-.85-18.31-.66c-1.46.08-6.21-5.23-6.21-5.23S87.33,239.18,84.38,237.86Z" transform="translate(0.04)" fill="#ff7e55"/><polygon points="23.27 197.66 49.55 197.66 49.55 216.71 49.55 220.72 45.54 216.71 23.27 216.71 23.27 197.66" fill="#ffcb55"/><path d="M446.46,137H421V111.51h25.5Zm-24.68-.85h23.83V112.36H421.78Z" transform="translate(0.04)" fill="#6aafe8"/><path d="M510,120.87H451.57v-6.24H510Zm-57.6-.85h56.75v-4.54H452.42Z" transform="translate(0.04)" fill="#6aafe8"/><path d="M510,149.9H421v-6.24h89.09Zm-88.24-.85h87.39v-4.54H421.78Z" transform="translate(0.04)" fill="#6aafe8"/><path d="M477.67,161.88H421v-6.24H477.7ZM421.78,161h55v-4.5h-55Z" transform="translate(0.04)" fill="#6aafe8"/><path d="M491.15,132.78H451.57v-6.25h39.58Zm-38.73-.85H490.3v-4.54H452.42Z" transform="translate(0.04)" fill="#6aafe8"/><path d="M520.16,175.46H410.79V97.93H520.16Zm-108.52-.85H519.31V98.78H411.64Z" transform="translate(0.04)" fill="#6aafe8"/><polygon points="372.26 63.21 364.08 63.21 364.08 62.25 371.31 62.25 371.31 55.03 372.26 55.03 372.26 63.21" fill="#6aafe8"/><polygon points="317.23 63.21 309.05 63.21 309.05 55.03 310 55.03 310 62.25 317.23 62.25 317.23 63.21" fill="#6aafe8"/><polygon points="310 8.18 309.05 8.18 309.05 0 317.23 0 317.23 0.95 310 0.95 310 8.18" fill="#6aafe8"/><polygon points="372.26 8.18 371.31 8.18 371.31 0.96 364.08 0.96 364.08 0 372.26 0 372.26 8.18" fill="#6aafe8"/><rect x="371.31" y="20.4" width="0.95" height="22.41" fill="#6aafe8"/><rect x="309.05" y="20.4" width="0.96" height="22.41" fill="#6aafe8"/><path d="M79.22,126a3.51,3.51,0,1,1,3.5-3.52v0A3.5,3.5,0,0,1,79.22,126Zm0-6.05a2.55,2.55,0,1,0,2.55,2.55A2.55,2.55,0,0,0,79.22,120Z" transform="translate(0.04)" fill="#78c2ff"/><path d="M340.66,45.71a3.5,3.5,0,1,1,3.5-3.5A3.5,3.5,0,0,1,340.66,45.71Zm0-6a2.55,2.55,0,1,0,2.55,2.55h0a2.55,2.55,0,0,0-2.5-2.6h0Z" transform="translate(0.04)" fill="#78c2ff"/><path d="M455.15,171.08a3.5,3.5,0,1,1,3.51-3.5,3.5,3.5,0,0,1-3.51,3.5Zm0-6.05a2.55,2.55,0,1,0,2.55,2.55h0a2.57,2.57,0,0,0-2.53-2.59h0Z" transform="translate(0.04)" fill="#78c2ff"/><path d="M102.45,28.78h-24v-24h24Zm-23.09-1H101.5V5.69H79.36Z" transform="translate(0.04)" fill="#a1d4ff"/><rect x="89.99" y="11.29" width="0.95" height="11.21" fill="#a1d4ff"/><rect x="84.87" y="16.41" width="11.21" height="0.95" fill="#a1d4ff"/><path d="M468.84,57.78H434.47V33.25h34.37Zm-33.42-1h32.46V34.2H435.42Z" transform="translate(0.04)" fill="#a1d4ff"/><polygon points="451.69 48.1 434.68 34.09 435.29 33.35 451.69 46.87 468.1 33.35 468.7 34.09 451.69 48.1" fill="#a1d4ff"/><rect x="461.7" y="41.81" width="0.95" height="17.92" transform="translate(91.96 332.02) rotate(-43.49)" fill="#a1d4ff"/><rect x="432.13" y="50.3" width="17.92" height="0.95" transform="translate(100.97 336.13) rotate(-46.56)" fill="#a1d4ff"/><path d="M162.45,82.43l-.36-.94a5.1,5.1,0,0,1-.94-.21l-.73.68-2.12-1.51.41-.91a4.33,4.33,0,0,1-.51-.82h-1l-.43-2.56.93-.36a4.29,4.29,0,0,1,.22-.94l-.69-.73L158.74,72l.91.41a4.33,4.33,0,0,1,.82-.51v-1l2.56-.43.36.93a5.13,5.13,0,0,1,.94.22l.73-.69,2.12,1.51-.41.91a4.33,4.33,0,0,1,.51.82h1l.44,2.57-.94.35a4.29,4.29,0,0,1-.22.94l.69.73-1.51,2.12-.91-.41A4.33,4.33,0,0,1,165,81v1Zm-1.47-2,.21.08a4,4,0,0,0,1.19.27h.22l.31.8,1.4-.23v-.86l.21-.09a4.64,4.64,0,0,0,1-.65l.17-.14.78.35.83-1.16-.59-.63.08-.21a4,4,0,0,0,.27-1.18v-.23l.8-.3-.23-1.41h-.86l-.09-.2a4.4,4.4,0,0,0-.65-1l-.14-.17.35-.79-1.16-.83-.63.59-.21-.08a4.81,4.81,0,0,0-1.18-.27h-.23l-.3-.8-1.41.24v.85l-.2.1a4.36,4.36,0,0,0-1,.64l-.17.14-.78-.35-.83,1.17.59.62-.08.21a4,4,0,0,0-.27,1.19v.22l-.8.31.24,1.4h.85l.09.21a4.4,4.4,0,0,0,.65,1l.14.17-.35.78,1.17.83Zm1.77-1.19a2.83,2.83,0,1,1,0-5.66,2.83,2.83,0,0,1,.49,5.62,1.84,1.84,0,0,1-.47.06Zm0-4.93a2.12,2.12,0,0,0-2.12,2.12,1.87,1.87,0,0,0,0,.34,2.19,2.19,0,0,0,.86,1.37h0a2.16,2.16,0,0,0,1.58.36,2.11,2.11,0,0,0,.87-3.8,2,2,0,0,0-1.21-.37Z" transform="translate(0.04)" fill="#a1d4ff"/><path d="M142.59,85.42l-.8-2.09a11.92,11.92,0,0,1-2.5-.57l-1.63,1.52-4.42-3.14.91-2A11.38,11.38,0,0,1,132.79,77l-2.24-.07-.9-5.35,2.09-.8a11.33,11.33,0,0,1,.57-2.5l-1.52-1.63,3.14-4.42,2,.91a10.91,10.91,0,0,1,2.18-1.36l.07-2.24,5.35-.9.8,2.09a11.33,11.33,0,0,1,2.5.57l1.63-1.53,4.42,3.15-.91,2a11,11,0,0,1,1.37,2.18l2.23.07.9,5.35-2.09.8a11.33,11.33,0,0,1-.57,2.5l1.53,1.63-3.15,4.42-2-.91A11.38,11.38,0,0,1,148,82.28l-.07,2.24Zm-3.52-3.77.28.11a10.06,10.06,0,0,0,2.82.65h.3l.73,1.91,3.81-.65.07-2,.27-.12A10.82,10.82,0,0,0,149.81,80l.23-.19,1.87.83,2.24-3.15L152.75,76l.1-.28a10.21,10.21,0,0,0,.65-2.83v-.29l1.91-.73-.64-3.81L152.72,68l-.12-.27a10.82,10.82,0,0,0-1.54-2.46l-.19-.23.83-1.87-3.15-2.24-1.49,1.4-.27-.1a10.21,10.21,0,0,0-2.83-.65h-.3l-.73-1.91-3.81.64-.07,2-.27.12A10,10,0,0,0,136.32,64l-.23.19-1.86-.83L132,66.48l1.4,1.49-.11.28a10.06,10.06,0,0,0-.65,2.82v.3l-1.91.73.65,3.81,2,.07.12.27A10.82,10.82,0,0,0,135,78.71l.19.23-.83,1.86L137.54,83Zm4-3.49a6.16,6.16,0,1,1,5-2.59A6.18,6.18,0,0,1,143.07,78.16Zm0-11.39a5.2,5.2,0,0,0-5.22,5.2,4.45,4.45,0,0,0,.07.89,5.22,5.22,0,1,0,5.15-6.09Z" transform="translate(0.04)" fill="#a1d4ff"/><path d="M17.8,90.43A17.82,17.82,0,0,1,0,72.64H1A16.84,16.84,0,1,0,17.8,55.8v-1a17.79,17.79,0,0,1,0,35.58Zm0-2.47A15.32,15.32,0,1,1,33.12,72.64h-1A14.37,14.37,0,1,0,17.73,87h.07Z" transform="translate(0.04)" fill="#78c2ff"/><polygon points="15.65 78.53 9.24 72.11 9.91 71.44 15.65 77.18 25.76 67.08 26.43 67.75 15.65 78.53" fill="#78c2ff"/><polygon points="393.59 290.8 258.42 290.8 123.26 290.8 93.68 401.37 259.31 401.37 423.17 401.37 393.59 290.8" fill="url(#Degradado_sin_nombre_3)"/><path d="M133.45,310.2h16.61a1,1,0,0,1,1.09.9.81.81,0,0,1,0,.22l-1.61,7.23a1.06,1.06,0,0,1-1.09.76H131.56a1,1,0,0,1-1.09-.9,1,1,0,0,1,0-.25l1.89-7.22A1.1,1.1,0,0,1,133.45,310.2Z" transform="translate(0.04)" fill="#fff"/><polygon points="157.72 310.2 170.27 310.2 168.6 319.31 155.81 319.31 157.72 310.2" fill="#fff"/><polygon points="176.55 310.2 189.1 310.2 187.79 319.31 175 319.32 176.55 310.2" fill="#fff"/><polygon points="195.38 310.2 207.94 310.2 206.98 319.31 194.19 319.31 195.38 310.2" fill="#fff"/><polygon points="214.22 310.2 226.77 310.2 226.17 319.31 213.38 319.31 214.22 310.2" fill="#fff"/><polygon points="233.05 310.2 245.61 310.2 245.37 319.31 232.57 319.32 233.05 310.2" fill="#fff"/><polygon points="383.76 310.2 364.93 310.2 366.96 319.31 386.15 319.31 383.76 310.2" fill="#fff"/><polygon points="358.65 310.2 346.1 310.2 347.77 319.31 360.56 319.31 358.65 310.2" fill="#fff"/><polygon points="339.82 310.2 327.26 310.2 328.57 319.31 341.37 319.32 339.82 310.2" fill="#fff"/><polygon points="320.98 310.2 308.43 310.2 309.38 319.31 322.18 319.31 320.98 310.2" fill="#fff"/><polygon points="302.15 310.2 289.59 310.2 290.19 319.31 302.98 319.31 302.15 310.2" fill="#fff"/><polygon points="283.31 310.2 270.76 310.2 271 319.31 283.79 319.32 283.31 310.2" fill="#fff"/><polygon points="251.88 310.2 264.44 310.2 264.65 319.31 251.88 319.31 251.88 310.2" fill="#fff"/><polygon points="127.97 326.1 154.2 326.1 152.71 335.5 125.98 335.5 127.97 326.1" fill="#fff"/><polygon points="387.86 326.1 355.43 326.1 357.27 335.5 390.32 335.5 387.86 326.1" fill="#fff"/><polygon points="348.94 326.1 335.97 326.1 337.45 335.5 350.67 335.5 348.94 326.1" fill="#fff"/><polygon points="329.48 326.1 316.51 326.1 317.62 335.5 330.84 335.5 329.48 326.1" fill="#fff"/><polygon points="310.02 326.1 297.05 326.1 297.79 335.5 311.01 335.5 310.02 326.1" fill="#fff"/><polygon points="290.56 326.1 277.59 326.1 277.96 335.5 291.18 335.5 290.56 326.1" fill="#fff"/><polygon points="124.05 342.86 150.87 342.86 148.91 352.2 121.6 352.2 124.05 342.86" fill="#fff"/><polygon points="157.58 342.86 170.99 342.86 169.4 352.2 155.74 352.2 157.58 342.86" fill="#fff"/><polygon points="177.69 342.86 191.1 342.86 278.27 342.86 278.65 352.2 176.23 352.2 177.69 342.86" fill="#fff"/><polygon points="284.98 342.86 298.4 342.86 299.13 352.2 285.47 352.2 284.98 342.86" fill="#fff"/><polygon points="305.1 342.86 318.51 342.86 319.61 352.2 305.96 352.2 305.1 342.86" fill="#fff"/><polygon points="325.22 342.86 338.63 342.86 340.1 352.2 326.44 352.2 325.22 342.86" fill="#fff"/><polygon points="345.34 342.86 358.75 342.86 360.58 352.2 346.93 352.2 345.34 342.86" fill="#fff"/><polygon points="365.45 342.86 392.28 342.86 394.72 352.2 367.41 352.2 365.45 342.86" fill="#fff"/><polygon points="271.13 326.1 258.27 326.1 258.27 335.5 271.38 335.5 271.13 326.1" fill="#fff"/><polygon points="251.68 326.1 238.7 326.1 238.33 335.5 251.55 335.5 251.68 326.1" fill="#fff"/><polygon points="232.22 326.1 219.25 326.1 218.51 335.5 231.73 335.5 232.22 326.1" fill="#fff"/><polygon points="212.76 326.1 199.79 326.1 198.68 335.5 211.9 335.5 212.76 326.1" fill="#fff"/><polygon points="193.3 326.1 180.33 326.1 178.85 335.5 192.07 335.5 193.3 326.1" fill="#fff"/><polygon points="173.84 326.1 160.87 326.1 159.02 335.5 172.24 335.5 173.84 326.1" fill="#fff"/><polygon points="134.1 304.47 136.23 296.33 142.33 296.33 140.34 304.47 134.1 304.47" fill="#fff"/><polygon points="148.43 296.33 160.62 296.33 158.92 304.47 146.51 304.47 148.43 296.33" fill="#fff"/><polygon points="166.72 296.33 178.91 296.33 177.52 304.47 165.12 304.47 166.72 296.33" fill="#fff"/><polygon points="185.01 296.33 197.2 296.33 196.13 304.47 183.73 304.47 185.01 296.33" fill="#fff"/><polygon points="203.29 296.33 215.49 296.33 214.74 304.47 202.34 304.47 203.29 296.33" fill="#fff"/><polygon points="221.58 296.33 233.78 296.33 233.35 304.47 220.94 304.47 221.58 296.33" fill="#fff"/><polygon points="239.87 296.33 252.07 296.33 251.96 304.47 239.55 304.47 239.87 296.33" fill="#fff"/><polygon points="258.16 296.33 270.35 296.33 270.57 304.47 258.16 304.47 258.16 296.33" fill="#fff"/><polygon points="276.45 296.33 288.64 296.33 289.18 304.47 276.77 304.47 276.45 296.33" fill="#fff"/><polygon points="294.74 296.33 306.93 296.33 307.79 304.47 295.38 304.47 294.74 296.33" fill="#fff"/><polygon points="313.03 296.33 325.22 296.33 326.39 304.47 313.99 304.47 313.03 296.33" fill="#fff"/><polygon points="331.32 296.33 343.51 296.33 345 304.47 332.6 304.47 331.32 296.33" fill="#fff"/><polygon points="349.61 296.33 361.8 296.33 363.61 304.47 351.21 304.47 349.61 296.33" fill="#fff"/><polygon points="367.9 296.33 380.09 296.33 382.22 304.47 369.81 304.47 367.9 296.33" fill="#fff"/><path d="M414.52,410H102.25a8.61,8.61,0,0,1-8.6-8.61H423.13a8.6,8.6,0,0,1-8.61,8.61Z" transform="translate(0.04)" fill="url(#Degradado_sin_nombre_4)"/><path d="M296.69,365.64a4,4,0,0,0-4-3.37H224.06a4,4,0,0,0-4,3.37l-4.29,26a4,4,0,0,0,3.25,4.63,4.74,4.74,0,0,0,.75.06H297a4,4,0,0,0,4.06-3.94,4.74,4.74,0,0,0-.06-.75Z" transform="translate(0.04)" fill="#4d78eb"/><rect x="149.66" y="142.3" width="27.94" height="2.86" fill="#e0e0e0"/><rect x="185.43" y="163.84" width="20.17" height="2.86" fill="#e0e0e0"/><rect x="208.75" y="163.84" width="13.39" height="2.86" fill="#1487e3"/><rect x="149.98" y="218.02" width="13.39" height="2.86" fill="#1487e3"/><rect x="224.78" y="163.84" width="32.32" height="2.86" fill="#e0e0e0"/><rect x="149.98" y="207.17" width="20.77" height="2.86" fill="#e0e0e0"/><rect x="178.94" y="228.79" width="12.68" height="2.86" fill="#e0e0e0"/><rect x="149.98" y="228.79" width="25.12" height="2.86" fill="#1487e3"/><rect x="149.98" y="239.56" width="13.86" height="2.86" fill="#e0e0e0"/><rect x="183.04" y="142.3" width="19.84" height="2.86" fill="#78c2ff"/><rect x="183.04" y="174.61" width="19.84" height="2.86" fill="#1487e3"/><rect x="173.13" y="185.38" width="8.48" height="2.86" fill="#e0e0e0"/><rect x="164.65" y="196.31" width="19.04" height="2.86" fill="#78c2ff"/><rect x="186.57" y="196.31" width="26.28" height="2.86" fill="#1487e3"/><rect x="149.98" y="185.46" width="19.84" height="2.86" fill="#1487e3"/><rect x="149.98" y="196.31" width="11.77" height="2.86" fill="#1487e3"/><rect x="185.6" y="185.46" width="11.1" height="2.86" fill="#ff8761"/><rect x="150.32" y="250.33" width="11.1" height="2.86" fill="#ff8761"/><rect x="149.9" y="163.84" width="19.84" height="2.86" fill="#78c2ff"/><rect x="167.45" y="218.02" width="19.84" height="2.86" fill="#78c2ff"/><rect x="167.69" y="239.56" width="19.84" height="2.86" fill="#78c2ff"/><rect x="202.93" y="239.56" width="19.84" height="2.86" fill="#78c2ff"/><rect x="149.9" y="174.61" width="28.28" height="2.86" fill="#78c2ff"/><rect x="282.41" y="142.3" width="19.84" height="2.86" fill="#78c2ff"/><rect x="211.75" y="250.33" width="19.84" height="2.86" fill="#78c2ff"/><rect x="308.42" y="142.3" width="13.28" height="2.86" fill="#78c2ff"/><rect x="353.34" y="153.07" width="13.28" height="2.86" fill="#78c2ff"/><rect x="208.22" y="142.3" width="25.27" height="2.86" fill="#1487e3"/><rect x="306.69" y="153.07" width="25.27" height="2.86" fill="#1487e3"/><rect x="275.7" y="163.84" width="25.27" height="2.86" fill="#1487e3"/><rect x="242.79" y="174.61" width="25.27" height="2.86" fill="#1487e3"/><rect x="304.15" y="163.84" width="17.97" height="2.86" fill="#78c2ff"/><rect x="252.19" y="142.3" width="25.27" height="2.86" fill="#ff8761"/><rect x="223.35" y="174.61" width="14.82" height="2.86" fill="#ff8761"/><rect x="211.75" y="218.18" width="14.82" height="2.86" fill="#ff8761"/><rect x="238.17" y="142.3" width="9.25" height="2.86" fill="#e0e0e0"/><rect x="208.22" y="174.61" width="9.25" height="2.86" fill="#e0e0e0"/><rect x="338.06" y="153.07" width="9.25" height="2.86" fill="#e0e0e0"/><rect x="149.66" y="153.07" width="14.47" height="2.86" fill="#1487e3"/><rect x="188.28" y="207.25" width="11.43" height="2.86" fill="#1487e3"/><rect x="167.69" y="153.07" width="4.67" height="2.86" fill="#1487e3"/><rect x="263.62" y="153.07" width="38.62" height="2.86" fill="#e0e0e0"/><rect x="226.56" y="239.56" width="38.63" height="2.86" fill="#e0e0e0"/><rect x="175.8" y="153.07" width="4.77" height="2.86" fill="#ff8761"/><rect x="247.42" y="153.07" width="12.64" height="2.86" fill="#1487e3"/><rect x="260.05" y="163.84" width="12.64" height="2.86" fill="#ff8761"/><rect x="195.08" y="250.33" width="12.64" height="2.86" fill="#ff8761"/><rect x="217.19" y="153.07" width="26.89" height="2.86" fill="#1487e3"/><rect x="192.16" y="218.18" width="15.71" height="2.86" fill="#1487e3"/><rect x="191.15" y="239.56" width="7.86" height="2.86" fill="#1487e3"/><rect x="204.12" y="153.07" width="9.25" height="2.86" fill="#78c2ff"/><rect x="172.98" y="163.84" width="9.25" height="2.86" fill="#ff8761"/><rect x="174.83" y="207.25" width="9.25" height="2.86" fill="#ff8761"/><rect x="184.47" y="153.07" width="16.12" height="2.86" fill="#1487e3"/><g opacity="0.76"><rect x="299.58" y="178.19" width="124.91" height="89.06" rx="4.01" fill="#fff"/></g><rect x="389.33" y="224.02" width="23.21" height="6.19" rx="1.54" fill="#4aafff"/><rect x="389.33" y="235.61" width="23.21" height="6.19" rx="1.54" fill="#4aafff"/><rect x="389.33" y="247.2" width="23.21" height="6.19" rx="1.54" fill="#4aafff"/><path d="M378.08,210.22a34.48,34.48,0,1,0-64.93,23.23c.26.73.54,1.44.85,2.14a34.48,34.48,0,0,0,64.08-25.37Zm-23.76,36A25.82,25.82,0,0,1,322,232.15c-.23-.53-.44-1.06-.64-1.61a25.85,25.85,0,1,1,33.05,15.63Z" transform="translate(0.04)" fill="#4aafff"/><path d="M321,214.13l-8.24-2.57a34.54,34.54,0,0,1,31.88-24.2l.26,8.63A25.86,25.86,0,0,0,321,214.13Z" transform="translate(0.04)" fill="#1a598c"/><path d="M322,232.15l-8,3.44c-.31-.7-.59-1.41-.85-2.14a34.39,34.39,0,0,1-.45-21.89l8.24,2.57a25.82,25.82,0,0,0,.33,16.41C321.47,231.09,321.68,231.62,322,232.15Z" transform="translate(0.04)" fill="#2273b5"/><path d="M319.34,244.18a34.37,34.37,0,0,1-5.38-8.59l7.91-3.44a26,26,0,0,0,4,6.44Z" transform="translate(0.04)" fill="#3788cc"/><path d="M357.12,242.28s-1.67-2.92,1-10.75a7.9,7.9,0,0,1,14.25-2c2.82,4.86,1.87,7.87-2.28,13.35S358.85,244.79,357.12,242.28Z" transform="translate(0.04)" fill="#eea886"/><path d="M377.72,377.05s.44,3.21.49,3.7,4.88-.29,4.88-.29l.4-3.83S378.32,376.59,377.72,377.05Z" transform="translate(0.04)" fill="#eea886"/><path d="M378.16,380.34a13.22,13.22,0,0,1-3,2.78c-1.48.85-3.8,1.18-4.67,2.06-.64.63-2.3,3.35,3.84,3.29s9.1.38,9.76-.66-.95-7.69-.95-7.69A17,17,0,0,1,378.16,380.34Z" transform="translate(0.04)" fill="#414773"/><path d="M344.3,377.05s.44,3.21.5,3.7,4.88-.29,4.88-.29l.39-3.83S345,376.59,344.3,377.05Z" transform="translate(0.04)" fill="#eea886"/><path d="M344.75,380.34a13.22,13.22,0,0,1-3,2.78c-1.48.85-6.93,1.54-7.8,2.41-.63.64-1.68,3.18,7,2.94,6.14-.17,9.11.38,9.76-.66s-.95-7.69-.95-7.69A25.46,25.46,0,0,1,344.75,380.34Z" transform="translate(0.04)" fill="#414773"/><path d="M376.09,297s2.48,7.69,2.15,14.32,1.28,13.87,1.94,20.8c.73,7.71,3.73,26,3.83,30.11s-.46,17.31-.46,17.31l-6,.15s-5-31.94-6.33-35.2-7.77-26.5-8-29.1S376.09,297,376.09,297Z" transform="translate(0.04)" fill="#2d314f"/><path d="M351.25,296.15s-3.64,20.33-4.08,24.39-.72,19.62-.94,22.16-1.45,33.17-2.61,36.94h6.69s6.86-22.27,6.86-32.81,4.54-22.91,7.47-29.86,9.65-7.12,11.45-20C376.09,297,353.69,292.06,351.25,296.15Z" transform="translate(0.04)" fill="#2d314f"/><path d="M359.55,244.35a5.9,5.9,0,0,1,0,3.76c-.76,1.57,9.63.63,9.63.63a11.17,11.17,0,0,1,.89-5.9C371.42,240.18,359.55,244.35,359.55,244.35Z" transform="translate(0.04)" fill="#eea886"/><path d="M376.58,298.62s-3.74,3.84-25.67-.59l.34-1.88,24.93.94Z" transform="translate(0.04)" fill="#2b3b57"/><path d="M358,248.62s-3.84.39-4.94.6-8.47-1.32-10-1.48-8-4.57-8.18-5.1-3.92-9.93-4.13-12-3.62-1-3.33.41c.55,2.63,1.25,9,1.63,10.84s1.53,6.51,2.16,7.06a44.88,44.88,0,0,0,12.13,6.86,48.57,48.57,0,0,1,10,4.64h28s10.91-15.58,11.14-17.93-7.61-18-9.18-19.92-3.83.64-3.83.64S384.12,237,384.75,239s-5.46,10.56-7.13,10.59-6-.53-7.86-.6a13.5,13.5,0,0,1-3.92-.92Z" transform="translate(0.04)" fill="#eea886"/><path d="M345.89,259a9,9,0,0,1,3.75,6.2,81.58,81.58,0,0,0,2.19,12.21c.63,2.11-.55,17.46-.7,18.55s21.69,3.7,25.05,1.1c0,0,.94-14.33,1.33-18.4s2.27-13.93,2.89-15.26,8.22-12,8.54-13.39c0,0-3.93-6.26-6.75-6.34,0,0-4.48,5.25-5.94,5.48s-10.4-1.4-10.4-1.42-1,1.33-6.17-.23c0,0-6.18.69-7.18.82-1.22.16-9.68-1.06-9.68-1.06s-3.4,5.73-2.81,8.63Z" transform="translate(0.04)" fill="#ffc655"/><path d="M331,231.9s-.76-3.63.16-4.67a27.42,27.42,0,0,0,1.9-2.4c.12-.23,1.47-1,1.47-1.38s-1.32-.84-2.48.23-1.87,1.3-2.33,1.18-1.13-4-1.18-4.9-.43-3.46-1-3.29-.57,1.27-.57,1.27-.69-1.9-1.15-1.53-.41,1.3-.41,1.3-.86-1.06-1.09-.29a2.63,2.63,0,0,0,0,1.47s-.9-.49-.95.73a18.23,18.23,0,0,0,.89,6c.63,1.27,3,4.59,3.29,5.89S331,231.9,331,231.9Z" transform="translate(0.04)" fill="#eea886"/><path d="M380.23,225.53s-2.6-4.39-3.49-4.78a14.3,14.3,0,0,1-3.24-1.4c-1.09-.78-2.54-1.43-2.46-1.69s1.37-.16,2.75.44,2,.31,2.12,0a8.21,8.21,0,0,0-1.16-3c-.41-.52-3.39-3.51-2.89-4s2.43,1.2,2.74,1.53c0,0-1.54-3.23-.94-3.39s1.72,1,1.72,1-.13-2.76,2.85,1.73c0,0-.63-1.49.28-1s1.8,3.28,2.09,4.69,1.59,5.9,2.7,7S380.23,225.53,380.23,225.53Z" transform="translate(0.04)" fill="#eea886"/><path d="M370.07,242.84a12,12,0,0,1-4.3-.89c-2.92-1-3.14-6.12-3.77-5.51a1.86,1.86,0,0,1-3-.35s1.43-1.88.77-2.78a7,7,0,0,0-1.74-1.57s2.06-9.91,11.41-5.39C380.4,231.64,370.07,242.84,370.07,242.84Z" transform="translate(0.04)" fill="#353a3d"/><path d="M359.55,248.11l.33-1.43a76.66,76.66,0,0,1,9.22.35l.35,1.71S365.28,250.63,359.55,248.11Z" transform="translate(0.04)" fill="#d4d8e8"/><path d="M361,235.19c.54-.91,2.55-1.51,2.78,1,.19,2-3.58,4.14-3.62,2.3A5.57,5.57,0,0,1,361,235.19Z" transform="translate(0.04)" fill="#eea886"/><path d="M330.8,231.07a6,6,0,0,0-3.2,1,2.06,2.06,0,0,0,.18,1.07,13.11,13.11,0,0,1,3.3-1A2.11,2.11,0,0,0,330.8,231.07Z" transform="translate(0.04)" fill="#e55353"/><path d="M328.26,231.61a.93.93,0,0,0,.48,1.21h0a.93.93,0,1,0-.48-1.22Z" transform="translate(0.04)" fill="#353a3d"/><path d="M275.35,155.05s3.08,5.22,4.38,6.08c1.76,1.15.66,2.32-.18,2.32s-5.12.31-6.06-.76-1.41-4.28-2.29-5.12-1.78-4.17.43-5C273.58,151.87,275.35,155.05,275.35,155.05Z" transform="translate(0.04)" fill="#6069a8"/><path d="M274,152.76s3.52,6.11,4.13,7-1.15.91-2.23.48-3.82-4.82-4.21-5.62a2.93,2.93,0,0,1-.08-2Z" transform="translate(0.04)" fill="#202338"/><polygon points="270.48 156.04 271.29 162.31 271.73 162.33 271.59 157.82 270.48 156.04" fill="#6069a8"/><path d="M244.81,155.05s3.08,5.22,4.38,6.08c1.77,1.15.66,2.32-.18,2.32s-5.11.31-6.06-.76-1.41-4.28-2.28-5.12-1.82-4.26.42-5C243.06,152,244.81,155.05,244.81,155.05Z" transform="translate(0.04)" fill="#6069a8"/><path d="M243.67,152.77s3.34,6.1,4,7-1.15.91-2.24.48-3.81-4.82-4.2-5.62a3,3,0,0,1-.09-2Z" transform="translate(0.04)" fill="#202338"/><polygon points="239.94 156.04 240.76 162.31 241.19 162.33 241.06 157.82 239.94 156.04" fill="#6069a8"/><path d="M231.15,107.55,259,120.25a5.35,5.35,0,0,1,3.46,4.46c1.08,10.78,9.15,27.88,9.15,27.88,2.58,1.27,2.39.17,2.39.17-1.63-5.24-3.62-26.81-4.33-35.48-.15-1.83-.24-3.09-.26-3.49s-.31-.64-.83-1.05c-3.82-3.1-19.56-9.52-19.56-9.52C237.23,102.92,231.15,107.55,231.15,107.55Z" transform="translate(0.04)" fill="#202338"/><path d="M225.9,113c.86,7.53,11.61,6.67,11.61,6.67h13a81.25,81.25,0,0,0-4.74,14c-1.4,6.82-4.71,18.88-4.71,18.88s.22.41,2.58.18c0,0,10.22-20.39,14.14-25.51a34.5,34.5,0,0,0,3.67-10.66c.14-1.2.06-2.13-.39-2.51s-1.49-1.09-2.88-2c-4.08-2.58-11.17-6.54-15.12-7.43-5.29-1.19-13.65-3.41-13.65-3.41A14.39,14.39,0,0,0,225.9,113Z" transform="translate(0.04)" fill="#202338"/><path d="M234.77,55a12.09,12.09,0,0,1-1-7.65c.95-3.94,4.61-7.87,10-6.07s9.68,6,6.47,10.78,2.91,7,1.35,9.28-1,4.68-.31,5.21,2.79,2.43,2.56,4.68-10.4-6.55-10.4-6.55S237.88,53.55,234.77,55Z" transform="translate(0.04)" fill="#464240"/><path d="M251.1,102.31s-.81,3.92-21.62-1C229.48,101.28,236.46,99,251.1,102.31Z" transform="translate(0.04)" fill="#eb4747"/><path d="M229.24,102.38l-1,1.85,22.82.67c-1.21-4-.82-9.49-.6-13.63.25-5.06,3-8.58,2.75-13.69,1.5.24,1.76.29,3.27.52-2.3-6.57-3.09-9.83-10.25-12.35a13.25,13.25,0,0,0-6.39-.78c-8.29.68-10.8.78-14.87,8.29,6.38,1,5.33,3.31,7.26,9.65,1,3.1,1.93,6.55,1.42,9.81S229.24,99.45,229.24,102.38Z" transform="translate(0.04)" fill="#325bb3"/><path d="M242.48,67.34c-3.4-.64-2.67-2.53-2.67-2.53s.15-1.07.21-2.41V61.32a13.25,13.25,0,0,0-.1-1.67c-.27-2.28,6.16-.92,6.16-.92s-.37,4.61.52,6S245.87,68,242.48,67.34Z" transform="translate(0.04)" fill="#eea886"/><path d="M236,64.8s6.85,7.9,9.38,9.73c0,0,2.91-2.62,1.12-9.56C246.5,65,243.19,63.31,236,64.8Z" transform="translate(0.04)" fill="#eea886"/><path d="M236.19,45.77s-3.56,6.85,0,13.34,10.45-2.83,10.9-3.92,2.83-7.27-1.9-9.15S237.2,43.91,236.19,45.77Z" transform="translate(0.04)" fill="#eea886"/><path d="M237.37,48.2s-2.45,3.22-2.74,5.59a12.77,12.77,0,0,1,1.78-8.8c2.76-4.32,9.76-.21,10.7,1.52s3.69,3.24-.93,10.65C246.18,57.16,237.87,51.38,237.37,48.2Z" transform="translate(0.04)" fill="#464240"/><path d="M243.05,59.79a6.62,6.62,0,0,1-3,2.61V61.32A5.76,5.76,0,0,0,243.05,59.79Z" transform="translate(0.04)" fill="#a77860"/><path d="M207.12,96.22s-1.69.75-2.49.41a7.42,7.42,0,0,0-2.43-.41c-.53,0-2.16-.58-2.13.06s2.65,1.08,3.19,1.28-1.61,1.38-1.81,1.91,2.23,4,3.59,3,2.11-2.94,2.39-3.07a9.68,9.68,0,0,0,1-.67Z" transform="translate(0.04)" fill="#eea886"/><path d="M201.71,99.16s-4,3.29-4,3.73.14.65.53.36l3.93-3.06s-4,4.69-4.11,5,.3.63.53.49,4.44-4.55,4.44-4.55-3.7,4.38-3.72,4.71a.43.43,0,0,0,.45.41.44.44,0,0,0,.28-.12c.3-.3,4-4.17,4-4.17s-2.48,3.36-2.32,3.66.4.56,1-.33,2.29-2.83,2.29-2.83Z" transform="translate(0.04)" fill="#eea886"/><path d="M249.18,119.67H237.51s-10.75.86-11.61-6.67a14.39,14.39,0,0,1,3.54-11.71s5.68,1.51,10.64,2.71a37.79,37.79,0,0,1,9-.78s21,6.94,20.39,10.6C269.43,113.82,260.64,109.12,249.18,119.67Z" transform="translate(0.04)" fill="#ff7e55"/><polygon points="241.63 106.63 263.88 106.3 252.64 112 241.63 106.63" fill="#5e5853"/><path d="M248.5,103.79a19.05,19.05,0,0,1-11.14.18l-.29-2.29,12.64.7Z" transform="translate(0.04)" fill="#325bb3"/><polygon points="252.64 112 241.63 107.73 241.63 106.63 253.51 110.91 252.64 112" fill="#91887f"/><path d="M248.42,104.85a1.11,1.11,0,0,0,1,1.23A1.15,1.15,0,0,0,250,106l1.3-.55a.92.92,0,0,0,.54-1c-.54-3.36-1.69-16.46,0-18.71a8.21,8.21,0,0,0,1.23-2.2c1.11,2.87,2.5,6.57,3,8.56l10.51,14,3.53.89a117.49,117.49,0,0,0-7.94-16.21c-.68-1.85-2.66-7.44-4.4-12.42-1.11-3.15-2.12-6-2.66-7.61a3.57,3.57,0,0,0-1.54-1.88c-1.63-1-4.34-2.51-6.8-3.7h0l-.24-.11h0c4.67,7.08,2.85,27.07,1.93,39.85Z" transform="translate(0.04)" fill="#eddad3"/><path d="M231.06,65.57c-1.5.23-5.22,3.84-7.19,7.48-2.25,4.16-4.54,8.89-6.26,10.44-3.16,2.87-12,13-12.43,12.74a26.91,26.91,0,0,0,2.76,3.17c.16.07,14.53-12.38,15.91-14.28s4.81-9.35,5.86-9.18h0a54.25,54.25,0,0,1,2.56,7l.06.2a22.43,22.43,0,0,1,.31,9.3c-.34,2.6-2.28,6.83-3.44,8.89a1.44,1.44,0,0,0,0,1.08h0a.73.73,0,0,0,.39.45l4.21,1.56,1,.37a2.16,2.16,0,0,0,2.77-1.28,1.91,1.91,0,0,0,.12-.47c.94-7.21,2.12-14.58,3.07-17.36a26.33,26.33,0,0,0-1.62-21.35A78.81,78.81,0,0,0,231.06,65.57Z" transform="translate(0.04)" fill="#eddad3"/><polygon points="252.64 112 259.26 93.93 280.6 94.28 274.29 110.93 252.64 112" fill="#6e6760"/><path d="M266.05,101.93c-.65,1.3-.45,2.72.44,3.17s2.15-.25,2.8-1.55.45-2.72-.44-3.17S266.7,100.63,266.05,101.93Z" transform="translate(0.04)" fill="#807066"/><path d="M243.56,52.59a3.91,3.91,0,0,1,.1,4c-1.26,1.87.32,3.64.59,5.58s-5.27,7.11.9,9.7,8.13-1.69,6.56-4.06-2.69-4.28-2.83-7.64S247.64,51.51,243.56,52.59Z" transform="translate(0.04)" fill="#464240"/><polygon points="198.93 27.07 225.21 27.07 225.21 46.12 225.21 50.13 221.2 46.12 198.93 46.12 198.93 27.07" fill="#78c2ff"/></svg>