<?xml version="1.0" encoding="UTF-8"?>
<svg width="1139px" height="778px" viewBox="0 0 1139 778" version="1.1" xmlns="http://www.w3.org/2000/svg" xmlns:xlink="http://www.w3.org/1999/xlink">
    <!-- Generator: Sketch 60 (88103) - https://sketch.com -->
    <title>Configuration</title>
    <desc>Created with Sketch.</desc>
    <defs>
        <linearGradient x1="50%" y1="0%" x2="50%" y2="100%" id="config-example-line-1">
            <stop stop-color="#B96ECE" offset="0%"></stop>
            <stop stop-color="#3F80D2" offset="100%"></stop>
        </linearGradient>
        <linearGradient x1="50%" y1="0%" x2="50%" y2="100%" id="config-example-line-2">
            <stop stop-color="#3F80D2" offset="0%"></stop>
            <stop stop-color="#019BB4" offset="100%"></stop>
        </linearGradient>
        <linearGradient x1="50%" y1="0%" x2="50%" y2="100%" id="config-example-line-3">
            <stop stop-color="#3F80D2" offset="0%"></stop>
            <stop stop-color="#009CB4" offset="100%"></stop>
        </linearGradient>
    </defs>
    <g id="Configuration" stroke="none" stroke-width="1" fill="none" fill-rule="evenodd">
        <g id="Custom-Preset-3" transform="translate(0.000000, -16.000000)">
            <g id="Configuration" transform="translate(0.000000, 16.000000)">
                <path d="M45.9987269,178.001275 L46.0012747,180.001273 L49.0012723,179.997453 L48.9987269,177.997453 L45.9987269,178.001275 Z M55.9987188,177.988536 L56.0012666,179.988534 L59.0012641,179.984714 L58.9987188,177.984714 L55.9987188,177.988536 Z M65.9987107,177.975797 L66.0012585,179.975795 L69.001256,179.971975 L68.9987107,177.971975 L65.9987107,177.975797 Z M75.9987026,177.963058 L76.0012504,179.963057 L79.0012479,179.959237 L78.9987026,177.959237 L75.9987026,177.963058 Z M85.9986945,177.950319 L86.0012422,179.950318 L89.0012398,179.946498 L88.9986945,177.946498 L85.9986945,177.950319 Z M95.9986864,177.93758 L96.0012341,179.937579 L99.0012317,179.933759 L98.9986864,177.933759 L95.9986864,177.93758 Z M105.998678,177.924842 L106.001226,179.92484 L109.001224,179.92102 L108.998678,177.92102 L105.998678,177.924842 Z M115.99867,177.912103 L116.001218,179.912101 L119.001215,179.908281 L118.99867,177.908281 L115.99867,177.912103 Z M125.998662,177.899364 L126.00121,179.899362 L129.001207,179.895542 L128.998662,177.895542 L125.998662,177.899364 Z M135.998654,177.886625 L136.001202,179.886623 L139.001199,179.882803 L138.998654,177.882803 L135.998654,177.886625 Z M145.998646,177.873886 L146.001194,179.873885 L149.001191,179.870065 L148.998646,177.870065 L145.998646,177.873886 Z M155.998638,177.861147 L156.001185,179.861146 L159.001183,179.857326 L158.998638,177.857326 L155.998638,177.861147 Z M165.99863,177.848409 L166.001177,179.848407 L169.001175,179.844587 L168.99863,177.844587 L165.99863,177.848409 Z M175.998621,177.83567 L176.001169,179.835668 L179.001167,179.831848 L178.998621,177.831848 L175.998621,177.83567 Z M185.998613,177.822931 L186.001161,179.822929 L189.001159,179.819109 L188.998613,177.819109 L185.998613,177.822931 Z M195.998605,177.810192 L196.001153,179.81019 L199.001151,179.80637 L198.998605,177.80637 L195.998605,177.810192 Z M205.998597,177.797453 L206.001145,179.797452 L209.001142,179.793632 L208.998597,177.793632 L205.998597,177.797453 Z M215.998589,177.784714 L216.001137,179.784713 L219.001134,179.780893 L218.998589,177.780893 L215.998589,177.784714 Z M225.998581,177.771976 L226.001129,179.771974 L229.001126,179.768154 L228.998581,177.768154 L225.998581,177.771976 Z M235.998573,177.759237 L236.001121,179.759235 L239.001118,179.755415 L238.998573,177.755415 L235.998573,177.759237 Z M245.998565,177.746498 L246.001112,179.746496 L249.00111,179.742676 L248.998565,177.742676 L245.998565,177.746498 Z M255.998557,177.733759 L256.001104,179.733757 L259.001102,179.729937 L258.998557,177.729937 L255.998557,177.733759 Z M265.998548,177.72102 L266.001096,179.721019 L269.001094,179.717198 L268.998548,177.717198 L265.998548,177.72102 Z M275.99854,177.708281 L276.001088,179.70828 L279.001086,179.70446 L278.99854,177.70446 L275.99854,177.708281 Z M285.998532,177.695542 L286.00108,179.695541 L289.001078,179.691721 L288.998532,177.691721 L285.998532,177.695542 Z M295.998524,177.682804 L296.001072,179.682802 L299.001069,179.678982 L298.998524,177.678982 L295.998524,177.682804 Z M305.998516,177.670065 L306.001064,179.670063 L309.001061,179.666243 L308.998516,177.666243 L305.998516,177.670065 Z M315.998508,177.657326 L316.001056,179.657324 L319.001053,179.653504 L318.998508,177.653504 L315.998508,177.657326 Z M325.9985,177.644587 L326.001048,179.644585 L329.001045,179.640765 L328.9985,177.640765 L325.9985,177.644587 Z M335.998492,177.631848 L336.001039,179.631847 L339.001037,179.628027 L338.998492,177.628027 L335.998492,177.631848 Z M345.998484,177.619109 L346.001031,179.619108 L349.001029,179.615288 L348.998484,177.615288 L345.998484,177.619109 Z M355.998475,177.606371 L356.001023,179.606369 L359.001021,179.602549 L358.998475,177.602549 L355.998475,177.606371 Z M365.998467,177.593632 L366.001015,179.59363 L369.001013,179.58981 L368.998467,177.58981 L365.998467,177.593632 Z M375.998459,177.580893 L376.001007,179.580891 L379.001005,179.577071 L378.998459,177.577071 L375.998459,177.580893 Z M385.998451,177.568154 L386.000999,179.568152 L389.000996,179.564332 L388.998451,177.564332 L385.998451,177.568154 Z M395.998443,177.555415 L396.000991,179.555414 L399.000988,179.551594 L398.998443,177.551594 L395.998443,177.555415 Z M405.998435,177.542676 L406.000983,179.542675 L409.00098,179.538855 L408.998435,177.538855 L405.998435,177.542676 Z M415.998427,177.529937 L416.000974,179.529936 L419.000972,179.526116 L418.998427,177.526116 L415.998427,177.529937 Z M425.998419,177.517199 L426.000966,179.517197 L429.000964,179.513377 L428.998419,177.513377 L425.998419,177.517199 Z M435.99841,177.50446 L436.000958,179.504458 L439.000956,179.500638 L438.99841,177.500638 L435.99841,177.50446 Z" id="Line" fill-opacity="0.25" fill="#FFFFFF" fill-rule="nonzero"></path>
                <path d="M45.9987269,461.001275 L46.0012747,463.001273 L49.0012723,462.997453 L48.9987269,460.997453 L45.9987269,461.001275 Z M55.9987188,460.988536 L56.0012666,462.988534 L59.0012641,462.984714 L58.9987188,460.984714 L55.9987188,460.988536 Z M65.9987107,460.975797 L66.0012585,462.975795 L69.001256,462.971975 L68.9987107,460.971975 L65.9987107,460.975797 Z M75.9987026,460.963058 L76.0012504,462.963057 L79.0012479,462.959237 L78.9987026,460.959237 L75.9987026,460.963058 Z M85.9986945,460.950319 L86.0012422,462.950318 L89.0012398,462.946498 L88.9986945,460.946498 L85.9986945,460.950319 Z M95.9986864,460.93758 L96.0012341,462.937579 L99.0012317,462.933759 L98.9986864,460.933759 L95.9986864,460.93758 Z M105.998678,460.924842 L106.001226,462.92484 L109.001224,462.92102 L108.998678,460.92102 L105.998678,460.924842 Z M115.99867,460.912103 L116.001218,462.912101 L119.001215,462.908281 L118.99867,460.908281 L115.99867,460.912103 Z M125.998662,460.899364 L126.00121,462.899362 L129.001207,462.895542 L128.998662,460.895542 L125.998662,460.899364 Z M135.998654,460.886625 L136.001202,462.886623 L139.001199,462.882803 L138.998654,460.882803 L135.998654,460.886625 Z M145.998646,460.873886 L146.001194,462.873885 L149.001191,462.870065 L148.998646,460.870065 L145.998646,460.873886 Z M155.998638,460.861147 L156.001185,462.861146 L159.001183,462.857326 L158.998638,460.857326 L155.998638,460.861147 Z M165.99863,460.848409 L166.001177,462.848407 L169.001175,462.844587 L168.99863,460.844587 L165.99863,460.848409 Z M175.998621,460.83567 L176.001169,462.835668 L179.001167,462.831848 L178.998621,460.831848 L175.998621,460.83567 Z M185.998613,460.822931 L186.001161,462.822929 L189.001159,462.819109 L188.998613,460.819109 L185.998613,460.822931 Z M195.998605,460.810192 L196.001153,462.81019 L199.001151,462.80637 L198.998605,460.80637 L195.998605,460.810192 Z M205.998597,460.797453 L206.001145,462.797452 L209.001142,462.793632 L208.998597,460.793632 L205.998597,460.797453 Z M215.998589,460.784714 L216.001137,462.784713 L219.001134,462.780893 L218.998589,460.780893 L215.998589,460.784714 Z M225.998581,460.771976 L226.001129,462.771974 L229.001126,462.768154 L228.998581,460.768154 L225.998581,460.771976 Z M235.998573,460.759237 L236.001121,462.759235 L239.001118,462.755415 L238.998573,460.755415 L235.998573,460.759237 Z M245.998565,460.746498 L246.001112,462.746496 L249.00111,462.742676 L248.998565,460.742676 L245.998565,460.746498 Z M255.998557,460.733759 L256.001104,462.733757 L259.001102,462.729937 L258.998557,460.729937 L255.998557,460.733759 Z M265.998548,460.72102 L266.001096,462.721019 L269.001094,462.717198 L268.998548,460.717198 L265.998548,460.72102 Z M275.99854,460.708281 L276.001088,462.70828 L279.001086,462.70446 L278.99854,460.70446 L275.99854,460.708281 Z M285.998532,460.695542 L286.00108,462.695541 L289.001078,462.691721 L288.998532,460.691721 L285.998532,460.695542 Z M295.998524,460.682804 L296.001072,462.682802 L299.001069,462.678982 L298.998524,460.678982 L295.998524,460.682804 Z M305.998516,460.670065 L306.001064,462.670063 L309.001061,462.666243 L308.998516,460.666243 L305.998516,460.670065 Z M315.998508,460.657326 L316.001056,462.657324 L319.001053,462.653504 L318.998508,460.653504 L315.998508,460.657326 Z M325.9985,460.644587 L326.001048,462.644585 L329.001045,462.640765 L328.9985,460.640765 L325.9985,460.644587 Z M335.998492,460.631848 L336.001039,462.631847 L339.001037,462.628027 L338.998492,460.628027 L335.998492,460.631848 Z M345.998484,460.619109 L346.001031,462.619108 L349.001029,462.615288 L348.998484,460.615288 L345.998484,460.619109 Z M355.998475,460.606371 L356.001023,462.606369 L359.001021,462.602549 L358.998475,460.602549 L355.998475,460.606371 Z M365.998467,460.593632 L366.001015,462.59363 L369.001013,462.58981 L368.998467,460.58981 L365.998467,460.593632 Z M375.998459,460.580893 L376.001007,462.580891 L379.001005,462.577071 L378.998459,460.577071 L375.998459,460.580893 Z M385.998451,460.568154 L386.000999,462.568152 L389.000996,462.564332 L388.998451,460.564332 L385.998451,460.568154 Z M395.998443,460.555415 L396.000991,462.555414 L399.000988,462.551594 L398.998443,460.551594 L395.998443,460.555415 Z M405.998435,460.542676 L406.000983,462.542675 L409.00098,462.538855 L408.998435,460.538855 L405.998435,460.542676 Z M415.998427,460.529937 L416.000974,462.529936 L419.000972,462.526116 L418.998427,460.526116 L415.998427,460.529937 Z M425.998419,460.517199 L426.000966,462.517197 L429.000964,462.513377 L428.998419,460.513377 L425.998419,460.517199 Z M435.99841,460.50446 L436.000958,462.504458 L439.000956,462.500638 L438.99841,460.500638 L435.99841,460.50446 Z" id="Line-Copy" fill-opacity="0.25" fill="#FFFFFF" fill-rule="nonzero"></path>
                <rect id="config-file-bg" stroke="#000000" x="45.5" y="22.5" width="394" height="755" rx="10"></rect>
                <polygon id="Line-6" fill="#000000" fill-rule="nonzero" transform="translate(512.500000, 204.500000) scale(1, -1) translate(-512.500000, -204.500000) " points="685 204 685 205 340 205 340 204"></polygon>
                <polygon id="Line-6" fill="#000000" fill-rule="nonzero" points="685 333 685 334 402 334 402 333"></polygon>
                <polygon id="Line-6" fill="#000000" fill-rule="nonzero" points="685 49 685 50 288 50 288 49"></polygon>
                <polygon id="Line-6" fill="#000000" fill-rule="nonzero" transform="translate(457.000000, 490.500000) scale(1, -1) translate(-457.000000, -490.500000) " points="685 490 685 491 229 491 229 490"></polygon>
                <polygon id="Line-6" fill="#000000" fill-rule="nonzero" points="685 622 685 623 229 623 229 622"></polygon>
                <text font-size="16" font-weight="bold" line-spacing="24">
                    <tspan x="711" y="51" fill="#000000">1. Lorem ipsum dolor sit.</tspan>
                    <tspan x="711" y="75" font-weight="normal" fill="#000000">Lorem ipsum dolor sit amet.</tspan>
                    <tspan x="711" y="99" font-weight="normal" fill="#000000">Lorem ipsum dolor sit amet consectetur adipisicing.</tspan>
                    <a href="/SteamSpeak/docs/reference/sources/docker"><tspan x="711" y="123" font-weight="normal" fill="#10E7FF">Lorem, ipsum dolor.</tspan></a>
                </text>
                <text font-size="16" font-weight="bold" line-spacing="24">
                    <tspan x="711" y="206" fill="#000000">2. Lorem ipsum dolor sit.</tspan>
                    <tspan x="711" y="230" font-weight="normal" fill="#000000">Lorem ipsum dolor sit amet. </tspan>
                    <tspan x="711" y="254" font-weight="normal" fill="#000000">Lorem ipsum dolor sit amet consectetur adipisicing.</tspan>
                    <a href="/SteamSpeak/docs/reference/sources/docker"><tspan x="711" y="278" font-weight="normal" fill="#10E7FF">Lorem, ipsum dolor.</tspan></a>
                </text>
                <text font-size="16" font-weight="bold" line-spacing="24">
                    <tspan x="711" y="334" fill="#000000">3. Lorem ipsum dolor sit.</tspan>
                    <tspan x="711" y="358" font-weight="normal" fill="#000000">Lorem ipsum dolor sit amet. </tspan>
                    <tspan x="711" y="382" font-weight="normal" fill="#000000">Lorem ipsum dolor sit amet consectetur adipisicing.</tspan>
                    <a href="/SteamSpeak/docs/reference/sources/docker"><tspan x="711" y="406" font-weight="normal" fill="#10E7FF">Lorem, ipsum dolor.</tspan></a>
                </text>
                <text font-size="16" font-weight="bold" line-spacing="24">
                    <tspan x="711" y="492" fill="#000000">4. Lorem ipsum dolor sit.</tspan>
                    <tspan x="711" y="516" font-weight="normal" fill="#000000">Lorem ipsum dolor sit amet. </tspan>
                    <tspan x="711" y="540" font-weight="normal" fill="#000000">Lorem ipsum dolor sit amet consectetur adipisicing.</tspan>
                    <a href="/SteamSpeak/docs/reference/sources/docker"><tspan x="711" y="564" font-weight="normal" fill="#10E7FF">VLorem, ipsum dolor.</tspan></a>
                </text>
                <text font-size="16" font-weight="bold" line-spacing="24">
                    <tspan x="711" y="624" fill="#000000">5. Lorem ipsum dolor sit.</tspan>
                    <tspan x="711" y="648" font-weight="normal" fill="#000000">Lorem ipsum dolor sit amet. </tspan>
                    <tspan x="711" y="672" font-weight="normal" fill="#000000">Lorem ipsum dolor sit amet consectetur adipisicing.</tspan>
                    <a href="/SteamSpeak/docs/reference/sources/docker"><tspan x="711" y="696" font-weight="normal" fill="#10E7FF">Lorem, ipsum dolor.</tspan></a>
                </text>
                <text font-family="Courier-Bold, Courier" font-size="14" font-weight="bold" line-spacing="26" letter-spacing="0.3">
                    <tspan x="67" y="48" fill="#B963CE">Lorem, ipsum dolor.]</tspan>
                    <tspan x="67" y="74" fill="#B963CE">   Lorem ipsum dolor sit.</tspan>
                    <tspan x="67" y="100" fill="#B963CE">  Lorem, ipsum dolor.ar/log/nginx*.log']</tspan>
                    <tspan x="67" y="126" fill="#B963CE">  Lorem ipsum dolor sit amet.</tspan>
                    <tspan x="67" y="152" fill="#B963CE">  ignore_older = 86400</tspan>
                    <tspan x="258.430078" y="152" fill="#000000"></tspan>
                    <tspan x="67" y="178" fill="#000000"></tspan>
                    <tspan x="67" y="204" fill="#3A7DD1">Lorem, ipsum dolor.]</tspan>
                    <tspan x="67" y="230" fill="#3A7DD1">  Lorem ipsum dolor sit.</tspan>
                    <tspan x="67" y="256" fill="#3A7DD1">  Lorem, ipsum dolor.</tspan>
                    <tspan x="67" y="282" fill="#3A7DD1">  Lorem ipsum dolor sit amet.]</tspan>
                    <tspan x="67" y="308" fill="#3A7DD1"></tspan>
                    <tspan x="67" y="334" fill="#3A7DD1">[transforms.nginx_transaction_sampler]</tspan>
                    <tspan x="67" y="360" fill="#3A7DD1">  Lorem, ipsum dolor</tspan>
                    <tspan x="67" y="386" fill="#3A7DD1">  Lorem, ipsum dolor</tspan>
                    <tspan x="67" y="412" fill="#3A7DD1">  Lorem, ipsum dolor</tspan>
                    <tspan x="67" y="438" fill="#3A7DD1">  Lorem, ipsum dolor sit.</tspan>
                    <tspan x="223.624609" y="438" fill="#000000"></tspan>
                    <tspan x="67" y="464" fill="#000000"></tspan>
                    <tspan x="67" y="490" fill="#0092A8">[Lorem, ipsum.]</tspan>
                    <tspan x="67" y="516" fill="#0092A8">  Lorem ipsum dolor sit.</tspan>
                    <tspan x="67" y="542" fill="#0092A8">  Lorem, ipsum dolor.</tspan>
                    <tspan x="67" y="568" fill="#0092A8">  Lorem ipsum dolor sit amet.</tspan>
                    <tspan x="67" y="594" fill="#0092A8"></tspan>
                    <tspan x="67" y="620" fill="#0092A8">[Lorem, ipsum et.]</tspan>
                    <tspan x="67" y="646" fill="#0092A8">  Lorem ipsum dolor sit.</tspan>
                    <tspan x="67" y="672" fill="#0092A8">  Lorem, ipsum dolor.</tspan>
                    <tspan x="67" y="698" fill="#0092A8">  Lorem ipsum dolor sit amet.</tspan>
                    <tspan x="67" y="724" fill="#0092A8">  Lorem ipsum dolor sit.</tspan>
                    <tspan x="67" y="750" fill="#0092A8">  Lorem ipsum dolor sit amet.</tspan>
                </text>
                <path d="M59.9217929,48 L61,49.1046297 L60.4583103,49.6543077 C37.1580781,73.2981482 25.5284769,98.5602347 25.5284769,125.466422 C25.5284769,153.857586 34.7788958,177.001736 53.2890677,194.950014 L55.9182352,191.827103 L60.1125308,202 L49.6141966,199.317514 L52.2928822,196.134687 C33.4340816,177.877607 24,154.304418 24,125.466422 C24,98.3913862 35.5720841,72.9834892 58.6764412,49.2678167 L59.3801032,48.549678 L59.9217929,48 Z" id="Line-7" fill="url(#config-example-line-1)" fill-rule="nonzero"></path>
                <path d="M59.9503433,215 L61,216.17245 L60.4070542,216.69133 C40.5052938,234.107123 30.5837039,252.692853 30.5837039,272.472239 C30.5837039,292.654159 37.9506623,309.224407 52.7051688,322.237596 L55.2722183,318.98853 L60.0902502,329 L49.0984358,326.803856 L51.7282766,323.474147 C36.5829915,310.151577 29,293.132642 29,272.472239 C29,252.407093 38.9369001,233.59203 58.7538595,216.050065 L59.3573975,215.51888 L59.9503433,215 Z" id="Line-7" fill="#3F80D2" fill-rule="nonzero"></path>
                <path d="M60.9943106,214 L62,215.205739 L61.3892739,215.702116 C21.5270766,248.100669 1.58219995,299.297516 1.58219995,369.358982 C1.58219995,448.668477 19.8889697,525.642845 56.5063532,600.290181 L57.2484241,601.795267 L61.017564,599.940757 L61.0040754,611 L52.0494782,604.353802 L55.8323552,602.49185 L55.0821042,600.970426 C18.3619827,526.113483 0,448.906969 0,369.358982 C0,299.570152 19.7183145,248.256983 59.1816811,215.483827 L60.3835845,214.496376 L60.9943106,214 Z" id="Line-7" fill="url(#config-example-line-2)" fill-rule="nonzero"></path>
                <path d="M59.9504967,341 L61,342.131449 L60.4443833,342.665747 C37.1512597,365.06512 25.528495,388.990796 25.528495,414.46803 C25.528495,441.281431 34.7221429,463.152102 53.1245719,480.134406 L55.675612,476.950639 L60.1170279,487 L49.5563302,484.588154 L52.15691,481.341778 C33.3906971,464.052338 24,441.742909 24,414.46803 C24,388.789278 35.5790563,364.69679 58.6909884,342.215069 L59.39488,341.534298 L59.9504967,341 Z" id="Line-7" fill="url(#config-example-line-3)" fill-rule="nonzero"></path>
            </g>
        </g>
    </g>
</svg>
