<svg id="Capa_1" data-name="Capa 1" xmlns="http://www.w3.org/2000/svg" xmlns:xlink="http://www.w3.org/1999/xlink" viewBox="0 0 1041.28 554.14"><defs><style>.cls-1,.cls-16{fill:url(#linear-gradient);}.cls-1{clip-rule:evenodd;}.cls-2{fill:#f2f2f2;}.cls-3{opacity:0.1;}.cls-3,.cls-5{isolation:isolate;}.cls-4{fill:#65617d;}.cls-5{opacity:0.2;}.cls-6{fill:#3f3d56;}.cls-7{fill:#39374d;}.cls-8{fill:#4267b2;}.cls-9{fill:#fbbebe;}.cls-10{fill:#ff6584;}.cls-11{fill:#4dba87;}.cls-12{fill:#435466;}.cls-13,.cls-15{fill:#799d67;}.cls-14{fill:#fff;}.cls-14,.cls-15,.cls-16{fill-rule:evenodd;}.cls-17{clip-path:url(#clip-path);}.cls-18{fill:none;}.cls-19{fill:url(#linear-gradient-3);}.cls-20{fill:url(#linear-gradient-4);}.cls-21{fill:url(#linear-gradient-5);}.cls-22{fill:url(#linear-gradient-6);}.cls-23{fill:url(#linear-gradient-7);}.cls-24{fill:url(#linear-gradient-8);}</style><linearGradient id="linear-gradient" x1="280.68" y1="383.42" x2="266.24" y2="412.88" gradientUnits="userSpaceOnUse"><stop offset="0" stop-color="#5b8646"/><stop offset="0.33" stop-color="#5d8a45"/><stop offset="0.64" stop-color="#629542"/><stop offset="0.95" stop-color="#6ba83c"/><stop offset="1" stop-color="#6dac3b"/></linearGradient><clipPath id="clip-path" transform="translate(0 0)"><path class="cls-1" d="M275.61,376.79a1.77,1.77,0,0,0-1.84-.09l-15.66,8.76a1.93,1.93,0,0,0-1,1.69v19a2,2,0,0,0,1,1.71l15.66,9.18a1.77,1.77,0,0,0,1.84,0l14.78-9.31a1.92,1.92,0,0,0,.87-1.63v-18a2,2,0,0,0-.87-1.65Z"/></clipPath><linearGradient id="linear-gradient-3" x1="271.91" y1="399.3" x2="310.87" y2="370.52" gradientUnits="userSpaceOnUse"><stop offset="0.14" stop-color="#5b8646"/><stop offset="0.4" stop-color="#6e9e4c"/><stop offset="0.71" stop-color="#81b553"/><stop offset="0.91" stop-color="#88be55"/></linearGradient><linearGradient id="linear-gradient-4" x1="257.02" y1="373.34" x2="292.37" y2="373.34" gradientUnits="userSpaceOnUse"><stop offset="0.09" stop-color="#88be55"/><stop offset="0.29" stop-color="#81b553"/><stop offset="0.6" stop-color="#6e9e4c"/><stop offset="0.86" stop-color="#5b8646"/></linearGradient><linearGradient id="linear-gradient-5" x1="256.66" y1="396.89" x2="291.8" y2="396.89" xlink:href="#linear-gradient-4"/><linearGradient id="linear-gradient-6" x1="258.58" y1="407.39" x2="291.77" y2="407.39" xlink:href="#linear-gradient-4"/><linearGradient id="linear-gradient-7" x1="257.62" y1="412.21" x2="291.77" y2="412.21" xlink:href="#linear-gradient-4"/><linearGradient id="linear-gradient-8" x1="297.42" y1="383.63" x2="275.31" y2="428.74" xlink:href="#linear-gradient"/></defs><title>undraw_docusaurus_react</title><g id="Group_24" data-name="Group 24"><g id="Group_23" data-name="Group 23"><path id="Path_299" data-name="Path 299" class="cls-2" d="M961.47,438.17q-1.74,3.75-3.47,7.41-2.7,5.66-5.33,11.12c-.78,1.6-1.56,3.19-2.32,4.77-8.6,17.57-16.63,33.11-23.45,45.89a73.21,73.21,0,0,1-63.81,38.69l-151.65,1.66h-1.6l-13,.14-11.12.12-34.1.37h-1.38l-17.36.19h-.53l-107,1.15-95.51,1-11.11.12-69,.75h-.08L304.9,552h-.48l-141.5,1.54-42.33.46a88.31,88.31,0,0,1-10.79-.54h0c-1.22-.14-2.44-.3-3.65-.49a87.43,87.43,0,0,1-51.29-27.54c-18.21-20-31.46-43.41-40.36-68.76q-1.93-5.49-3.6-11.12c-30.81-104.16,6.75-238.53,74.35-328.45q4.25-5.64,8.64-11l.07-.08c20.79-25.52,44.1-46.84,68.93-62,44-26.91,92.75-34.49,140.7-11.9C344.16,51.27,382,60.26,418.76,62.71c3.71.24,7.42.42,11.11.53C514.1,65.88,593,35.54,685.74,16c3.69-.78,7.39-1.55,11.12-2.28C763,.51,836.35-6.43,923.59,8.16a187.71,187.71,0,0,1,26.76,6.4q5.77,1.84,11.12,4c41.64,16.94,64.35,48.24,74,87.46q1.37,5.45,2.37,11.11C1055,211.46,1004.84,345.28,961.47,438.17Z" transform="translate(0 0)"/><path id="Path_300" data-name="Path 300" class="cls-3" d="M497,445.58a95.22,95.22,0,0,1-1.87,11.12h93.7V445.58Zm-78.25,62.81,11.11-.1V480.83c-3.81-.17-7.52-.35-11.11-.53ZM185.84,445.58V456.7h198.5V445.58Zm849.68-339.53h-74V18.56q-5.35-2.16-11.12-4v91.49H696.86V13.63c-3.73.73-7.43,1.5-11.12,2.28v90.14H429.87V63.2c-3.69-.11-7.4-.29-11.11-.53v43.38H162.89v-62c-24.83,15.16-48.14,36.48-68.93,62h-.07v.08q-4.4,5.4-8.64,11h8.64V445.58h-83q1.66,5.63,3.6,11.12H93.88v93.62a86.18,86.18,0,0,0,12.2,2.78c1.21.19,2.43.35,3.65.49h0a84.49,84.49,0,0,0,10.79.54l42.33-.46v-97H418.76v94.21l11.11-.12V456.7H685.74v91.35l11.12-.12V456.7H950.35v4.77c.76-1.58,1.54-3.16,2.32-4.77q2.63-5.46,5.33-11.12,1.72-3.65,3.47-7.41v-321h76.42Q1036.89,111.48,1035.52,106.05ZM162.89,445.58V117.13H418.76V445.58Zm267,0V117.13H685.74V445.58Zm520.48,0H696.86V117.13H950.35Z" transform="translate(0 0)"/><path id="Path_301" data-name="Path 301" class="cls-4" d="M863.08,533.62v13L711.16,548l-1.62,0-57.74.53-1.38,0-17.55.15h-.52l-107,1-175.61,1.63h-.15l-44.65.42h-.48l-198.4,1.82v-15l46.65-28,93.6-.78H249l2,0,44.94-.37,2,0h2.64l14.41-.12h.38l35.55-.3h.29l277.4-2.34,6.79,0h.68l5.18-.05,37.65-.31,2,0,1.85,0h1l11.71-.09,2.32,0,3.11,0,9.75-.09,15.47-.13,2,0,3.48,0h.65l74.71-.64Z" transform="translate(0 0)"/><path id="Path_302" data-name="Path 302" class="cls-5" d="M863.08,533.62v13L711.16,548l-1.62,0-57.74.53-1.38,0-17.55.15h-.52l-107,1-175.61,1.63h-.15l-44.65.42h-.48l-198.4,1.82v-15l46.65-28,93.6-.78H249l2,0,44.94-.37,2,0h2.64l14.41-.12h.38l35.55-.3h.29l277.4-2.34,6.79,0h.68l5.18-.05,37.65-.31,2,0,1.85,0h1l11.71-.09,2.32,0,3.11,0,9.75-.09,15.47-.13,2,0,3.48,0h.65l74.71-.64Z" transform="translate(0 0)"/><path id="Path_303" data-name="Path 303" class="cls-6" d="M296.09,483.63v24.48a6.12,6.12,0,0,1-3.5,5.54,5.86,5.86,0,0,1-2.5.6l-34.9.74a5.86,5.86,0,0,1-2.7-.57,6.11,6.11,0,0,1-3.57-5.57V483.63Z" transform="translate(0 0)"/><path id="Path_304" data-name="Path 304" class="cls-3" d="M296.09,483.63v24.48a6.12,6.12,0,0,1-3.5,5.54,5.86,5.86,0,0,1-2.5.6l-34.9.74a5.86,5.86,0,0,1-2.7-.57,6.11,6.11,0,0,1-3.57-5.57V483.63Z" transform="translate(0 0)"/><path id="Path_305" data-name="Path 305" class="cls-6" d="M298.09,483.63v24.48a6.12,6.12,0,0,1-3.5,5.54,5.86,5.86,0,0,1-2.5.6l-34.9.74a5.86,5.86,0,0,1-2.7-.57,6.11,6.11,0,0,1-3.57-5.57V483.63Z" transform="translate(0 0)"/><rect id="Rectangle_137" data-name="Rectangle 137" class="cls-6" x="680.91" y="483.62" width="47.17" height="31.5"/><rect id="Rectangle_138" data-name="Rectangle 138" class="cls-3" x="680.91" y="483.62" width="47.17" height="31.5"/><rect id="Rectangle_139" data-name="Rectangle 139" class="cls-6" x="678.91" y="483.62" width="47.17" height="31.5"/><path id="Path_306" data-name="Path 306" class="cls-3" d="M298.08,483.61v5l-47.17,1.27v-6.24Z" transform="translate(0 0)"/><path id="Path_307" data-name="Path 307" class="cls-4" d="M381.34,312.32v168.2a4,4,0,0,1-3.85,4l-191.65,5.1h-.05a4,4,0,0,1-3.95-3.95V312.32a4,4,0,0,1,3.95-3.95h191.6a4,4,0,0,1,3.95,3.95Z" transform="translate(0 0)"/><path id="Path_308" data-name="Path 308" class="cls-3" d="M185.84,308.38v181.2h-.05a4,4,0,0,1-3.95-3.95V312.32a4,4,0,0,1,3.95-3.95Z" transform="translate(0 0)"/><path id="Path_309" data-name="Path 309" class="cls-7" d="M194.58,319.11h177.5V467.36l-177.5,4Z" transform="translate(0 0)"/><path id="Path_310" data-name="Path 310" class="cls-3" d="M726.08,483.61V490l-47.17-1.26v-5.15Z" transform="translate(0 0)"/><path id="Path_311" data-name="Path 311" class="cls-4" d="M788.34,312.32V485.63a4,4,0,0,1-4,3.95h0l-191.69-5.11a4,4,0,0,1-3.85-4V312.32a4,4,0,0,1,4-3.95h191.6A4,4,0,0,1,788.34,312.32Z" transform="translate(0 0)"/><path id="Path_312" data-name="Path 312" class="cls-3" d="M788.34,312.32V485.63a4,4,0,0,1-4,3.95h0V308.38h0a4,4,0,0,1,4,3.95Z" transform="translate(0 0)"/><path id="Path_313" data-name="Path 313" class="cls-7" d="M775.58,319.11H598.08V467.36l177.5,4Z" transform="translate(0 0)"/><path id="Path_314" data-name="Path 314" class="cls-4" d="M583.84,312.32v168.2a4,4,0,0,1-3.85,4l-191.65,5.1h0a4,4,0,0,1-4-3.95V312.32a4,4,0,0,1,4-3.95h191.6A4,4,0,0,1,583.84,312.32Z" transform="translate(0 0)"/><path id="Path_315" data-name="Path 315" class="cls-8" d="M397.08,319.11h177.5V467.36l-177.5,4Z" transform="translate(0 0)"/><path id="Path_316" data-name="Path 316" class="cls-3" d="M863.08,533.62v13L711.16,548l-1.62,0-57.74.53-1.38,0-17.55.15h-.52l-107,1-175.61,1.63h-.15l-44.65.42h-.48l-198.4,1.82v-15l202.51-1.33h.48l41-.29h.19l283.08-1.87h.93l4.79,0h1.46l74.49-.5,4.4,0h1Z" transform="translate(0 0)"/><circle id="Ellipse_111" data-name="Ellipse 111" class="cls-9" cx="487.25" cy="298.12" r="51.33"/><path id="Path_317" data-name="Path 317" class="cls-9" d="M538.59,377.13s-99.5,12-90,0c3.44-4.35,4.39-17.21,4.2-31.85-.06-4.45-.22-9.06-.45-13.65-1.1-22-3.75-43.5-3.75-43.5s87-41,77-8.5c-4,13.13-2.69,31.57.35,48.88.89,5.05,1.92,10,3,14.7A344.75,344.75,0,0,0,538.59,377.13Z" transform="translate(0 0)"/><path id="Path_318" data-name="Path 318" class="cls-10" d="M506.12,373.05c11.51-2.13,23.7-6,34.53-1.53,2.85,1.16,5.47,2.88,8.39,3.86s6.12,1.21,9.16,1.9c10.68,2.42,19.34,10.55,24.9,20s8.44,20.14,11.26,30.72l6.9,25.83c6,22.45,12,45.09,13.39,68.3a2434.78,2434.78,0,0,1-250.84,1.43c5.44-10.34,11-21.31,10.54-33s-7.19-23.22-4.76-34.74c1.55-7.34,6.57-13.39,9.64-20.22,8.75-19.52,1.94-45.78,17.32-60.65,6.92-6.68,17-9.21,26.63-8.89,12.28.41,24.85,4.24,37,6.11C475.74,374.53,490.44,375.93,506.12,373.05Z" transform="translate(0 0)"/><path id="Path_319" data-name="Path 319" class="cls-3" d="M637,484.22l-.1,1.43v.1l-.17,2.3-1.33,18.51-1.61,22.3-.46,6.28-1,13.44v.17l-107,1-175.59,1.9v.84h-.14v-1.11l.45-14.36.86-28.06.74-23.79.07-2.37a10.53,10.53,0,0,1,10.85-10.21l.57,0c4.72.4,10.85.89,18.18,1.41l3,.22c42.33,2.94,120.56,6.73,199.5,2,1.66-.1,3.33-.19,5-.31,12.24-.78,24.47-1.77,36.58-3A10.53,10.53,0,0,1,637,482.32a11.45,11.45,0,0,1,0,1.85Z" transform="translate(0 0)"/><path id="Path_320" data-name="Path 320" class="cls-6" d="M349.73,552.49v-.84l175.62-1.91,107-1h.3v-.16l1-13.44.43-6,1.64-22.61,1.29-17.9v-.45a10.66,10.66,0,0,0-.11-2.46v-.1a10.38,10.38,0,0,0-2-4.64,10.5,10.5,0,0,0-9.42-4c-12.11,1.24-24.34,2.23-36.58,3-1.67.12-3.34.22-5,.31-78.94,4.69-157.17.89-199.5-2l-3-.22c-7.33-.52-13.46-1-18.18-1.41A10.53,10.53,0,0,0,352,485.19a11.12,11.12,0,0,0-.18,1.64L351.12,509l-.93,28.06-.44,14.36v1.12Z" transform="translate(0 0)"/><path id="Path_321" data-name="Path 321" class="cls-3" d="M637.32,491.23l-1.23,15.34-1.83,22.84-.46,5.72-1,12.81-.06.64v.17h0l-.15,1.48.11-1.48h-.29l-107,1-175.65,1.9v-.28l.49-14.36,1-28.06.64-18.65a6.35,6.35,0,0,1,6.84-6.15c2.1.17,4.68.37,7.69.59,4.89.36,10.92.79,17.94,1.22,13,.82,29.31,1.7,48,2.42,52,2,122.2,2.67,188.88-3.17,3-.26,6.1-.55,9.13-.84a6.34,6.34,0,0,1,3.48.66,6.91,6.91,0,0,1,.86.54,6.22,6.22,0,0,1,2,2.46,4.6,4.6,0,0,1,.25.61A6.36,6.36,0,0,1,637.32,491.23Z" transform="translate(0 0)"/><path id="Path_322" data-name="Path 322" class="cls-3" d="M298.09,504.92v3.19a6.12,6.12,0,0,1-3.5,5.54l-40.1.77a6.11,6.11,0,0,1-3.57-5.57v-3Z" transform="translate(0 0)"/><path id="Path_323" data-name="Path 323" class="cls-6" d="M298.58,515.54l-52.25,1v-8.68l52.25-1Z" transform="translate(0 0)"/><path id="Path_324" data-name="Path 324" class="cls-3" d="M298.58,515.54l-52.25,1v-8.68l52.25-1Z" transform="translate(0 0)"/><path id="Path_325" data-name="Path 325" class="cls-6" d="M300.58,515.54l-52.25,1v-8.68l52.25-1Z" transform="translate(0 0)"/><path id="Path_326" data-name="Path 326" class="cls-3" d="M679.21,506.92v3.19a6.12,6.12,0,0,0,3.5,5.54l40.1.77a6.11,6.11,0,0,0,3.57-5.57v-3Z" transform="translate(0 0)"/><path id="Path_327" data-name="Path 327" class="cls-3" d="M678.71,517.54l52.25,1v-8.68l-52.25-1Z" transform="translate(0 0)"/><path id="Path_328" data-name="Path 328" class="cls-6" d="M676.71,517.54l52.25,1v-8.68l-52.25-1Z" transform="translate(0 0)"/><path id="Path_329" data-name="Path 329" class="cls-6" d="M454.78,313.85c.08,7-3.16,13.6-5.91,20.07a163.47,163.47,0,0,0-12.66,74.71c.73,11,2.58,22,.73,32.9s-8.43,21.77-19,24.9c17.53,10.45,41.26,9.35,57.76-2.66,8.79-6.4,15.34-15.33,21.75-24.11a97.9,97.9,0,0,1-13.31,44.75,103.46,103.46,0,0,0,73.51-40.82c4.31-5.81,8.06-12.19,9.72-19.23,3.09-13-1.22-26.51-4.51-39.5a266.28,266.28,0,0,1-6.17-33c-.43-3.56-.78-7.22.1-10.7,1-4.07,3.67-7.51,5.64-11.22,5.6-10.54,5.73-23.3,2.86-34.88s-8.49-22.26-14.06-32.81c-4.46-8.46-9.3-17.31-17.46-22.28-5.1-3.1-11-4.39-16.88-5.64l-25.37-5.43c-5.55-1.19-11.26-2.38-16.87-1.51-9.47,1.48-16.14,8.32-22,15.34-4.59,5.45-15.81,15.7-16.6,22.86-.72,6.59,5.1,17.63,6.09,24.58,1.3,9,2.22,6,7.3,11.51C452.65,305.1,454.72,309.05,454.78,313.85Z" transform="translate(0 0)"/></g><g id="React-icon"><path class="cls-11" d="M696.43,360.74l-9.6,16.62-9.6-16.62h-32l41.56,72,41.56-72Z" transform="translate(0 0)"/><path class="cls-12" d="M696.43,360.74l-9.6,16.62-9.6-16.62H661.89l24.94,43.19,24.94-43.19Z" transform="translate(0 0)"/></g></g><path class="cls-13" d="M294,454.24a2.49,2.49,0,0,1-1.42-.3l-4.57-2.54c-.69-.36-.35-.53-.13-.63a9.9,9.9,0,0,0,2.08-1.18.32.32,0,0,1,.34,0l3.49,2a.4.4,0,0,0,.41,0l13.19-9.34a.52.52,0,0,0,.2-.4V425.23a.47.47,0,0,0-.2-.39l-13.18-8a.42.42,0,0,0-.42,0l-13.83,9a.52.52,0,0,0-.22.42V443.6a.44.44,0,0,0,.22.39l3.86,2.11c2.07,1,3.33-.43,3.33-1.74V427.43a.43.43,0,0,1,.4-.44l1.75-.07a.4.4,0,0,1,.39.41v16.86c0,2.93-1.48,4.73-4.08,4.93a5.38,5.38,0,0,1-3.22-.7l-3.71-2a3,3,0,0,1-1.5-2.65V426.33a3.35,3.35,0,0,1,1.5-2.8l13.9-8.95a2.74,2.74,0,0,1,2.83-.05l13.13,8.05a3,3,0,0,1,1.35,2.56v16.48a3.34,3.34,0,0,1-1.35,2.7l-13.13,9.38A2.89,2.89,0,0,1,294,454.24Z" transform="translate(0 0)"/><path class="cls-13" d="M298.18,442.29c-5.89.39-7.14-2.5-7.14-5a.44.44,0,0,1,.4-.45l1.76-.1a.37.37,0,0,1,.38.34c.27,1.92,1.05,2.85,4.6,2.63,2.79-.17,4-.93,4-2.55,0-.93-.34-1.61-4.67-1.84-3.68-.2-6-1-6-4.2,0-3,2.31-4.84,6.13-5,4.24-.16,6.32,1.37,6.58,4.8a.46.46,0,0,1-.1.32.36.36,0,0,1-.27.15l-1.7.08a.36.36,0,0,1-.37-.31c-.41-2-1.41-2.59-4.14-2.48-3.08.13-3.44,1.32-3.44,2.21,0,1.06.42,1.35,4.58,1.76s6,1.12,6,4.23S302.36,442,298.18,442.29Z" transform="translate(0 0)"/><path class="cls-13" d="M316.75,424a2.72,2.72,0,0,1-2.41,2.82,2.5,2.5,0,0,1-2.44-2.65,2.72,2.72,0,0,1,2.44-2.82A2.49,2.49,0,0,1,316.75,424Zm-4.45.15a2.09,2.09,0,0,0,2,2.23,2.29,2.29,0,0,0,2-2.37,2.08,2.08,0,0,0-2-2.21A2.25,2.25,0,0,0,312.3,424.15Zm1.12-1.57.94,0c.32,0,.95,0,.95.78a.72.72,0,0,1-.51.77c.37,0,.39.29.45.68a2.88,2.88,0,0,0,.14.8l-.58,0c0-.14-.1-.92-.1-1s-.09-.26-.28-.25H314v1.23l-.53,0Zm.52,1.33h.42a.41.41,0,0,0,.41-.45c0-.42-.25-.41-.39-.41l-.44,0Z" transform="translate(0 0)"/><path class="cls-14" d="M249,386.62a2.12,2.12,0,0,0-1-1.8l-17.16-10.49a2.23,2.23,0,0,0-1-.32h-.18a2.11,2.11,0,0,0-1,.23l-18.25,9.39a2.06,2.06,0,0,0-1.13,1.84l0,27.67a1,1,0,0,0,.57.92,1.12,1.12,0,0,0,1.12,0l11-6.11a2.12,2.12,0,0,0,1.09-1.84V393.43a2.05,2.05,0,0,1,1.09-1.81l4.52-2.43a2,2,0,0,1,1.07-.26,2.11,2.11,0,0,1,1.06.31l4.43,2.61a2.1,2.1,0,0,1,1.05,1.81v12.4a2.08,2.08,0,0,0,1,1.79l10.09,5.67a1,1,0,0,0,1,0,1,1,0,0,0,.5-.88Z" transform="translate(0 0)"/><path class="cls-14" d="M319.89,357a.7.7,0,0,0-.78-.06.84.84,0,0,0-.39.74v22.87a.64.64,0,0,1-.28.54.5.5,0,0,1-.55,0l-3.32-2.3a1.46,1.46,0,0,0-1.61-.08L299.23,387a1.82,1.82,0,0,0-.85,1.59v17.84a1.88,1.88,0,0,0,.85,1.61L313,416.63a1.45,1.45,0,0,0,1.61,0l13-8.75a1.81,1.81,0,0,0,.77-1.53V364.15a2,2,0,0,0-.79-1.6Zm-1.21,43.67a.47.47,0,0,1-.2.39L313.93,404a.36.36,0,0,1-.4,0l-4.63-3a.47.47,0,0,1-.2-.39v-6a.48.48,0,0,1,.2-.4l4.63-2.89a.35.35,0,0,1,.4,0l4.55,3.06a.51.51,0,0,1,.2.4Z" transform="translate(0 0)"/><path class="cls-14" d="M360.23,395.38a1.74,1.74,0,0,0,.67-1.43V390.1a1.85,1.85,0,0,0-.67-1.46l-11.41-8.49a1.22,1.22,0,0,0-1.42-.07l-12.07,7.78a1.74,1.74,0,0,0-.74,1.49v16.71a1.83,1.83,0,0,0,.75,1.52l12,7.94a1.25,1.25,0,0,0,1.4,0l7-4.79A.91.91,0,0,0,356,410a.88.88,0,0,0-.35-.74l-11.75-8.11a.89.89,0,0,1-.37-.75v-5.15a.86.86,0,0,1,.37-.73l3.71-2.48a.62.62,0,0,1,.71,0l3.66,2.62a.94.94,0,0,1,.35.74v4a.88.88,0,0,0,.35.73.57.57,0,0,0,.69,0Z" transform="translate(0 0)"/><path class="cls-15" d="M347.94,394.39a.23.23,0,0,1,.27,0l2.25,1.6a.34.34,0,0,1,.13.28v3.11a.33.33,0,0,1-.13.28l-2.25,1.54a.22.22,0,0,1-.27,0l-2.27-1.58a.37.37,0,0,1-.14-.29V396.2a.37.37,0,0,1,.14-.29Z" transform="translate(0 0)"/><path class="cls-16" d="M275.61,376.79a1.77,1.77,0,0,0-1.84-.09l-15.66,8.76a1.93,1.93,0,0,0-1,1.69v19a2,2,0,0,0,1,1.71l15.66,9.18a1.77,1.77,0,0,0,1.84,0l14.78-9.31a1.92,1.92,0,0,0,.87-1.63v-18a2,2,0,0,0-.87-1.65Z" transform="translate(0 0)"/><g class="cls-17"><path class="cls-18" d="M273.74,376.7,258,385.46a2,2,0,0,0-1,1.69v19a1.92,1.92,0,0,0,.51,1.26l17.61-30.88A1.79,1.79,0,0,0,273.74,376.7Z" transform="translate(0 0)"/><path class="cls-18" d="M275.2,417.24a1.82,1.82,0,0,0,.43-.19l14.8-9.31a2,2,0,0,0,.91-1.63v-18a2,2,0,0,0-.53-1.33Z" transform="translate(0 0)"/><path class="cls-19" d="M290.42,386.48l-14.83-9.69a1.82,1.82,0,0,0-.47-.22l-17.61,30.88a1.94,1.94,0,0,0,.54.45l15.73,9.18a1.73,1.73,0,0,0,1.42.16l15.61-30.43A2.44,2.44,0,0,0,290.42,386.48Z" transform="translate(0 0)"/><path class="cls-18" d="M291.34,406.11v-18a2,2,0,0,0-.92-1.66l-14.83-9.69a1.64,1.64,0,0,0-.56-.24l16.25,30A2,2,0,0,0,291.34,406.11Z" transform="translate(0 0)"/><path class="cls-18" d="M258,385.46a2,2,0,0,0-1,1.69v19a2,2,0,0,0,1.05,1.71l15.73,9.18a1.75,1.75,0,0,0,1.18.22l-16.82-31.9Z" transform="translate(0 0)"/><polygon class="cls-20" points="273.26 373.28 273.05 373.39 273.33 373.41 273.26 373.28"/><path class="cls-21" d="M290.43,407.74a2,2,0,0,0,.85-1.2l-16.25-30a1.71,1.71,0,0,0-1.29.15l-15.6,8.7L275,417.3a1.88,1.88,0,0,0,.67-.25Z" transform="translate(0 0)"/><polygon class="cls-22" points="291.77 407.44 291.68 407.27 291.68 407.5 291.77 407.44"/><path class="cls-23" d="M290.43,407.74l-14.8,9.31a1.88,1.88,0,0,1-.67.25l.3.57,16.42-10.36v-.24l-.4-.73A2,2,0,0,1,290.43,407.74Z" transform="translate(0 0)"/><path class="cls-24" d="M290.43,407.74l-14.8,9.31a1.88,1.88,0,0,1-.67.25l.3.57,16.42-10.36v-.24l-.4-.73A2,2,0,0,1,290.43,407.74Z" transform="translate(0 0)"/></g></svg>