<svg xmlns="http://www.w3.org/2000/svg" xmlns:xlink="http://www.w3.org/1999/xlink" width="300" height="300" version="1.1" viewBox="0 0 300 300"><title>Group</title><desc>Created with Sketch.</desc><defs><polygon id="path-1" points=".034 0 300 0 300 300 .034 300"/><polygon id="path-3" points=".034 0 60.996 0 60.996 300 .034 300"/><polygon id="path-5" points=".034 .022 211.745 .022 211.745 176.489 .034 176.489"/><polygon id="path-7" points=".034 .31 211.273 .31 211.273 269.741 .034 269.741"/><polygon id="path-9" points=".034 .483 201.97 .483 201.97 79.491 .034 79.491"/><polygon id="path-11" points=".034 .371 51.485 .371 51.485 100.229 .034 100.229"/></defs><g id="Page-1" fill="none" fill-rule="evenodd" stroke="none" stroke-width="1" opacity=".1"><g id="shutterstock_1226183854"><g id="Group"><g id="Group-5"><mask id="mask-2" fill="#fff"><use xlink:href="#path-1"/></mask><polyline id="Fill-3" fill="#FFF" points="4.847 289.897 9.04 300 8.582 300 4.684 290.608 0 294.755 0 294.189 4.625 290.094 4.847 289.897" mask="url(#mask-2)"/><polyline id="Fill-4" fill="#FFF" points="5.045 290.289 0 294.755 0 294.189 4.487 290.216 0 283.469 0 282.705 4.942 290.135 5.045 290.289" mask="url(#mask-2)"/></g><polyline id="Fill-6" fill="#FFF" points="300 294.755 294.076 300 293.437 300 300 294.189 300 294.755"/><polyline id="Fill-7" fill="#FFF" points="300 294.755 294.077 300 293.437 300 300 294.189 300 294.755"/><polyline id="Fill-8" fill="#FFF" points="284.55 259.476 300 282.705 300 283.47 284.589 260.298 263.229 300 262.749 300 284.55 259.476"/><polyline id="Fill-9" fill="#FFF" points="263.229 300 262.749 300 283.932 260.624 230.921 300 230.211 300 285.206 259.15 263.229 300"/><polyline id="Fill-10" fill="#FFF" points="230.069 270.875 285.463 259.487 230.922 300 230.211 300 283.675 260.287 230.343 271.251 213.985 300 213.497 300 230.022 270.959 230.069 270.875"/><polyline id="Fill-11" fill="#FFF" points="213.985 300 213.497 300 229.589 271.72 186.314 300 185.54 300 230.824 270.407 213.985 300"/><polyline id="Fill-12" fill="#FFF" points="230.7 270.994 186.315 300 185.54 300 229.712 271.133 188.73 258.532 162.464 300 161.962 300 188.545 258.032 230.7 270.994"/><polyline id="Fill-13" fill="#FFF" points="172.514 262.908 189.12 257.916 162.464 300 161.962 300 188.155 258.649 172.825 263.257 157.048 300 156.587 300 172.475 262.999 172.514 262.908"/><polyline id="Fill-14" fill="#FFF" points="15.723 300 15.095 300 5.329 291.058 9.05 300 8.592 300 4.201 289.451 15.723 300"/><polyline id="Fill-15" fill="#FFF" points="132.358 300 131.884 300 113.637 263.835 110.498 300 110.072 300 113.343 262.314 132.358 300"/><polyline id="Fill-16" fill="#FFF" points="172.991 262.871 157.049 300 156.587 300 172.348 263.294 113.834 263.286 132.358 300 131.884 300 113.146 262.863 172.991 262.871"/><polyline id="Fill-17" fill="#FFF" points="110.497 300 110.072 300 113.226 263.666 79.134 300 78.553 300 113.754 262.484 110.497 300"/><polyline id="Fill-18" fill="#FFF" points="60.537 293.291 114.619 262.18 79.133 300 78.553 300 112.36 263.969 60.896 293.573 58.995 300 58.553 300 60.514 293.372 60.537 293.291"/><g id="Group-28"><mask id="mask-4" fill="#fff"><use xlink:href="#path-3"/></mask><polyline id="Fill-19" fill="#FFF" points="4.183 290.01 60.729 293.221 60.996 293.236 58.995 300 58.553 300 60.438 293.629 5.346 290.5 15.723 300 15.095 300 4.622 290.411 4.183 290.01" mask="url(#mask-4)"/><polyline id="Fill-21" fill="#FFF" points="0 283.468 0 282.703 4.363 289.263 0 266.294 0 264.024 5.17 291.242 0 283.468" mask="url(#mask-4)"/><polyline id="Fill-22" fill="#FFF" points="0 192.145 0 191.373 18.871 162.629 0 157.554 0 157.115 19.547 162.371 0 192.145" mask="url(#mask-4)"/><polyline id="Fill-23" fill="#FFF" points="19.384 162.767 0 157.554 0 157.115 19.034 162.233 23.704 130.757 0 143.697 0 143.214 24.248 129.977 19.384 162.767" mask="url(#mask-4)"/><polyline id="Fill-24" fill="#FFF" points="24.261 130.453 0 143.697 0 143.214 23.691 130.281 0 85.555 0 84.649 24.163 130.268 24.261 130.453" mask="url(#mask-4)"/><polyline id="Fill-25" fill="#FFF" points="27.779 43.755 0 71.533 0 70.934 26.459 44.475 0 50.221 0 49.788 27.073 43.908 27.779 43.755" mask="url(#mask-4)"/><polyline id="Fill-26" fill="#FFF" points="27.164 44.322 0 50.221 0 49.788 23.848 44.608 0 46.656 0 46.231 27.101 43.904 27.164 44.322" mask="url(#mask-4)"/><polyline id="Fill-27" fill="#FFF" points="0 46.656 0 46.231 26.812 43.929 8.582 0 9.04 0 27.425 44.301 0 46.656" mask="url(#mask-4)"/></g><path id="Fill-29" fill="#FFF" d="M126.613559,173.7 L150.20791,214.596045 L165.936723,167.408475 L126.613559,173.7 Z M126.09322,173.645763 L125.939548,173.379096 L166.559887,166.879661 L150.311864,215.624294 L126.09322,173.645763 L126.09322,173.645763 Z"/><path id="Fill-30" fill="#FFF" d="M166.372316,167.442373 L150.775141,214.234463 L185.089266,176.801695 L166.372316,167.442373 Z M166.124294,166.845198 L185.529944,176.548023 L185.781356,176.673446 L149.744633,215.985876 L166.124294,166.845198 L166.124294,166.845198 Z"/><path id="Fill-31" fill="#FFF" d="M102.662147,208.550282 L149.861017,214.842938 L126.261582,173.937288 L102.662147,208.550282 Z M102.265537,208.924859 L101.924859,208.879096 L126.291525,173.141808 L150.658192,215.377401 L102.265537,208.924859 L102.265537,208.924859 Z"/><path id="Fill-32" fill="#FFF" d="M150.678531,214.967232 L196.345198,222.840678 L185.322599,177.174011 L150.678531,214.967232 Z M150.224294,215.318644 L149.841243,215.253107 L185.279096,176.59435 L185.547458,176.30113 L196.908475,223.367797 L150.224294,215.318644 L150.224294,215.318644 Z"/><path id="Fill-33" fill="#FFF" d="M102.561017,208.963842 L113.6,262.579096 L149.868927,215.271751 L102.561017,208.963842 Z M102.025989,208.464972 L150.650847,214.948588 L113.654237,263.205085 L113.371751,263.572881 L102.025989,208.464972 L102.025989,208.464972 Z"/><path id="Fill-34" fill="#FFF" d="M142.316949,119.754237 L126.574576,173.277401 L165.929944,166.980791 L142.316949,119.754237 Z M142.214124,118.601695 L166.567232,167.307345 L125.978531,173.801695 L142.214124,118.601695 L142.214124,118.601695 Z"/><path id="Fill-35" fill="#FFF" d="M166.79548,167.180226 L185.410169,176.488136 L221.088136,148.565537 L166.79548,167.180226 Z M165.701695,167.107345 L223.329944,147.349153 L185.565537,176.903955 L185.460452,176.987006 L165.701695,167.107345 L165.701695,167.107345 Z"/><path id="Fill-36" fill="#FFF" d="M126.488701,122.549718 L126.488701,172.068362 L141.963277,119.454237 L126.488701,122.549718 Z M126.064972,122.201695 L142.567797,118.901695 L126.064972,175.010734 L126.064972,122.201695 L126.064972,122.201695 Z"/><path id="Fill-37" fill="#FFF" d="M54.9841808,125.756497 L126.064972,173.143503 L126.064972,122.597175 L54.9841808,125.756497 Z M53.6711864,125.390395 L126.267232,122.163842 L126.488701,122.154237 L126.488701,173.935593 L53.6711864,125.390395 L53.6711864,125.390395 Z"/><path id="Fill-38" fill="#FFF" d="M150.623164,215.387571 L172.667797,262.625424 L196.286441,223.260452 L150.623164,215.387571 Z M149.89661,214.832768 L196.967797,222.948023 L172.825989,263.185311 L172.620904,263.526554 L149.89661,214.832768 L149.89661,214.832768 Z"/><path id="Fill-39" fill="#FFF" d="M196.126554,224.350282 L173.107345,262.715819 L188.453672,258.112429 L196.126554,224.350282 Z M197.127119,221.858757 L188.811864,258.446893 L172.180791,263.436158 L197.127119,221.858757 L197.127119,221.858757 Z"/><path id="Fill-40" fill="#FFF" d="M150.215254,215.516384 L113.915254,262.864407 L172.311299,262.864407 L150.215254,215.516384 Z M150.30452,214.703955 L172.976836,263.288136 L113.056497,263.288136 L150.30452,214.703955 L150.30452,214.703955 Z"/><path id="Fill-41" fill="#FFF" d="M185.724859,177.035593 L196.772881,222.803955 L255.167232,195.974576 L185.724859,177.035593 Z M185.145198,176.438983 L256.403955,195.872881 L196.481356,223.40452 L185.145198,176.438983 L185.145198,176.438983 Z"/><path id="Fill-42" fill="#FFF" d="M196.784181,223.369492 L188.931073,257.922599 L240.761017,235.934463 L196.784181,223.369492 Z M196.470056,222.838983 L242.029944,235.856497 L188.334463,258.636723 L196.470056,222.838983 L196.470056,222.838983 Z"/><path id="Fill-43" fill="#FFF" d="M142.69209,119.556497 L166.354802,166.883616 L221.570056,147.952542 L142.69209,119.556497 Z M141.839548,118.799435 L222.280791,147.758192 L222.848023,147.962712 L166.141808,167.40452 L141.839548,118.799435 L141.839548,118.799435 Z"/><path id="Fill-44" fill="#FFF" d="M48.6870056,183.253107 L102.220339,208.445763 L125.837853,173.80678 L48.6870056,183.253107 Z M47.1774011,183.011864 L126.715254,173.272316 L102.468362,208.833898 L102.367232,208.983051 L47.1774011,183.011864 L47.1774011,183.011864 Z"/><path id="Fill-45" fill="#FFF" d="M64.3158192,242.227119 L113.197175,262.724859 L102.159322,209.113559 L64.3158192,242.227119 Z M63.5254237,242.355367 L102.427684,208.315819 L113.774576,263.427119 L63.5254237,242.355367 L63.5254237,242.355367 Z"/><path id="Fill-46" fill="#FFF" d="M48.2559322,183.519209 L64.0367232,241.908475 L101.910169,208.768927 L48.2559322,183.519209 Z M47.7271186,183.187571 L47.6084746,182.745763 L102.384181,208.523164 L102.676836,208.660452 L63.8050847,242.674011 L47.7271186,183.187571 L47.7271186,183.187571 Z"/><path id="Fill-47" fill="#FFF" d="M197.235593,223.058192 L241.263277,235.637288 L255.415254,196.327119 L197.235593,223.058192 Z M196.018644,223.150847 L256.155932,195.520339 L241.594915,235.967232 L241.527684,236.153672 L196.018644,223.150847 L196.018644,223.150847 Z"/><path id="Fill-48" fill="#FFF" d="M185.898305,176.644068 L255.275706,195.564972 L222.163277,148.262147 L185.898305,176.644068 Z M184.972316,176.830508 L222.254802,147.653107 L256.294915,196.282486 L184.972316,176.830508 L184.972316,176.830508 Z"/><path id="Fill-49" fill="#FFF" d="M151.338418,74.2813559 L126.666667,122.081921 L142.086441,118.99774 L151.338418,74.2813559 Z M152.379096,71.340113 L142.444633,119.358192 L125.886441,122.670056 L152.379096,71.340113 L152.379096,71.340113 Z"/><path id="Fill-50" fill="#FFF" d="M142.70226,119.109605 L221.951412,147.639548 L210.856497,66.8056497 L142.70226,119.109605 Z M141.828814,119.245763 L211.177401,66.0254237 L222.466667,148.275141 L141.828814,119.245763 L141.828814,119.245763 Z"/><path id="Fill-51" fill="#FFF" d="M92.6988701,93.8734463 L54.9463277,125.333898 L125.732203,122.188136 L92.6988701,93.8734463 Z M92.5649718,93.4333333 L92.7022599,93.3186441 L126.821469,122.563842 L53.7090395,125.812994 L92.5649718,93.4333333 L92.5649718,93.4333333 Z"/><path id="Fill-52" fill="#FFF" d="M54.5,125.942938 L48.1723164,182.889831 L125.683616,173.39887 L54.5,125.942938 Z M54.1169492,125.550282 L54.1553672,125.203955 L126.870056,173.680226 L47.6920904,183.375141 L54.1169492,125.550282 L54.1169492,125.550282 Z"/><path id="Fill-53" fill="#FFF" d="M93.1169492,93.6740113 L126.211299,122.040678 L151.425989,73.1875706 L93.1169492,93.6740113 Z M92.2841808,93.5180791 L151.788136,72.6107345 L152.291525,72.4338983 L126.464972,122.472881 L126.342373,122.710734 L92.2841808,93.5180791 L92.2841808,93.5180791 Z"/><path id="Fill-54" fill="#FFF" d="M189.250282,258.248023 L230.064972,270.806215 L241.053672,236.270621 L189.250282,258.248023 Z M188.015254,258.311864 L241.312994,235.700565 L241.737288,235.520339 L230.341808,271.335028 L188.015254,258.311864 L188.015254,258.311864 Z"/><path id="Fill-55" fill="#FFF" d="M241.518644,236.20678 L230.514689,270.790395 L283.962712,259.786441 L241.518644,236.20678 Z M241.272316,235.584181 L285.167797,259.970621 L229.89209,271.350847 L241.272316,235.584181 L241.272316,235.584181 Z"/><path id="Fill-56" fill="#FFF" d="M211.345763,67.2548023 L222.342938,147.374576 L244.336723,114.384181 L211.345763,67.2548023 Z M210.688136,65.5757062 L244.849718,114.378531 L222.075141,148.540113 L210.688136,65.5757062 L210.688136,65.5757062 Z"/><path id="Fill-57" fill="#FFF" d="M222.640113,148.203955 L255.776271,195.540678 L282.6,152.937853 L222.640113,148.203955 Z M221.777966,147.710734 L283.332203,152.570621 L255.794915,196.30678 L221.777966,147.710734 L221.777966,147.710734 Z"/><path id="Fill-58" fill="#FFF" d="M64.1135593,242.601695 L60.959322,293.074576 L113.00904,263.10565 L64.1135593,242.601695 Z M63.7096045,242.277966 L63.7276836,241.980791 L113.962712,263.046328 L60.8293785,293.638418 L60.4875706,293.835028 L63.7096045,242.277966 L63.7096045,242.277966 Z"/><path id="Fill-59" fill="#FFF" d="M105.622599,55.499435 L93.0384181,93.2531073 L151.241243,72.8028249 L105.622599,55.499435 Z M105.290395,55.1559322 L105.359887,54.9468927 L152.476271,72.8186441 L92.3627119,93.939548 L105.290395,55.1559322 L105.290395,55.1559322 Z"/><path id="Fill-60" fill="#FFF" d="M51.3655367,100.169492 L54.4898305,125.162712 L91.979661,93.9214689 L51.3655367,100.169492 Z M50.8943503,99.8129944 L93.4214689,93.2706215 L54.1655367,125.984746 L50.8943503,99.8129944 L50.8943503,99.8129944 Z"/><path id="Fill-61" fill="#FFF" d="M50.9774011,100.479661 L24.5033898,130.067797 L54.0920904,125.396045 L50.9774011,100.479661 Z M50.9723164,99.8502825 L51.2819209,99.5033898 L54.5632768,125.750847 L23.3943503,130.672316 L50.9723164,99.8502825 L50.9723164,99.8502825 Z"/><g id="Group-67" transform="translate(0.000000, 66.101695)"><mask id="mask-6" fill="#fff"><use xlink:href="#path-5"/></mask><path id="Fill-62" fill="#FFF" d="M19.4740113,96.2169492 L47.7615819,116.646328 L54.0480226,60.0706215 L19.4740113,96.2169492 Z M18.8316384,96.2751412 L54.6073446,58.8728814 L48.1028249,117.415254 L18.8316384,96.2751412 L18.8316384,96.2751412 Z" mask="url(#mask-6)"/><polyline id="Fill-64" fill="#FFF" points="48.343 117.066 0 140.618 0 140.147 47.521 116.995 19.208 96.547 0 125.817 0 125.045 19.097 95.945 48.343 117.066" mask="url(#mask-6)"/><path id="Fill-65" fill="#FFF" d="M152.035028,6.90282486 L142.588136,52.5615819 L210.288701,0.605649718 L152.035028,6.90282486 Z M151.682486,6.51525424 L211.745198,0.0220338983 L141.942938,53.5909605 L151.682486,6.51525424 L151.682486,6.51525424 Z" mask="url(#mask-6)"/><polyline id="Fill-66" fill="#FFF" points="48.057 116.681 64.125 176.134 64.221 176.489 0 159.363 0 158.924 63.62 175.89 47.807 117.381 0 151.528 0 151.008 47.809 116.859 48.057 116.681" mask="url(#mask-6)"/></g><path id="Fill-68" fill="#FFF" d="M24.1355932,130.555367 L19.4610169,161.718644 L53.740678,125.880791 L24.1355932,130.555367 Z M23.7627119,130.184746 L54.9146893,125.266667 L19.3056497,162.493785 L18.8440678,162.976836 L23.7627119,130.184746 L23.7627119,130.184746 Z"/><path id="Fill-69" fill="#FFF" d="M222.585876,147.774576 L282.410169,152.49774 L244.625989,114.714124 L222.585876,147.774576 Z M221.832768,148.140113 L244.560452,114.049153 L283.522599,153.010734 L221.832768,148.140113 L221.832768,148.140113 Z"/><path id="Fill-70" fill="#FFF" d="M241.680791,235.728249 L279.385876,242.012429 L255.820339,196.452542 L241.680791,235.728249 Z M241.360452,236.10452 L241.110169,236.062712 L255.750847,195.39548 L280.150847,242.570056 L241.360452,236.10452 L241.360452,236.10452 Z"/><path id="Fill-71" fill="#FFF" d="M50.1242938,31.7248588 L92.6338983,93.1271186 L105.228814,55.3412429 L50.1242938,31.7248588 Z M48.9378531,30.7553672 L105.574576,55.0282486 L105.754237,55.1050847 L92.7672316,94.0649718 L48.9378531,30.7553672 L48.9378531,30.7553672 Z"/><path id="Fill-72" fill="#FFF" d="M201.768362,22.2446328 L211.162147,66.0813559 L234.646328,51.9903955 L201.768362,22.2446328 Z M201.079096,21.0491525 L235.142373,51.8683616 L235.354237,52.059887 L210.871751,66.7491525 L201.079096,21.0491525 L201.079096,21.0491525 Z"/><path id="Fill-73" fill="#FFF" d="M211.40339,66.5977401 L244.09548,113.30113 L231.641243,65.0412429 L211.40339,66.5977401 Z M210.630508,66.2327684 L231.963277,64.5915254 L245.09096,115.461582 L210.630508,66.2327684 L210.630508,66.2327684 Z"/><path id="Fill-74" fill="#FFF" d="M234.670621,52.4706215 L211.89548,66.1355932 L231.633898,64.6169492 L234.670621,52.4706215 Z M235.329944,51.580226 L231.970621,65.0158192 L210.138418,66.6954802 L235.329944,51.580226 L235.329944,51.580226 Z"/><path id="Fill-75" fill="#FFF" d="M242.571186,236.306215 L284.228249,259.449718 L279.599435,242.477401 L242.571186,236.306215 Z M240.220339,235.485311 L279.802825,242.081921 L279.936723,242.10452 L284.901695,260.30791 L240.220339,235.485311 L240.220339,235.485311 Z"/><g id="Group-81" transform="translate(0.000000, 20.903955)"><mask id="mask-8" fill="#fff"><use xlink:href="#path-7"/></mask><path id="Fill-76" fill="#FFF" d="M201.3,1.17570621 L152.418644,51.6333333 L210.760452,45.3259887 L201.3,1.17570621 Z M201.547458,0.310169492 L211.273446,45.6966102 L151.29887,52.180226 L201.547458,0.310169492 L201.547458,0.310169492 Z" mask="url(#mask-8)"/><polyline id="Fill-78" fill="#FFF" points="64.377 221.29 4.621 269.741 0 245.481 0 243.216 4.905 268.965 63.464 221.485 0 204.56 0 204.122 63.975 221.182 64.377 221.29" mask="url(#mask-8)"/><path id="Fill-79" fill="#FFF" d="M105.935028,34.2610169 L151.6,51.5819209 L145.301695,5.91751412 L105.935028,34.2610169 Z M105.048023,34.3774011 L145.625424,5.16214689 L152.117514,52.2316384 L105.048023,34.3774011 L105.048023,34.3774011 Z" mask="url(#mask-8)"/><polyline id="Fill-80" fill="#FFF" points="48.055 162.401 0 196.726 0 196.206 45.748 163.528 0 185.816 0 185.345 47.84 162.038 48.055 162.401" mask="url(#mask-8)"/></g><path id="Fill-82" fill="#FFF" d="M5.32146893,290.076271 L60.5254237,293.231073 L63.679096,242.759887 L5.32146893,290.076271 Z M4.75028249,290.468362 L4.20338983,290.437288 L64.1621469,241.822599 L60.9214689,293.677966 L4.75028249,290.468362 L4.75028249,290.468362 Z"/><g id="Group-86" transform="translate(0.000000, 20.903955)"><mask id="mask-10" fill="#fff"><use xlink:href="#path-9"/></mask><path id="Fill-83" fill="#FFF" d="M145.703955,5.73163842 L152.00904,51.4468927 L200.877401,1.00225989 L145.703955,5.73163842 Z M145.253672,5.56836158 L145.223164,5.34745763 L201.970056,0.483050847 L151.708475,52.3666667 L145.253672,5.56836158 L145.253672,5.56836158 Z" mask="url(#mask-10)"/><polyline id="Fill-85" fill="#FFF" points="27.219 22.756 51.533 79.491 0 57.405 0 56.944 50.727 78.684 27.075 23.498 0 50.574 0 49.974 26.997 22.977 27.219 22.756" mask="url(#mask-10)"/></g><path id="Fill-87" fill="#FFF" d="M49.759322,31.9418079 L51.3361582,99.7451977 L92.3338983,93.4384181 L49.759322,31.9418079 Z M49.3028249,30.5384181 L92.8751412,93.4757062 L93.0677966,93.7536723 L50.9237288,100.237288 L49.3028249,30.5384181 L49.3028249,30.5384181 Z"/><g id="Group-91" transform="translate(0.000000, 30.508475)"><mask id="mask-12" fill="#fff"><use xlink:href="#path-11"/></mask><path id="Fill-88" fill="#FFF" d="M27.4158192,13.6129944 L50.8926554,68.3915254 L49.3276836,1.0920904 L27.4158192,13.6129944 Z M26.8774011,13.4322034 L49.7344633,0.371186441 L51.3672316,70.5745763 L26.8774011,13.4322034 L26.8774011,13.4322034 Z" mask="url(#mask-12)"/><polyline id="Fill-90" fill="#FFF" points="51.485 69.405 24.107 100.003 23.905 100.229 0 55.077 0 54.171 23.994 99.494 50.775 69.562 0 47.801 0 47.34 51.213 69.288 51.485 69.405" mask="url(#mask-12)"/></g><path id="Fill-92" fill="#FFF" d="M256.080791,195.851977 L285.458192,213.177966 L282.784746,153.440113 L256.080791,195.851977 Z M255.489831,195.99548 L283.147458,152.068362 L285.916384,213.940678 L255.489831,195.99548 L255.489831,195.99548 Z"/><path id="Fill-93" fill="#FFF" d="M256.311864,196.480226 L279.681921,241.662147 L285.449153,213.664407 L256.311864,196.480226 Z M255.259322,195.367797 L285.794915,213.376836 L285.925424,213.454237 L279.975706,242.333898 L279.844633,242.9 L255.259322,195.367797 L255.259322,195.367797 Z"/><path id="Fill-94" fill="#FFF" d="M285.792655,214.09887 L280.20904,241.20113 L291.743503,223.025424 L285.792655,214.09887 Z M285.581921,213.019774 L292.249153,223.019774 L279.327684,243.381356 L285.581921,213.019774 L285.581921,213.019774 Z"/><path id="Fill-95" fill="#FFF" d="M279.997175,242.325989 L284.533898,258.959887 L291.562712,224.10113 L279.997175,242.325989 Z M279.539548,242.256497 L292.429944,221.944068 L284.596045,260.797175 L279.539548,242.256497 L279.539548,242.256497 Z"/><polyline id="Fill-96" fill="#FFF" points="292.002 221.92 300 264.023 300 266.294 291.99 224.125 284.79 259.834 300 282.703 300 283.468 284.34 259.923 292.002 221.92"/><polyline id="Fill-97" fill="#FFF" points="282.742 152.475 300 157.115 300 157.554 283.191 153.034 285.869 212.895 300 191.372 300 192.145 285.505 214.223 282.742 152.475"/><polyline id="Fill-98" fill="#FFF" points="300 143.214 300 143.697 283.532 152.687 300 157.115 300 157.554 282.401 152.821 300 143.214"/><polyline id="Fill-99" fill="#FFF" points="295.088 75.377 300 84.65 300 85.555 295.307 76.695 283.244 152.362 300 143.214 300 143.697 282.689 153.147 295.088 75.377"/><path id="Fill-100" fill="#FFF" d="M244.915254,114.40339 L282.822599,152.310734 L294.90565,76.5231638 L244.915254,114.40339 Z M244.271751,114.359322 L295.489831,75.5485876 L283.109605,153.19774 L244.271751,114.359322 L244.271751,114.359322 Z"/><path id="Fill-101" fill="#FFF" d="M232.089831,65.0824859 L244.718644,114.020339 L294.683051,76.159887 L232.089831,65.0824859 Z M231.514689,64.5502825 L295.712429,75.9118644 L244.721469,114.550282 L244.467797,114.742373 L231.514689,64.5502825 L231.514689,64.5502825 Z"/><polyline id="Fill-102" fill="#FFF" points="230.706 64.838 300 49.788 300 50.221 232.898 64.795 295.126 75.808 300 70.934 300 71.533 295.269 76.264 230.706 64.838"/><polyline id="Fill-103" fill="#FFF" points="231.514 65.096 234.831 51.827 300 46.231 300 46.656 235.169 52.223 232.09 64.537 300 49.788 300 50.221 231.847 65.024 231.514 65.096"/><polyline id="Fill-104" fill="#FFF" points="293.437 0 294.077 0 235.62 51.759 300 46.231 300 46.656 234.38 52.292 293.437 0"/><polyline id="Fill-105" fill="#FFF" points="262.749 0 263.229 0 235.75 51.078 293.437 0 294.077 0 234.25 52.973 262.749 0"/><polyline id="Fill-106" fill="#FFF" points="201.09 21.631 230.211 0 230.921 0 201.757 21.663 234.942 51.687 262.749 0 263.23 0 235.059 52.364 201.09 21.631"/><polyline id="Fill-107" fill="#FFF" points="213.497 0 213.985 0 202.106 20.876 230.211 0 230.921 0 200.742 22.418 213.497 0"/><polyline id="Fill-108" fill="#FFF" points="201.553 21.849 144.644 26.727 185.54 0 186.315 0 146.284 26.16 201.295 21.445 213.497 0 213.985 0 201.608 21.751 201.553 21.849"/><polyline id="Fill-109" fill="#FFF" points="161.962 0 162.464 0 146.165 25.732 185.54 0 186.315 0 144.762 27.155 161.962 0"/><polyline id="Fill-110" fill="#FFF" points="145.269 26.36 156.587 0 157.048 0 146.707 24.084 161.962 0 162.464 0 145.642 26.557 145.269 26.36"/><polyline id="Fill-111" fill="#FFF" points="49.889 31.28 27.044 44.334 8.592 0 9.05 0 27.25 43.728 49.173 31.201 15.095 0 15.723 0 49.674 31.084 49.889 31.28"/><polyline id="Fill-112" fill="#FFF" points="145.734 26.51 105.24 55.665 110.072 0 110.497 0 105.742 54.781 145.193 26.377 131.884 0 132.358 0 145.653 26.348 145.734 26.51"/><polyline id="Fill-113" fill="#FFF" points="131.884 0 132.358 0 145.448 25.942 156.588 0 157.048 0 145.479 26.945 131.884 0"/><polyline id="Fill-114" fill="#FFF" points="49.169 31.316 78.553 0 79.133 0 49.893 31.164 105.306 54.913 110.072 0 110.497 0 105.677 55.533 49.169 31.316"/><polyline id="Fill-115" fill="#FFF" points="49.075 32.036 58.553 0 58.995 0 49.987 30.444 78.553 0 79.133 0 49.685 31.385 49.075 32.036"/><polyline id="Fill-116" fill="#FFF" points="15.095 0 15.723 0 49.424 30.855 58.553 0 58.995 0 49.638 31.625 15.095 0"/><polyline id="Fill-117" fill="#FFF" points="300 191.146 300 191.918 286.176 212.983 300 206.249 300 206.72 284.977 214.04 300 191.146"/><polyline id="Fill-118" fill="#FFF" points="300 217.11 300 217.63 292.46 223.015 300 225.026 300 225.464 291.483 223.193 300 217.11"/><polyline id="Fill-119" fill="#FFF" points="300 225.025 300 225.465 292.243 223.396 300 264.12 300 266.384 291.701 222.812 300 225.025"/><polyline id="Fill-120" fill="#FFF" points="291.917 223.404 285.266 213.427 300 206.249 300 206.72 285.888 213.596 292.027 222.805 300 217.11 300 217.63 292.095 223.276 291.917 223.404"/><polyline id="Fill-121" fill="#FFF" points="300 70.879 300 71.478 295.541 75.937 300 77.848 300 78.309 294.798 76.08 300 70.879"/><polyline id="Fill-122" fill="#FFF" points="300 77.849 300 78.309 295.637 76.44 300 84.68 300 85.585 294.702 75.578 300 77.849"/><path id="Fill-123" fill="#FFF" d="M7.14519774,290.447458 C7.14519774,291.724294 6.11016949,292.759887 4.83333333,292.759887 C3.55649718,292.759887 2.52146893,291.724294 2.52146893,290.447458 C2.52146893,289.170621 3.55649718,288.135593 4.83333333,288.135593 C6.11016949,288.135593 7.14519774,289.170621 7.14519774,290.447458"/><path id="Fill-124" fill="#FFF" d="M66.3553672,242.460452 C66.3553672,243.737288 65.320339,244.772881 64.0429379,244.772881 C62.7661017,244.772881 61.7310734,243.737288 61.7310734,242.460452 C61.7310734,241.183616 62.7661017,240.148588 64.0429379,240.148588 C65.320339,240.148588 66.3553672,241.183616 66.3553672,242.460452"/><path id="Fill-125" fill="#FFF" d="M63.2717514,293.074576 C63.2717514,294.351412 62.2367232,295.386441 60.959322,295.386441 C59.6824859,295.386441 58.6474576,294.351412 58.6474576,293.074576 C58.6474576,291.79774 59.6824859,290.762712 60.959322,290.762712 C62.2367232,290.762712 63.2717514,291.79774 63.2717514,293.074576"/><path id="Fill-126" fill="#FFF" d="M115.948588,263.270056 C115.948588,264.546893 114.913559,265.582486 113.636723,265.582486 C112.359887,265.582486 111.324294,264.546893 111.324294,263.270056 C111.324294,261.99322 112.359887,260.958192 113.636723,260.958192 C114.913559,260.958192 115.948588,261.99322 115.948588,263.270056"/><path id="Fill-127" fill="#FFF" d="M152.623729,215.059322 C152.623729,216.336158 151.588701,217.371751 150.311864,217.371751 C149.035028,217.371751 148,216.336158 148,215.059322 C148,213.782486 149.035028,212.747458 150.311864,212.747458 C151.588701,212.747458 152.623729,213.782486 152.623729,215.059322"/><path id="Fill-128" fill="#FFF" d="M104.789266,208.844633 C104.789266,210.121469 103.754237,211.157062 102.477401,211.157062 C101.200565,211.157062 100.165537,210.121469 100.165537,208.844633 C100.165537,207.567797 101.200565,206.532768 102.477401,206.532768 C103.754237,206.532768 104.789266,207.567797 104.789266,208.844633"/><path id="Fill-129" fill="#FFF" d="M175.222599,263.081921 C175.222599,264.358757 174.187571,265.39435 172.910734,265.39435 C171.633898,265.39435 170.59887,264.358757 170.59887,263.081921 C170.59887,261.805085 171.633898,260.770056 172.910734,260.770056 C174.187571,260.770056 175.222599,261.805085 175.222599,263.081921"/><path id="Fill-130" fill="#FFF" d="M191.229944,258.185876 C191.229944,259.462712 190.194915,260.49774 188.918079,260.49774 C187.641243,260.49774 186.606215,259.462712 186.606215,258.185876 C186.606215,256.90904 187.641243,255.873446 188.918079,255.873446 C190.194915,255.873446 191.229944,256.90904 191.229944,258.185876"/><path id="Fill-131" fill="#FFF" d="M50.2824859,183.050847 C50.2824859,184.327684 49.2474576,185.362712 47.9706215,185.362712 C46.6937853,185.362712 45.6581921,184.327684 45.6581921,183.050847 C45.6581921,181.774011 46.6937853,180.738983 47.9706215,180.738983 C49.2474576,180.738983 50.2824859,181.774011 50.2824859,183.050847"/><path id="Fill-132" fill="#FFF" d="M199.139548,222.875141 C199.139548,224.151977 198.10452,225.187006 196.827684,225.187006 C195.550847,225.187006 194.515819,224.151977 194.515819,222.875141 C194.515819,221.598305 195.550847,220.562712 196.827684,220.562712 C198.10452,220.562712 199.139548,221.598305 199.139548,222.875141"/><path id="Fill-133" fill="#FFF" d="M21.8169492,162.159887 C22.0175141,163.420904 21.1581921,164.60565 19.8971751,164.80678 C18.6361582,165.00791 17.4514124,164.148023 17.2502825,162.887571 C17.0491525,161.626554 17.9090395,160.441243 19.1694915,160.240113 C20.4305085,160.039548 21.6158192,160.89887 21.8169492,162.159887"/><path id="Fill-134" fill="#FFF" d="M56.8118644,125.942938 C56.8118644,127.219774 55.7768362,128.254802 54.5,128.254802 C53.2231638,128.254802 52.1875706,127.219774 52.1875706,125.942938 C52.1875706,124.666102 53.2231638,123.631073 54.5,123.631073 C55.7768362,123.631073 56.8118644,124.666102 56.8118644,125.942938"/><path id="Fill-135" fill="#FFF" d="M26.2163842,130.737853 C26.2163842,132.014689 25.1813559,133.050282 23.9045198,133.050282 C22.6271186,133.050282 21.5920904,132.014689 21.5920904,130.737853 C21.5920904,129.461017 22.6271186,128.425989 23.9045198,128.425989 C25.1813559,128.425989 26.2163842,129.461017 26.2163842,130.737853"/><path id="Fill-136" fill="#FFF" d="M53.6723164,99.8118644 C53.6723164,101.088701 52.6372881,102.123729 51.360452,102.123729 C50.0836158,102.123729 49.0480226,101.088701 49.0480226,99.8118644 C49.0480226,98.5350282 50.0836158,97.499435 51.360452,97.499435 C52.6372881,97.499435 53.6723164,98.5350282 53.6723164,99.8118644"/><path id="Fill-137" fill="#FFF" d="M95.0819209,93.3152542 C95.0819209,94.5920904 94.0468927,95.6276836 92.7700565,95.6276836 C91.4932203,95.6276836 90.4581921,94.5920904 90.4581921,93.3152542 C90.4581921,92.0384181 91.4932203,91.0033898 92.7700565,91.0033898 C94.0468927,91.0033898 95.0819209,92.0384181 95.0819209,93.3152542"/><path id="Fill-138" fill="#FFF" d="M52.1655367,31.6384181 C52.1655367,32.9152542 51.1305085,33.9502825 49.8536723,33.9502825 C48.5768362,33.9502825 47.5418079,32.9152542 47.5418079,31.6384181 C47.5418079,30.3615819 48.5768362,29.3265537 49.8536723,29.3265537 C51.1305085,29.3265537 52.1655367,30.3615819 52.1655367,31.6384181"/><path id="Fill-139" fill="#FFF" d="M29.5666667,43.879661 C29.5666667,45.1564972 28.5316384,46.1915254 27.2548023,46.1915254 C25.9779661,46.1915254 24.9429379,45.1564972 24.9429379,43.879661 C24.9429379,42.6028249 25.9779661,41.5672316 27.2548023,41.5672316 C28.5316384,41.5672316 29.5666667,42.6028249 29.5666667,43.879661"/><path id="Fill-140" fill="#FFF" d="M107.934463,54.9344633 C107.934463,56.2118644 106.899435,57.2468927 105.622599,57.2468927 C104.345763,57.2468927 103.310734,56.2118644 103.310734,54.9344633 C103.310734,53.6576271 104.345763,52.6225989 105.622599,52.6225989 C106.899435,52.6225989 107.934463,53.6576271 107.934463,54.9344633"/><path id="Fill-141" fill="#FFF" d="M147.790395,26.3485876 C147.790395,27.6259887 146.754802,28.6610169 145.477966,28.6610169 C144.20113,28.6610169 143.166102,27.6259887 143.166102,26.3485876 C143.166102,25.0717514 144.20113,24.0367232 145.477966,24.0367232 C146.754802,24.0367232 147.790395,25.0717514 147.790395,26.3485876"/><path id="Fill-142" fill="#FFF" d="M153.911864,73.1757062 C153.911864,74.4525424 152.876836,75.4875706 151.6,75.4875706 C150.323164,75.4875706 149.288136,74.4525424 149.288136,73.1757062 C149.288136,71.8988701 150.323164,70.8638418 151.6,70.8638418 C152.876836,70.8638418 153.911864,71.8988701 153.911864,73.1757062"/><path id="Fill-143" fill="#FFF" d="M204.080791,22.2446328 C204.080791,23.5214689 203.045763,24.5564972 201.768362,24.5564972 C200.491525,24.5564972 199.456497,23.5214689 199.456497,22.2446328 C199.456497,20.9672316 200.491525,19.9322034 201.768362,19.9322034 C203.045763,19.9322034 204.080791,20.9672316 204.080791,22.2446328"/><path id="Fill-144" fill="#FFF" d="M237.716949,51.9774011 C237.716949,53.2542373 236.681921,54.2892655 235.405085,54.2892655 C234.128249,54.2892655 233.092655,53.2542373 233.092655,51.9774011 C233.092655,50.700565 234.128249,49.6655367 235.405085,49.6655367 C236.681921,49.6655367 237.716949,50.700565 237.716949,51.9774011"/><path id="Fill-145" fill="#FFF" d="M234.840113,64.7836158 C234.840113,66.060452 233.80452,67.0954802 232.527684,67.0954802 C231.250847,67.0954802 230.215819,66.060452 230.215819,64.7836158 C230.215819,63.5067797 231.250847,62.4711864 232.527684,62.4711864 C233.80452,62.4711864 234.840113,63.5067797 234.840113,64.7836158"/><path id="Fill-146" fill="#FFF" d="M213.715254,66.5977401 C213.715254,67.8751412 212.680226,68.9101695 211.40339,68.9101695 C210.126554,68.9101695 209.091525,67.8751412 209.091525,66.5977401 C209.091525,65.320904 210.126554,64.2858757 211.40339,64.2858757 C212.680226,64.2858757 213.715254,65.320904 213.715254,66.5977401"/><path id="Fill-147" fill="#FFF" d="M246.938418,114.149153 C246.938418,115.425989 245.902825,116.461017 244.625989,116.461017 C243.349153,116.461017 242.314124,115.425989 242.314124,114.149153 C242.314124,112.871751 243.349153,111.836723 244.625989,111.836723 C245.902825,111.836723 246.938418,112.871751 246.938418,114.149153"/><path id="Fill-148" fill="#FFF" d="M297.619209,76.6954802 C297.619209,77.9723164 296.584181,79.0073446 295.307345,79.0073446 C294.030508,79.0073446 292.99548,77.9723164 292.99548,76.6954802 C292.99548,75.4180791 294.030508,74.3830508 295.307345,74.3830508 C296.584181,74.3830508 297.619209,75.4180791 297.619209,76.6954802"/><path id="Fill-149" fill="#FFF" d="M284.810734,154.131638 C284.087571,155.184181 282.648023,155.451412 281.596045,154.728249 C280.543503,154.005085 280.276271,152.565537 280.999435,151.512994 C281.722599,150.460452 283.162147,150.193785 284.214689,150.916949 C285.266667,151.640113 285.533898,153.079661 284.810734,154.131638"/><path id="Fill-150" fill="#FFF" d="M224.670621,147.834463 C224.670621,149.111299 223.635028,150.146328 222.358192,150.146328 C221.081356,150.146328 220.046328,149.111299 220.046328,147.834463 C220.046328,146.557627 221.081356,145.522034 222.358192,145.522034 C223.635028,145.522034 224.670621,146.557627 224.670621,147.834463"/><path id="Fill-151" fill="#FFF" d="M187.758757,177.024294 C187.758757,178.30113 186.723729,179.336723 185.446893,179.336723 C184.170056,179.336723 183.135028,178.30113 183.135028,177.024294 C183.135028,175.747458 184.170056,174.712429 185.446893,174.712429 C186.723729,174.712429 187.758757,175.747458 187.758757,177.024294"/><path id="Fill-152" fill="#FFF" d="M168.549718,167.419774 C168.549718,168.69661 167.514689,169.732203 166.237853,169.732203 C164.961017,169.732203 163.925989,168.69661 163.925989,167.419774 C163.925989,166.142938 164.961017,165.10791 166.237853,165.10791 C167.514689,165.10791 168.549718,166.142938 168.549718,167.419774"/><path id="Fill-153" fill="#FFF" d="M257.727119,196.327119 C257.727119,197.603955 256.69209,198.638983 255.415254,198.638983 C254.137853,198.638983 253.102825,197.603955 253.102825,196.327119 C253.102825,195.050282 254.137853,194.015254 255.415254,194.015254 C256.69209,194.015254 257.727119,195.050282 257.727119,196.327119"/><path id="Fill-154" fill="#FFF" d="M288.210734,213.549718 C288.210734,214.826554 287.175706,215.862147 285.89887,215.862147 C284.622034,215.862147 283.587006,214.826554 283.587006,213.549718 C283.587006,212.272881 284.622034,211.237853 285.89887,211.237853 C287.175706,211.237853 288.210734,212.272881 288.210734,213.549718"/><path id="Fill-155" fill="#FFF" d="M294.425424,223.154237 C294.425424,224.431073 293.390395,225.466667 292.113559,225.466667 C290.836723,225.466667 289.801695,224.431073 289.801695,223.154237 C289.801695,221.877401 290.836723,220.842373 292.113559,220.842373 C293.390395,220.842373 294.425424,221.877401 294.425424,223.154237"/><path id="Fill-156" fill="#FFF" d="M243.577966,236.148588 C243.577966,237.425424 242.542938,238.461017 241.266102,238.461017 C239.989266,238.461017 238.954237,237.425424 238.954237,236.148588 C238.954237,234.871751 239.989266,233.836723 241.266102,233.836723 C242.542938,233.836723 243.577966,234.871751 243.577966,236.148588"/><path id="Fill-157" fill="#FFF" d="M286.694915,259.786441 C286.694915,261.063277 285.659887,262.09887 284.382486,262.09887 C283.10565,262.09887 282.070621,261.063277 282.070621,259.786441 C282.070621,258.509605 283.10565,257.474576 284.382486,257.474576 C285.659887,257.474576 286.694915,258.509605 286.694915,259.786441"/><path id="Fill-158" fill="#FFF" d="M232.654802,271.251412 C232.654802,272.528249 231.619774,273.563277 230.342938,273.563277 C229.065537,273.563277 228.030508,272.528249 228.030508,271.251412 C228.030508,269.974576 229.065537,268.939548 230.342938,268.939548 C231.619774,268.939548 232.654802,269.974576 232.654802,271.251412"/><path id="Fill-159" fill="#FFF" d="M128.405085,173.645763 C128.405085,174.922599 127.370056,175.957627 126.09322,175.957627 C124.815819,175.957627 123.780791,174.922599 123.780791,173.645763 C123.780791,172.368362 124.815819,171.333333 126.09322,171.333333 C127.370056,171.333333 128.405085,172.368362 128.405085,173.645763"/><path id="Fill-160" fill="#FFF" d="M144.628814,119.754237 C144.628814,121.031073 143.593785,122.066102 142.316949,122.066102 C141.040113,122.066102 140.005085,121.031073 140.005085,119.754237 C140.005085,118.477401 141.040113,117.441808 142.316949,117.441808 C143.593785,117.441808 144.628814,118.477401 144.628814,119.754237"/><path id="Fill-161" fill="#FFF" d="M128.800565,122.549718 C128.800565,123.826554 127.765537,124.861582 126.488701,124.861582 C125.211864,124.861582 124.176836,123.826554 124.176836,122.549718 C124.176836,121.272316 125.211864,120.237288 126.488701,120.237288 C127.765537,120.237288 128.800565,121.272316 128.800565,122.549718"/></g></g></g></svg>