<svg height="512pt" viewBox="0 -16 512 512" width="512pt" xmlns="http://www.w3.org/2000/svg"><path d="m480.683594 472.382812h-449.367188c-13.152344 0-23.816406-10.664062-23.816406-23.816406v-417.25c0-13.15625 10.664062-23.816406 23.816406-23.816406h449.367188c13.15625 0 23.816406 10.660156 23.816406 23.816406v417.25c0 13.152344-10.664062 23.816406-23.816406 23.816406zm0 0" fill="#f4f4f4"/><path d="m480.683594 7.5h-35c13.152344 0 23.816406 10.660156 23.816406 23.816406v417.25c0 13.152344-10.664062 23.816406-23.816406 23.816406h35c13.152344 0 23.816406-10.664062 23.816406-23.816406v-417.25c0-13.15625-10.664062-23.816406-23.816406-23.816406zm0 0" fill="#e8e8e8"/><path d="m7.5 96.964844h497v-65.648438c0-13.15625-10.664062-23.816406-23.816406-23.816406h-449.367188c-13.152344 0-23.816406 10.660156-23.816406 23.816406zm0 0" fill="#fa5d72"/><path d="m480.683594 7.5h-35c13.152344 0 23.816406 10.660156 23.816406 23.816406v65.648438h35v-65.648438c0-13.15625-10.664062-23.816406-23.816406-23.816406zm0 0" fill="#e35567"/><path d="m84.808594 52.230469c0 9.75-7.902344 17.65625-17.652344 17.65625s-17.65625-7.90625-17.65625-17.65625 7.90625-17.652344 17.65625-17.652344 17.652344 7.902344 17.652344 17.652344zm0 0" fill="#2cab72"/><path d="m144.570312 52.230469c0 9.75-7.90625 17.65625-17.65625 17.65625s-17.652343-7.90625-17.652343-17.65625 7.902343-17.652344 17.652343-17.652344 17.65625 7.902344 17.65625 17.652344zm0 0" fill="#f6d867"/><path d="m204.328125 52.230469c0 9.75-7.902344 17.65625-17.652344 17.65625s-17.65625-7.90625-17.65625-17.65625 7.90625-17.652344 17.65625-17.652344 17.652344 7.902344 17.652344 17.652344zm0 0" fill="#5994ce"/><path d="m358.957031 422.046875h-205.914062c-22.390625 0-40.542969-18.152344-40.542969-40.542969v-155.105468c0-22.390626 18.152344-40.542969 40.542969-40.542969h205.914062c22.390625 0 40.542969 18.152343 40.542969 40.542969v155.105468c0 22.390625-18.152344 40.542969-40.542969 40.542969zm0 0" fill="#9c9a9b"/><path d="m358.957031 185.855469h-38.5c22.390625 0 40.542969 18.152343 40.542969 40.542969v155.105468c0 22.390625-18.152344 40.542969-40.542969 40.542969h38.5c22.390625 0 40.542969-18.152344 40.542969-40.542969v-155.105468c0-22.390626-18.152344-40.542969-40.542969-40.542969zm0 0" fill="#858384"/><path d="m331 185.855469h-150v-22.375c0-9.644531 7.816406-17.464844 17.460938-17.464844h115.074218c9.644532 0 17.464844 7.820313 17.464844 17.464844zm0 0" fill="#495663"/><path d="m313.539062 146.015625h-30.667968c9.644531 0 17.460937 7.820313 17.460937 17.460937v22.378907h30.667969v-22.378907c0-9.640624-7.816406-17.460937-17.460938-17.460937zm0 0" fill="#3a444f"/><path d="m92.308594 52.230469c0-13.871094-11.28125-25.152344-25.152344-25.152344s-25.15625 11.28125-25.15625 25.152344c0 13.871093 11.285156 25.15625 25.152344 25.15625 13.871094 0 25.15625-11.285157 25.15625-25.15625zm-25.152344 10.15625c-5.601562 0-10.15625-4.558594-10.15625-10.15625 0-5.597657 4.554688-10.152344 10.152344-10.152344 5.601562 0 10.15625 4.554687 10.15625 10.152344 0 5.597656-4.554688 10.15625-10.152344 10.15625zm0 0"/><path d="m126.914062 77.386719c13.871094 0 25.15625-11.285157 25.15625-25.15625 0-13.871094-11.285156-25.152344-25.15625-25.152344-13.867187 0-25.152343 11.28125-25.152343 25.152344 0 13.871093 11.28125 25.15625 25.152343 25.15625zm0-35.308594c5.601563 0 10.15625 4.554687 10.15625 10.152344 0 5.597656-4.554687 10.15625-10.15625 10.15625-5.597656 0-10.152343-4.558594-10.152343-10.15625 0-5.597657 4.554687-10.152344 10.152343-10.152344zm0 0"/><path d="m186.675781 77.386719c13.867188 0 25.152344-11.285157 25.152344-25.15625 0-13.871094-11.285156-25.152344-25.152344-25.152344-13.871093 0-25.15625 11.28125-25.15625 25.152344 0 13.871093 11.285157 25.15625 25.15625 25.15625zm0-35.308594c5.597657 0 10.152344 4.554687 10.152344 10.152344 0 5.597656-4.554687 10.15625-10.152344 10.15625-5.601562 0-10.15625-4.558594-10.15625-10.15625 0-5.597657 4.554688-10.152344 10.15625-10.152344zm0 0"/><path d="m269.667969 59.730469h182.667969c4.140624 0 7.5-3.355469 7.5-7.5 0-4.140625-3.359376-7.5-7.5-7.5h-182.667969c-4.144531 0-7.5 3.359375-7.5 7.5 0 4.144531 3.355469 7.5 7.5 7.5zm0 0"/><path d="m511.578125 26.164062c-.042969-.257812-.089844-.511718-.140625-.769531-.023438-.125-.046875-.253906-.074219-.382812-2.925781-14.253907-15.570312-25.011719-30.679687-25.011719h-449.367188c-17.265625 0-31.316406 14.046875-31.316406 31.316406v417.25c0 17.269532 14.050781 31.316406 31.316406 31.316406h449.367188c17.265625 0 31.316406-14.050781 31.316406-31.316406v-417.25c0-1.753906-.144531-3.472656-.421875-5.152344zm-30.894531 438.71875h-449.367188c-8.996094 0-16.316406-7.320312-16.316406-16.316406v-344.101562h41.808594c4.144531 0 7.5-3.359375 7.5-7.5 0-4.144532-3.355469-7.5-7.5-7.5h-41.808594v-58.148438c0-8.996094 7.320312-16.316406 16.316406-16.316406h449.367188c7.308594 0 13.511718 4.832031 15.582031 11.46875.019531.066406.039063.128906.058594.191406.058593.195313.109375.386719.160156.582032.019531.066406.035156.132812.050781.199218.046875.195313.09375.394532.132813.589844.082031.398438.148437.804688.199219 1.210938.019531.136718.035156.273437.046874.410156.058594.546875.085938 1.101562.085938 1.664062v58.148438h-412.191406c-4.140625 0-7.5 3.355468-7.5 7.5 0 4.140625 3.359375 7.5 7.5 7.5h412.191406v344.101562c0 8.996094-7.320312 16.316406-16.316406 16.316406zm0 0"/><path d="m166.363281 298.246094c2.929688 2.929687 7.675781 2.925781 10.605469 0l14.695312-14.699219 14.699219 14.699219c2.929688 2.929687 7.675781 2.925781 10.605469 0 2.929688-2.929688 2.929688-7.679688 0-10.609375l-14.695312-14.695313 14.695312-14.695312c2.929688-2.929688 2.929688-7.679688 0-10.609375-2.929688-2.925781-7.679688-2.925781-10.605469 0l-14.699219 14.699219-14.695312-14.699219c-2.929688-2.925781-7.679688-2.925781-10.605469 0-2.929687 2.929687-2.929687 7.679687 0 10.609375l14.695313 14.695312-14.695313 14.695313c-2.929687 2.929687-2.929687 7.679687 0 10.609375zm0 0"/><path d="m295.03125 298.246094c2.929688 2.929687 7.675781 2.925781 10.605469 0l14.695312-14.699219 14.699219 14.699219c2.929688 2.929687 7.675781 2.925781 10.605469 0 2.929687-2.929688 2.929687-7.679688 0-10.609375l-14.695313-14.695313 14.695313-14.695312c2.929687-2.929688 2.929687-7.679688 0-10.609375-2.929688-2.925781-7.679688-2.925781-10.605469 0l-14.699219 14.699219-14.695312-14.699219c-2.929688-2.925781-7.679688-2.925781-10.605469 0-2.929688 2.929687-2.929688 7.679687 0 10.609375l14.695312 14.695312-14.695312 14.695313c-2.929688 2.929687-2.929688 7.679687 0 10.609375zm0 0"/><path d="m187.503906 359.773438h136.992188c4.140625 0 7.5-3.355469 7.5-7.5 0-4.140626-3.359375-7.5-7.5-7.5h-136.992188c-4.140625 0-7.5 3.359374-7.5 7.5 0 4.144531 3.359375 7.5 7.5 7.5zm0 0"/><path d="m358.957031 178.355469h-20.457031v-14.875c0-13.765625-11.199219-24.964844-24.960938-24.964844h-115.078124c-13.761719 0-24.960938 11.199219-24.960938 24.964844v14.875h-20.457031c-26.492188 0-48.042969 21.554687-48.042969 48.042969v155.105468c0 26.488282 21.550781 48.042969 48.042969 48.042969h133.292969c4.140624 0 7.5-3.359375 7.5-7.5 0-4.144531-3.359376-7.5-7.5-7.5h-133.292969c-18.21875 0-33.042969-14.824219-33.042969-33.042969v-155.105468c0-18.21875 14.824219-33.042969 33.042969-33.042969h205.914062c18.21875 0 33.042969 14.824219 33.042969 33.042969v155.105468c0 18.21875-14.824219 33.042969-33.042969 33.042969h-44.625c-4.140625 0-7.5 3.355469-7.5 7.5 0 4.140625 3.359375 7.5 7.5 7.5h44.625c26.492188 0 48.042969-21.554687 48.042969-48.042969v-155.105468c0-26.488282-21.550781-48.042969-48.042969-48.042969zm-170.457031 0v-14.875c0-5.496094 4.46875-9.964844 9.960938-9.964844h115.074218c5.496094 0 9.964844 4.46875 9.964844 9.964844v14.875zm0 0"/></svg>