<svg xmlns="http://www.w3.org/2000/svg" viewBox="0 0 89.35 89.34"><path d="M44.58 89.39a44.67 44.67 0 1144.75-43.56 44.68 44.68 0 01-44.75 43.56z" fill="#4489fe"/><path d="M48.77 77.39a45.58 45.58 0 01-7.58-.85l-.62-.16c-.82-.24-1.52-.64-1.53-1.59s.69-1.38 1.5-1.62a22.25 22.25 0 015.06-.74 25.56 25.56 0 0012.75-3.87 19.42 19.42 0 007.51-9.24l.09-.26c.32-1 .7-2 2-2a2.47 2.47 0 012.3 1.95 11.26 11.26 0 01-1.94 11.62 17.36 17.36 0 01-11.24 6 82.8 82.8 0 01-8.3.76zM36.32 60.25c-1.57-.2-3-.05-4.44-.3a7.84 7.84 0 01-6-4.73 12.81 12.81 0 01-1.07-8.91c.87-3.5 3.75-5 6.93-3.36a35 35 0 0111.54 9.44c1.15 1.46 1.68 3.07.72 4.86a5.08 5.08 0 01-4.43 2.81zM56.84 60.65a39.86 39.86 0 01-7.68-1.19 5.09 5.09 0 01-1.84-1 3.38 3.38 0 01-.25-5.4 11.53 11.53 0 013.42-2.27 37.3 37.3 0 018.56-2.92 4.6 4.6 0 015.71 4.91 8.5 8.5 0 01-5.3 7.5 7.77 7.77 0 01-2.62.37z" fill="#fefefe"/><path d="M22.34 46.39c0 2-.05 4 0 6 .09 2.75-2 3.33-3.82 3-4.18-.63-6.41-3.21-6.49-7.44v-4.13c.12-2.72 1.05-5 3.56-6.42a1.32 1.32 0 00.67-1 27.38 27.38 0 014.54-10.54.82.82 0 00.15-.84 2.27 2.27 0 01.53-2.38A28.2 28.2 0 0137.74 13a36 36 0 016.79-.94 29.88 29.88 0 0117.94 5.78 42.6 42.6 0 014.76 4c.9.88 1.53 1.86 1 3.19a.81.81 0 00.19.76 27.59 27.59 0 014.56 10.63 1.17 1.17 0 00.61.85 6.8 6.8 0 013.54 6.12 34 34 0 01-.08 6.3 6.77 6.77 0 01-7.87 5.65 2.6 2.6 0 01-2.21-2.92c0-3.5.06-7 0-10.48-.2-8.41-3.89-14.8-11.14-19.13-11.09-6.62-25.74-1.87-31.31 9.69a20.28 20.28 0 00-2.09 8.86v5.03z" fill="#fefefe"/></svg>