<svg id="Rocket" xmlns="http://www.w3.org/2000/svg" viewBox="0 0 108.59 104.26">
	<title>
		rocket
	</title>
	<path d="M331.5,404.21A25.52,25.52,0,0,1,328.3,422a10.5,10.5,0,0,1-.92,1.19h-.21c-2.43-2.9-3.48-6.38-4.1-10a33.86,33.86,0,0,1-.45-7c0-1.29.38-1.62,1.67-1.65a52.25,52.25,0,0,0,2.54,8.88c.45-.2.46-.55.59-.83a61,61,0,0,0,2.54-8.46Z" transform="translate(-272.11 -319)" fill="#edf5fb" />
	<path d="M272.13,346.75a2.62,2.62,0,0,0,2-1.58c.39-.83.83-.82,1.26,0a3.49,3.49,0,0,0,1.42,1.43c.88.53.87.78-.08,1.28a2.73,2.73,0,0,0-1.33,1.35c-.13.3-.27.64-.64.66s-.51-.37-.63-.66a2.71,2.71,0,0,0-2-1.6Z" transform="translate(-272.11 -319)" fill="#8eb1dc" />
	<path d="M340.62,338.61a32.22,32.22,0,0,1,2.12,7.33,91.77,91.77,0,0,1,2,18.26,105.45,105.45,0,0,1-.89,16.09,10.86,10.86,0,0,0,0,1.51,3.37,3.37,0,0,0-.46,1.51,64.84,64.84,0,0,1-3.76,13.3,6.45,6.45,0,0,0-.94,2.48,8.09,8.09,0,0,0-1.32,2.18c-.29.55-.61.82-1.26.47a2.93,2.93,0,0,0-1.64-.41c-1.17-.77-2.57-.71-3.87-1,0-1.27.15-2.52.21-3.77a52.84,52.84,0,0,0-2.64-19,13.49,13.49,0,0,0-1.26-3.19,1.62,1.62,0,0,0-.45.84,48.68,48.68,0,0,0-2.25,8.65,60.91,60.91,0,0,0-.93,11.9c0,1.54.25,3.08.39,4.61a32.09,32.09,0,0,0-3.9.8c-.8.14-1.58,1-2.24.65s-.78-1.3-1.13-2a1.16,1.16,0,0,0-.54-.63c0-1.28-.71-2.32-1.11-3.46a104.78,104.78,0,0,1-3.64-14.06,84.25,84.25,0,0,1-1.34-13.36,88.46,88.46,0,0,1,1.08-15.51,73.19,73.19,0,0,1,3.43-13.2,1.73,1.73,0,0,1,.5-.93Zm-12.94,28.78a10,10,0,1,0-10.08-10A10.05,10.05,0,0,0,327.68,367.39Z" transform="translate(-272.11 -319)" fill="#c1ddf4" />
	<path d="M340.62,338.61l-25.82,0a22,22,0,0,1,2-4.89,56.33,56.33,0,0,1,8.15-12.7c1.66-1.94,3.49-2,5.29-.24,5,4.9,8.13,10.87,10.39,17.38A2,2,0,0,1,340.62,338.61Z" transform="translate(-272.11 -319)" fill="#1d4c83" />
	<path d="M311.13,381.63a104.78,104.78,0,0,0,3.64,14.06c.4,1.14,1.14,2.18,1.11,3.46a21.15,21.15,0,0,0-11.71,8.76,26.38,26.38,0,0,0-3,5.62c-.1.26-.22.51-.42.94a24,24,0,0,1-1.25-5.59c-.63-5-.57-10,1.24-14.82A23,23,0,0,1,311.13,381.63Z" transform="translate(-272.11 -319)" fill="#8eb1dc" />
	<path d="M338.71,399.09a6.45,6.45,0,0,1,.94-2.48,64.84,64.84,0,0,0,3.76-13.3,3.37,3.37,0,0,1,.46-1.51A22.79,22.79,0,0,1,354,394a29.52,29.52,0,0,1,1.41,13.42,49.57,49.57,0,0,1-1.37,7.15C351,407.16,346.56,401.43,338.71,399.09Z" transform="translate(-272.11 -319)" fill="#8eb1dc" />
	<path d="M323.69,400.33c-.14-1.53-.35-3.07-.39-4.61a60.91,60.91,0,0,1,.93-11.9,48.68,48.68,0,0,1,2.25-8.65,1.62,1.62,0,0,1,.45-.84,13.49,13.49,0,0,1,1.26,3.19,52.84,52.84,0,0,1,2.64,19c-.06,1.25-.25,2.5-.21,3.77a18.86,18.86,0,0,0-.66,3.88,61,61,0,0,1-2.54,8.46c-.13.28-.14.63-.59.83a52.25,52.25,0,0,1-2.54-8.88c0-.15,0-.29,0-.44A32.76,32.76,0,0,1,323.69,400.33Z" transform="translate(-272.11 -319)" fill="#8eb1dc" />
	<path d="M380.44,352.22a.64.64,0,0,1-.48.73,3.13,3.13,0,0,0-1.72,1.69c-.38.78-.91.78-1.28,0a3.32,3.32,0,0,0-1.79-1.76c-.76-.32-.56-.78,0-1.06a4,4,0,0,0,1.93-1.95c.22-.44.68-.69,1-.12a4.05,4.05,0,0,0,2.13,2.14C380.34,351.92,380.4,352.16,380.44,352.22Z" transform="translate(-272.11 -319)" fill="#c1ddf4" />
	<path d="M347.32,321.41a2,2,0,0,1-2.05,2.16,2.31,2.31,0,0,1-2.28-2.23,2.39,2.39,0,0,1,2.31-2.11A2,2,0,0,1,347.32,321.41Z" transform="translate(-272.11 -319)" fill="#edf5fb" />
	<path d="M330,404.18a18.86,18.86,0,0,1,.66-3.88c1.3.32,2.7.26,3.87,1-.05.17-.13.34-.17.51-.54,2.26-.54,2.26-2.82,2.37Z" transform="translate(-272.11 -319)" fill="#1d4c83" />
	<path d="M323.69,400.33a32.76,32.76,0,0,0,.65,3.82c-1,0-2,0-3,0a1,1,0,0,1-1.09-.83c-.17-.74-.3-1.48-.45-2.22A32.09,32.09,0,0,1,323.69,400.33Z" transform="translate(-272.11 -319)" fill="#1d4c83" />
	<path d="M302.31,332.63c-.4.05-.52-.2-.61-.43a2.25,2.25,0,0,0-1.31-1.34c-.71-.28-.66-.75-.07-1.08a3.23,3.23,0,0,0,1.41-1.4c.28-.58.76-.58,1,0a3.24,3.24,0,0,0,1.48,1.49c.35.19.5.53.12.75a4.53,4.53,0,0,0-1.78,1.8C302.54,332.53,302.37,332.58,302.31,332.63Z" transform="translate(-272.11 -319)" fill="#c1ddf4" />
	<path d="M356.27,341.49a.57.57,0,0,1-.48-.42,1.88,1.88,0,0,0-1-1c-.57-.26-.61-.72,0-.9.81-.25.87-1.46,1.61-1.39s.72,1.19,1.51,1.41c.31.09.48.44.17.67a4.77,4.77,0,0,0-1.49,1.51C356.48,341.41,356.35,341.44,356.27,341.49Z" transform="translate(-272.11 -319)" fill="#8eb1dc" />
	<path d="M296.15,365.15a1.38,1.38,0,0,1,1.53,1.41,1.49,1.49,0,0,1-3,.09A1.38,1.38,0,0,1,296.15,365.15Z" transform="translate(-272.11 -319)" fill="#8eb1dc" />
	<path d="M355.53,359.24c-.08.51-.67.51-.88.87-.62,1.08-1.18,1-1.74-.05a.79.79,0,0,0-.42-.31c-.72-.3-.67-.64-.08-1,.15-.09.29-.21.45-.29.44-.23.54-1.16,1-.93.63.32,1,1.11,1.59,1.53C355.51,359.07,355.5,359.16,355.53,359.24Z" transform="translate(-272.11 -319)" fill="#edf5fb" />
	<path d="M327.68,367.39a10,10,0,1,1,10.05-10.05A10,10,0,0,1,327.68,367.39Zm6.92-10a7,7,0,1,0-6.92,7A6.88,6.88,0,0,0,334.6,357.36Z" transform="translate(-272.11 -319)" fill="#1d4c83" />
	<path d="M334.6,357.36a7,7,0,1,1-6.93-6.95A6.87,6.87,0,0,1,334.6,357.36Z" transform="translate(-272.11 -319)" fill="#fbd375" />
</svg>
