<svg xmlns="http://www.w3.org/2000/svg" xmlns:xlink="http://www.w3.org/1999/xlink" width="59" height="97" version="1.1" viewBox="0 0 59 97"><title>Custom Preset</title><desc>Created with Sketch.</desc><g id="Custom-Preset" fill="none" fill-rule="evenodd" stroke="none" stroke-width="1" opacity=".03"><g id="Logo" fill="#fff" transform="translate(6.000000, 0.000000)"><polygon id="Rectangle" points="42.544 0 50.05 0 32.175 29.479 28.466 23.379"/><polygon id="Triangle-Copy" points="17.781 0 35.562 29.324 26.692 29.324 17.963 14.988 9.229 29.324 0 29.324" transform="translate(17.780772, 14.661871) scale(1, -1) translate(-17.780772, -14.661871)"/></g><g id="Logo-Copy-2" fill="#fff" transform="translate(34.000000, 49.000000)"><polygon id="Triangle-Copy" points="17.781 0 35.562 29.324 26.692 29.324 17.963 14.988 9.229 29.324 0 29.324" transform="translate(17.780772, 14.661871) scale(1, -1) translate(-17.780772, -14.661871)"/></g><g id="Logo-Copy-3" fill="#fff" transform="translate(-25.000000, 49.000000)"><polygon id="Rectangle" points="42.544 0 50.05 0 32.175 29.479 28.466 23.379"/><polygon id="Triangle-Copy" points="17.781 0 35.562 29.324 26.692 29.324 17.963 14.988 9.229 29.324 0 29.324" transform="translate(17.780772, 14.661871) scale(1, -1) translate(-17.780772, -14.661871)"/></g></g></svg>