<?xml version="1.0" standalone="no"?>
<!DOCTYPE svg PUBLIC "-//W3C//DTD SVG 20010904//EN"
 "http://www.w3.org/TR/2001/REC-SVG-20010904/DTD/svg10.dtd">
<svg version="1.0" xmlns="http://www.w3.org/2000/svg"
 width="800.000000pt" height="800.000000pt" viewBox="0 0 800.000000 800.000000"
 preserveAspectRatio="xMidYMid meet">
<metadata>
Created by potrace 1.11, written by Peter Selinger 2001-2013
</metadata>
<g transform="translate(0.000000,800.000000) scale(0.100000,-0.100000)"
fill="#000000" stroke="none">
<path d="M3830 7849 c-53 -3 -100 -8 -105 -11 -6 -3 -39 -9 -75 -12 -36 -4
-74 -9 -85 -11 -11 -3 -38 -7 -60 -10 -68 -9 -134 -20 -170 -29 -11 -2 -69
-14 -130 -25 -211 -41 -555 -149 -738 -233 -70 -32 -130 -58 -132 -58 -13 0
-286 -163 -378 -226 -193 -131 -300 -221 -495 -414 -213 -210 -254 -263 -273
-359 -12 -54 -11 -71 4 -127 l17 -65 -64 -92 c-109 -159 -217 -359 -326 -602
-41 -90 -140 -408 -165 -525 -14 -69 -28 -133 -31 -142 -3 -9 -31 -31 -62 -49
-53 -29 -102 -65 -160 -114 -81 -68 -186 -248 -212 -360 -6 -27 -16 -58 -21
-68 -19 -36 -25 -148 -23 -502 l1 -360 33 -110 c68 -230 171 -375 349 -490 87
-56 188 -91 351 -120 60 -11 203 -6 259 9 95 26 180 105 201 186 21 82 23 149
25 840 2 668 6 803 21 915 8 61 28 175 37 210 3 11 10 38 15 60 89 355 254
688 491 990 61 77 286 305 370 375 377 314 882 537 1361 602 128 17 608 17
714 -1 44 -7 93 -15 109 -17 87 -11 392 -104 509 -155 167 -73 455 -232 506
-279 9 -9 44 -34 77 -57 151 -103 379 -317 486 -455 19 -23 37 -45 40 -48 13
-11 140 -201 175 -261 48 -84 120 -227 129 -259 4 -14 11 -30 15 -35 14 -17
106 -279 114 -323 2 -15 15 -74 29 -132 14 -58 28 -127 32 -153 3 -27 8 -56
10 -65 1 -10 6 -55 10 -102 4 -47 10 -98 12 -115 3 -16 6 -349 7 -740 3 -828
2 -810 97 -904 89 -87 280 -119 463 -77 162 38 291 109 408 227 128 128 178
232 224 461 25 124 27 150 26 381 -1 136 -4 252 -7 258 -4 5 -9 55 -11 111
-15 312 -152 540 -416 692 -50 29 -60 49 -73 136 -18 121 -115 434 -185 595
-48 110 -145 303 -176 353 -19 29 -34 55 -34 59 0 4 -38 64 -85 134 l-86 128
17 57 c28 97 8 192 -58 277 -44 56 -182 190 -312 302 -32 28 -68 58 -80 69
-11 10 -55 44 -96 75 -41 31 -80 61 -86 66 -28 25 -288 205 -297 205 -2 0 -44
24 -94 54 -261 158 -687 326 -943 372 -14 3 -50 11 -80 19 -30 8 -130 25 -222
40 -92 14 -174 28 -182 31 -19 7 -403 10 -516 3z"/>
<path d="M2060 4269 c-25 -6 -49 -15 -54 -20 -6 -5 -16 -9 -24 -9 -23 0 -124
-72 -178 -128 -126 -128 -194 -351 -196 -642 -1 -150 4 -202 33 -337 58 -269
207 -561 358 -701 43 -40 142 -112 192 -140 74 -41 238 -91 354 -106 115 -15
767 -24 852 -12 185 28 303 80 402 177 139 137 204 331 161 487 -50 188 -274
464 -615 757 -39 33 -75 64 -81 70 -6 5 -26 21 -44 35 -18 14 -42 33 -54 44
-36 32 -320 242 -346 256 -14 7 -27 16 -30 19 -13 15 -154 104 -240 151 -139
75 -224 102 -345 106 -55 2 -120 -2 -145 -7z"/>
<path d="M5828 3636 c-1 -2 -37 -6 -78 -9 -148 -12 -285 -46 -560 -142 -74
-26 -157 -57 -185 -70 -27 -12 -88 -36 -135 -54 -280 -104 -566 -294 -667
-441 -86 -127 -86 -311 0 -432 129 -181 280 -248 697 -313 52 -8 106 -17 120
-19 273 -47 528 -53 665 -17 189 50 355 170 492 356 75 100 148 263 167 370 3
17 9 51 14 77 25 130 6 310 -42 405 -44 87 -140 181 -235 231 -27 14 -119 37
-186 47 -22 3 -45 8 -52 10 -6 2 -13 2 -15 1z"/>
<path d="M6697 2537 c-38 -8 -59 -20 -98 -59 -27 -27 -49 -53 -49 -59 0 -20
-73 -206 -113 -289 -73 -150 -210 -373 -261 -426 -6 -6 -22 -26 -36 -44 -113
-152 -358 -370 -560 -497 -239 -151 -644 -316 -863 -353 -29 -5 -113 -20 -187
-33 -74 -14 -169 -28 -210 -32 -41 -4 -93 -8 -115 -10 -22 -2 -76 -7 -120 -10
-124 -10 -146 -12 -205 -20 -30 -4 -68 -9 -83 -11 -89 -11 -159 -23 -245 -40
-69 -14 -155 -62 -194 -109 -21 -26 -32 -84 -23 -134 7 -41 39 -83 90 -118 60
-41 376 -104 595 -119 41 -2 98 -10 125 -16 66 -15 620 -15 695 0 30 6 97 14
149 17 51 3 124 10 162 15 38 6 72 9 77 8 4 -1 21 1 37 5 17 3 50 9 75 12 25
3 52 8 60 10 8 2 33 6 55 10 214 30 506 114 682 195 57 27 222 125 233 139 3
4 43 35 90 71 286 217 447 411 554 675 21 50 62 215 70 280 3 28 9 73 12 100
15 122 10 269 -13 385 -27 134 -47 198 -81 260 -88 160 -181 221 -305 197z"/>
</g>
</svg>
