<?xml version="1.0" standalone="no"?>
<!DOCTYPE svg PUBLIC "-//W3C//DTD SVG 20010904//EN"
 "http://www.w3.org/TR/2001/REC-SVG-20010904/DTD/svg10.dtd">
<svg version="1.0" xmlns="http://www.w3.org/2000/svg"
 width="512.000000pt" height="512.000000pt" viewBox="0 0 512.000000 512.000000"
 preserveAspectRatio="xMidYMid meet">
<metadata>
Created by potrace 1.11, written by Peter Selinger 2001-2013
</metadata>
<g transform="translate(0.000000,512.000000) scale(0.100000,-0.100000)"
fill="#000000" stroke="none">
<path d="M2400 5019 c-19 -4 -57 -10 -85 -13 -27 -3 -63 -8 -80 -11 -583 -101
-958 -285 -1312 -642 -154 -154 -184 -211 -159 -296 12 -41 12 -42 -49 -132
-126 -189 -257 -497 -300 -708 -12 -60 -23 -91 -34 -95 -67 -26 -179 -134
-216 -210 -37 -74 -44 -92 -49 -122 -3 -14 -9 -39 -14 -55 -5 -17 -9 -140 -9
-274 0 -237 0 -245 27 -332 15 -49 40 -109 55 -135 60 -102 188 -200 286 -219
12 -2 37 -9 55 -15 45 -15 170 -16 220 -2 58 17 110 72 125 135 9 37 13 192
14 542 1 270 3 490 4 490 1 0 4 20 6 45 4 47 13 104 20 130 2 8 6 26 9 40 15
92 100 316 158 420 117 211 282 401 463 534 22 17 42 33 45 36 13 17 215 129
300 166 177 78 326 118 515 139 92 11 363 4 435 -10 14 -2 41 -7 60 -10 69
-11 267 -78 365 -124 291 -138 550 -354 712 -596 122 -183 201 -382 247 -625
26 -138 27 -163 31 -665 4 -479 4 -498 23 -545 61 -153 358 -153 550 -1 103
82 153 171 195 351 18 79 13 439 -8 550 -29 154 -103 262 -237 347 -37 23 -58
43 -58 54 0 25 0 23 -11 61 -5 18 -11 45 -14 59 -6 34 -72 233 -93 284 -61
144 -163 329 -224 407 -27 35 -28 39 -18 85 12 52 7 101 -17 146 -32 63 -317
315 -473 417 -12 8 -32 23 -45 32 -38 30 -194 117 -284 160 -81 38 -312 125
-356 134 -11 2 -51 11 -90 20 -106 24 -140 30 -215 39 -30 4 -59 10 -65 13
-14 9 -363 10 -405 1z"/>
<path d="M1319 2731 c-81 -17 -175 -92 -221 -177 -48 -88 -67 -186 -68 -344 0
-99 2 -128 14 -168 3 -9 8 -33 11 -52 14 -83 74 -227 134 -320 71 -111 196
-212 291 -235 8 -2 40 -11 70 -20 68 -19 192 -27 425 -27 230 1 276 7 357 48
105 53 176 142 201 249 20 88 8 146 -50 243 -52 85 -91 131 -204 242 -109 108
-167 158 -299 263 -123 98 -294 209 -391 256 -70 34 -99 42 -160 45 -41 3 -90
2 -110 -3z"/>
<path d="M3678 2325 c-2 -2 -23 -6 -48 -10 -83 -12 -260 -62 -335 -94 -11 -5
-69 -28 -130 -52 -236 -91 -405 -198 -475 -302 -33 -49 -35 -56 -35 -137 0
-75 3 -90 27 -126 35 -54 101 -111 163 -140 52 -24 186 -59 271 -69 27 -4 56
-8 64 -10 8 -2 35 -7 60 -10 25 -3 61 -8 80 -11 85 -13 253 -11 308 3 122 32
224 101 308 208 89 115 125 210 139 370 16 179 -86 328 -251 365 -48 11 -141
20 -146 15z"/>
<path d="M4263 1615 c-40 -17 -68 -55 -89 -122 -27 -85 -144 -309 -189 -360
-5 -6 -21 -26 -35 -44 -158 -209 -390 -380 -663 -488 -82 -33 -244 -83 -267
-83 -8 0 -31 -4 -50 -9 -70 -17 -170 -30 -345 -44 -99 -8 -154 -14 -200 -22
-22 -3 -51 -7 -65 -8 -43 -4 -121 -25 -154 -42 -42 -21 -64 -49 -71 -87 -14
-75 38 -124 165 -154 80 -20 114 -25 228 -37 26 -3 72 -8 102 -12 76 -9 439
-11 470 -2 14 4 63 10 110 14 83 5 120 9 188 20 17 3 49 8 70 11 20 3 69 12
107 20 39 8 83 17 100 20 52 10 241 81 291 109 140 78 331 239 415 350 54 72
105 173 126 250 10 40 22 96 28 130 11 66 13 233 4 273 -4 20 -10 51 -13 68
-21 120 -109 251 -170 255 -12 1 -31 3 -42 4 -12 1 -35 -3 -51 -10z"/>
</g>
</svg>
